<?xml version="1.0" standalone="no"?>
<!DOCTYPE svg PUBLIC "-//W3C//DTD SVG 1.1//EN" "http://www.w3.org/Graphics/SVG/1.1/DTD/svg11.dtd" >
<svg xmlns="http://www.w3.org/2000/svg" xmlns:xlink="http://www.w3.org/1999/xlink" version="1.1">
<metadata>
Created by FontForge 20230101 at Tue Oct 22 20:15:49 2024
 By Unknown
</metadata>
<defs>
<font id="XanhMono-Regular" horiz-adv-x="500" >
  <font-face 
    font-family="Xanh Mono"
    font-weight="400"
    font-stretch="normal"
    units-per-em="1000"
    panose-1="2 0 0 9 0 0 0 0 0 0"
    ascent="800"
    descent="-200"
    x-height="540"
    cap-height="740"
    bbox="-161 -213 549 1100"
    underline-thickness="50"
    underline-position="-125"
    unicode-range="U+000D-25CA"
  />
<missing-glyph 
d="M100 -140h300v840h-300v-840zM50 -190v940h400v-940h-400z" />
    <glyph glyph-name=".notdef" 
d="M100 -140h300v840h-300v-840zM50 -190v940h400v-940h-400z" />
    <glyph glyph-name=".notdef" 
d="M100 -140h300v840h-300v-840zM50 -190v940h400v-940h-400z" />
    <glyph glyph-name="A" unicode="A" 
d="M226 612l-74 -309h149zM-1 0v34h53l173 706h40l173 -706h64v-34h-236v34h101l-58 237h-165l-57 -237h70v-34h-158z" />
    <glyph glyph-name="Aacute" unicode="&#xc1;" 
d="M236 780l10 180h70l-68 -180h-12zM226 612l-74 -309h149zM-1 0v34h53l173 706h40l173 -706h64v-34h-236v34h101l-58 237h-165l-57 -237h70v-34h-158z" />
    <glyph glyph-name="Abreve" unicode="&#x102;" 
d="M250 796q-34 0 -52 25t-22.5 60.5t-0.5 68.5h18q-3 -22 0.5 -45.5t17 -40t39.5 -16.5t39.5 16.5t17.5 40t1 45.5h18q4 -33 -1 -68.5t-22.5 -60.5t-52.5 -25zM226 612l-74 -309h149zM-1 0v34h53l173 706h40l173 -706h64v-34h-236v34h101l-58 237h-165l-57 -237h70v-34
h-158z" />
    <glyph glyph-name="uni1EAE" unicode="&#x1eae;" 
d="M250 796q-34 0 -52 25t-22.5 60.5t-0.5 68.5h18q-3 -22 0.5 -45.5t17 -40t39.5 -16.5t39.5 16.5t17.5 40t1 45.5h18q4 -33 -1 -68.5t-22.5 -60.5t-52.5 -25zM236 920l10 180h70l-68 -180h-12zM226 612l-74 -309h149zM-1 0v34h53l173 706h40l173 -706h64v-34h-236v34h101
l-58 237h-165l-57 -237h70v-34h-158z" />
    <glyph glyph-name="uni1EB6" unicode="&#x1eb6;" 
d="M250 796q-34 0 -52 25t-22.5 60.5t-0.5 68.5h18q-3 -22 0.5 -45.5t17 -40t39.5 -16.5t39.5 16.5t17.5 40t1 45.5h18q4 -33 -1 -68.5t-22.5 -60.5t-52.5 -25zM250 -171q-21 0 -35.5 14.5t-14.5 35.5q0 20 14.5 34.5t35.5 14.5t35 -14.5t14 -34.5q0 -21 -14 -35.5
t-35 -14.5zM226 612l-74 -309h149zM-1 0v34h53l173 706h40l173 -706h64v-34h-236v34h101l-58 237h-165l-57 -237h70v-34h-158z" />
    <glyph glyph-name="uni1EB0" unicode="&#x1eb0;" 
d="M250 796q-34 0 -52 25t-22.5 60.5t-0.5 68.5h18q-3 -22 0.5 -45.5t17 -40t39.5 -16.5t39.5 16.5t17.5 40t1 45.5h18q4 -33 -1 -68.5t-22.5 -60.5t-52.5 -25zM252 920l-68 180h70l10 -180h-12zM226 612l-74 -309h149zM-1 0v34h53l173 706h40l173 -706h64v-34h-236v34h101
l-58 237h-165l-57 -237h70v-34h-158z" />
    <glyph glyph-name="uni1EB2" unicode="&#x1eb2;" 
d="M250 796q-34 0 -52 25t-22.5 60.5t-0.5 68.5h18q-3 -22 0.5 -45.5t17 -40t39.5 -16.5t39.5 16.5t17.5 40t1 45.5h18q4 -33 -1 -68.5t-22.5 -60.5t-52.5 -25zM235 930v6q0 29 9 44t18 26.5t9 29.5q0 19 -10 27t-23 8t-21 -6.5t-10 -12.5l6 -3q8 -4 14 -9t6 -15
q0 -7 -5.5 -14.5t-18.5 -7.5t-21 9t-8 24q0 20 16.5 39t51.5 19q30 0 47.5 -15t17.5 -38q0 -18 -9 -30t-20 -22.5t-20 -22.5t-9 -30v-6h-20zM226 612l-74 -309h149zM-1 0v34h53l173 706h40l173 -706h64v-34h-236v34h101l-58 237h-165l-57 -237h70v-34h-158z" />
    <glyph glyph-name="uni1EB4" unicode="&#x1eb4;" 
d="M246 796q-34 0 -52 25t-22.5 60.5t-0.5 68.5h18q-3 -22 0.5 -45.5t17 -40t39.5 -16.5t39.5 16.5t17.5 40t1 45.5h18q4 -33 -1 -68.5t-22.5 -60.5t-52.5 -25zM289 967q-21 0 -36 12.5t-27.5 25.5t-27.5 13q-13 0 -19 -12.5t-6 -33.5h-13q0 8 1 23t5.5 31t15 27.5
t29.5 11.5q21 0 36 -13t27.5 -25.5t27.5 -12.5q14 0 19.5 12.5t5.5 33.5h13q0 -7 -1 -22.5t-5.5 -31.5t-15 -27.5t-29.5 -11.5zM226 612l-74 -309h149zM-1 0v34h53l173 706h40l173 -706h64v-34h-236v34h101l-58 237h-165l-57 -237h70v-34h-158z" />
    <glyph glyph-name="Acircumflex" unicode="&#xc2;" 
d="M165 780l65 170h40l65 -170h-12l-73 106l-73 -106h-12zM226 612l-74 -309h149zM-1 0v34h53l173 706h40l173 -706h64v-34h-236v34h101l-58 237h-165l-57 -237h70v-34h-158z" />
    <glyph glyph-name="uni1EA4" unicode="&#x1ea4;" 
d="M165 780l65 170h40l65 -170h-12l-73 106l-73 -106h-12zM321 901l10 180h70l-68 -180h-12zM226 612l-74 -309h149zM-1 0v34h53l173 706h40l173 -706h64v-34h-236v34h101l-58 237h-165l-57 -237h70v-34h-158z" />
    <glyph glyph-name="uni1EAC" unicode="&#x1eac;" 
d="M165 780l65 170h40l65 -170h-12l-73 106l-73 -106h-12zM250 -171q-21 0 -35.5 14.5t-14.5 35.5q0 20 14.5 34.5t35.5 14.5t35 -14.5t14 -34.5q0 -21 -14 -35.5t-35 -14.5zM226 612l-74 -309h149zM-1 0v34h53l173 706h40l173 -706h64v-34h-236v34h101l-58 237h-165
l-57 -237h70v-34h-158z" />
    <glyph glyph-name="uni1EA6" unicode="&#x1ea6;" 
d="M165 780l65 170h40l65 -170h-12l-73 106l-73 -106h-12zM337 901l-68 180h70l10 -180h-12zM226 612l-74 -309h149zM-1 0v34h53l173 706h40l173 -706h64v-34h-236v34h101l-58 237h-165l-57 -237h70v-34h-158z" />
    <glyph glyph-name="uni1EA8" unicode="&#x1ea8;" 
d="M165 780l65 170h40l65 -170h-12l-73 106l-73 -106h-12zM320 911v6q0 29 9 44t18 26.5t9 29.5q0 19 -10 27t-23 8t-21 -6.5t-10 -12.5l6 -3q8 -4 14 -9t6 -15q0 -7 -5.5 -14.5t-18.5 -7.5t-21 9t-8 24q0 20 16.5 39t51.5 19q30 0 47.5 -15t17.5 -38q0 -18 -9 -30
t-20 -22.5t-20 -22.5t-9 -30v-6h-20zM226 612l-74 -309h149zM-1 0v34h53l173 706h40l173 -706h64v-34h-236v34h101l-58 237h-165l-57 -237h70v-34h-158z" />
    <glyph glyph-name="uni1EAA" unicode="&#x1eaa;" 
d="M165 780l65 170h40l65 -170h-12l-73 106l-73 -106h-12zM289 971q-21 0 -35.5 12.5t-27.5 25.5t-28 13q-13 0 -19 -12.5t-6 -33.5h-13q0 8 1 23t5.5 31t15 27.5t29.5 11.5q21 0 35.5 -13t27.5 -25.5t28 -12.5q14 0 19.5 12.5t5.5 33.5h13q0 -7 -1 -22.5t-5.5 -31.5
t-15 -27.5t-29.5 -11.5zM226 612l-74 -309h149zM-1 0v34h53l173 706h40l173 -706h64v-34h-236v34h101l-58 237h-165l-57 -237h70v-34h-158z" />
    <glyph glyph-name="Adieresis" unicode="&#xc4;" 
d="M176 805q-21 0 -35.5 14.5t-14.5 35.5t14.5 35.5t35.5 14.5q22 0 36 -14.5t14 -35.5t-14 -35.5t-36 -14.5zM323 805q-22 0 -36 14.5t-14 35.5t14 35.5t36 14.5q21 0 35.5 -14.5t14.5 -35.5t-14.5 -35.5t-35.5 -14.5zM226 612l-74 -309h149zM-1 0v34h53l173 706h40
l173 -706h64v-34h-236v34h101l-58 237h-165l-57 -237h70v-34h-158z" />
    <glyph glyph-name="uni1EA0" unicode="&#x1ea0;" 
d="M250 -171q-21 0 -35.5 14.5t-14.5 35.5q0 20 14.5 34.5t35.5 14.5t35 -14.5t14 -34.5q0 -21 -14 -35.5t-35 -14.5zM226 612l-74 -309h149zM-1 0v34h53l173 706h40l173 -706h64v-34h-236v34h101l-58 237h-165l-57 -237h70v-34h-158z" />
    <glyph glyph-name="Agrave" unicode="&#xc0;" 
d="M252 780l-68 180h70l10 -180h-12zM226 612l-74 -309h149zM-1 0v34h53l173 706h40l173 -706h64v-34h-236v34h101l-58 237h-165l-57 -237h70v-34h-158z" />
    <glyph glyph-name="uni1EA2" unicode="&#x1ea2;" 
d="M235 790v6q0 29 9 44t18 26.5t9 29.5q0 19 -10 27t-23 8t-21 -6.5t-10 -12.5l6 -3q8 -4 14 -9t6 -15q0 -7 -5.5 -14.5t-18.5 -7.5t-21 9t-8 24q0 20 16.5 39t51.5 19q30 0 47.5 -15t17.5 -38q0 -18 -9 -30t-20 -22.5t-20 -22.5t-9 -30v-6h-20zM226 612l-74 -309h149z
M-1 0v34h53l173 706h40l173 -706h64v-34h-236v34h101l-58 237h-165l-57 -237h70v-34h-158z" />
    <glyph glyph-name="Amacron" unicode="&#x100;" 
d="M118 838v31h264v-31h-264zM226 612l-74 -309h149zM-1 0v34h53l173 706h40l173 -706h64v-34h-236v34h101l-58 237h-165l-57 -237h70v-34h-158z" />
    <glyph glyph-name="Aogonek" unicode="&#x104;" 
d="M405 -176q-26 0 -50.5 17t-24.5 60q0 39 23.5 64.5t45.5 34.5h-133v34h101l-58 237h-165l-57 -237h70v-34h-158v34h53l173 706h40l173 -706h64v-34h-73q-19 -7 -38 -26.5t-19 -50.5q0 -27 15 -40.5t37 -13.5q23 0 37.5 12t18.5 23l12 -6q-6 -24 -27.5 -49t-59.5 -25z
M226 612l-74 -309h149z" />
    <glyph glyph-name="Aring" unicode="&#xc5;" 
d="M250 811q26 0 40 16.5t14 39.5t-14 39.5t-40 16.5t-40 -16.5t-14 -39.5t14 -39.5t40 -16.5zM250 784q-38 0 -60.5 24.5t-22.5 58.5q0 35 22.5 59t60.5 24t60.5 -24t22.5 -59q0 -34 -22.5 -58.5t-60.5 -24.5zM226 612l-74 -309h149zM-1 0v34h53l173 706h40l173 -706h64
v-34h-236v34h101l-58 237h-165l-57 -237h70v-34h-158z" />
    <glyph glyph-name="Atilde" unicode="&#xc3;" 
d="M289 807q-21 0 -36 12.5t-27.5 25.5t-27.5 13q-13 0 -19 -12.5t-6 -33.5h-13q0 8 1 23t5.5 31t15 27.5t29.5 11.5q21 0 35.5 -13t27.5 -25.5t28 -12.5q14 0 19.5 12.5t5.5 33.5h13q0 -7 -1 -22.5t-5.5 -31.5t-15 -27.5t-29.5 -11.5zM226 612l-74 -309h149zM-1 0v34h53
l173 706h40l173 -706h64v-34h-236v34h101l-58 237h-165l-57 -237h70v-34h-158z" />
    <glyph glyph-name="AE" unicode="&#xc6;" 
d="M263 634l-93 -331h93v331zM7 0v34h53l193 672h-91l-1 34h329v-214h-28l-11 107q-4 36 -23 54t-63 18h-39v-284h61v127h30v-288h-30v127h-61v-353l42 1q44 1 62.5 18.5t22.5 54.5l12 126h28v-234h-284v34h54v239h-101l-67 -239h60v-34h-148z" />
    <glyph glyph-name="B" unicode="B" 
d="M182 32h91q62 0 94 32.5t32 93.5v99q0 62 -32 94t-94 32h-91v-351zM182 414h91q100 0 100 100v94q0 100 -100 100h-91v-294zM28 0v34h84v672h-84v34h237q91 0 139 -46t48 -134q0 -49 -16 -82t-39 -50.5t-45 -22.5v-7q28 -5 57.5 -27t50.5 -62t21 -100q0 -101 -54 -155
t-156 -54h-243z" />
    <glyph glyph-name="C" unicode="C" 
d="M254 -10q-51 0 -89.5 32t-64 86.5t-38.5 122.5t-13 139t13 139t38.5 122.5t64 86.5t89.5 32q40 0 67.5 -16.5t43.5 -39.5t21 -45h8v91h32v-252h-52v23q0 77 -17.5 121t-45 62.5t-57.5 18.5q-58 0 -89.5 -46t-31.5 -132v-330q0 -86 31 -132t90 -46q30 0 57.5 18.5t45 62.5
t17.5 121v23h52v-252h-32v91h-8q-5 -21 -21 -44.5t-43.5 -40t-67.5 -16.5z" />
    <glyph glyph-name="Cacute" unicode="&#x106;" 
d="M236 780l10 180h70l-68 -180h-12zM254 -10q-51 0 -89.5 32t-64 86.5t-38.5 122.5t-13 139t13 139t38.5 122.5t64 86.5t89.5 32q40 0 67.5 -16.5t43.5 -39.5t21 -45h8v91h32v-252h-52v23q0 77 -17.5 121t-45 62.5t-57.5 18.5q-58 0 -89.5 -46t-31.5 -132v-330
q0 -86 31 -132t90 -46q30 0 57.5 18.5t45 62.5t17.5 121v23h52v-252h-32v91h-8q-5 -21 -21 -44.5t-43.5 -40t-67.5 -16.5z" />
    <glyph glyph-name="Ccaron" unicode="&#x10c;" 
d="M230 780l-65 170h12l73 -106l73 106h12l-65 -170h-40zM254 -10q-51 0 -89.5 32t-64 86.5t-38.5 122.5t-13 139t13 139t38.5 122.5t64 86.5t89.5 32q40 0 67.5 -16.5t43.5 -39.5t21 -45h8v91h32v-252h-52v23q0 77 -17.5 121t-45 62.5t-57.5 18.5q-58 0 -89.5 -46
t-31.5 -132v-330q0 -86 31 -132t90 -46q30 0 57.5 18.5t45 62.5t17.5 121v23h52v-252h-32v91h-8q-5 -21 -21 -44.5t-43.5 -40t-67.5 -16.5z" />
    <glyph glyph-name="Ccedilla" unicode="&#xc7;" 
d="M261 -213q-44 0 -73.5 16.5t-29.5 43.5q0 12 7.5 23.5t25.5 11.5q23 0 31.5 -17t10.5 -30l4 -23q3 -1 10 -3t16 -2q29 0 42.5 16t13.5 35q0 27 -22 42.5t-59 15.5q-10 0 -20 -1.5t-19 -5.5l-9 5l40.8657 77.7445q-36.855 5.72708 -66.3657 30.2555q-38.5 32 -64 86.5
t-38.5 122.5t-13 139t13 139t38.5 122.5t64 86.5t89.5 32q40 0 67.5 -16.5t43.5 -39.5t21 -45h8v91h32v-252h-52v23q0 77 -17.5 121t-45 62.5t-57.5 18.5q-58 0 -89.5 -46t-31.5 -132v-330q0 -86 31 -132t90 -46q30 0 57.5 18.5t45 62.5t17.5 121v23h52v-252h-32v91h-8
q-5 -21 -21 -44.5t-43.5 -40q-24.3569 -14.6141 -58.5197 -16.2845l-22.9803 -40.2155q45 4 71.5 -8t38 -32.5t11.5 -42.5q0 -17 -8.5 -36t-30 -31.5t-61.5 -12.5z" />
    <glyph glyph-name="Cdotaccent" unicode="&#x10a;" 
d="M250 830q-23 0 -39 16t-16 39t16 39t39 16t39 -16t16 -39t-16 -39t-39 -16zM254 -10q-51 0 -89.5 32t-64 86.5t-38.5 122.5t-13 139t13 139t38.5 122.5t64 86.5t89.5 32q40 0 67.5 -16.5t43.5 -39.5t21 -45h8v91h32v-252h-52v23q0 77 -17.5 121t-45 62.5t-57.5 18.5
q-58 0 -89.5 -46t-31.5 -132v-330q0 -86 31 -132t90 -46q30 0 57.5 18.5t45 62.5t17.5 121v23h52v-252h-32v91h-8q-5 -21 -21 -44.5t-43.5 -40t-67.5 -16.5z" />
    <glyph glyph-name="D" unicode="D" 
d="M227 708h-35v-676h35q44 0 80.5 21t58.5 61.5t22 98.5v314q0 59 -22 99t-58.5 61t-80.5 21zM38 0v34h84v672h-84v34h189q63 0 109 -31.5t76 -84.5t45 -119t15 -135t-15 -135t-45 -119t-76 -84.5t-109 -31.5h-189z" />
    <glyph glyph-name="Eth" unicode="&#xd0;" 
d="M306 371h-114v-339h35q44 0 80.5 21t58.5 61.5t22 98.5v314q0 59 -22 99t-58.5 61t-80.5 21h-35v-305h114v-32zM38 0v34h84v337h-77v32h77v303h-84v34h189q63 0 109 -31.5t76 -84.5t45 -119t15 -135t-15 -135t-45 -119t-76 -84.5t-109 -31.5h-189z" />
    <glyph glyph-name="Dcaron" unicode="&#x10e;" 
d="M230 780l-65 170h12l73 -106l73 106h12l-65 -170h-40zM227 708h-35v-676h35q44 0 80.5 21t58.5 61.5t22 98.5v314q0 59 -22 99t-58.5 61t-80.5 21zM38 0v34h84v672h-84v34h189q63 0 109 -31.5t76 -84.5t45 -119t15 -135t-15 -135t-45 -119t-76 -84.5t-109 -31.5h-189z
" />
    <glyph glyph-name="Dcroat" unicode="&#x110;" 
d="M306 371h-114v-339h35q44 0 80.5 21t58.5 61.5t22 98.5v314q0 59 -22 99t-58.5 61t-80.5 21h-35v-305h114v-32zM38 0v34h84v337h-77v32h77v303h-84v34h189q63 0 109 -31.5t76 -84.5t45 -119t15 -135t-15 -135t-45 -119t-76 -84.5t-109 -31.5h-189z" />
    <glyph glyph-name="E" unicode="E" 
d="M31 0v34h84v672h-84v34h411v-214h-28l-14 107q-9 72 -83 72h-132v-284h129v127h32v-288h-32v127h-129v-352h142q73 0 82 73l15 126h28v-234h-421z" />
    <glyph glyph-name="Eacute" unicode="&#xc9;" 
d="M236 780l10 180h70l-68 -180h-12zM31 0v34h84v672h-84v34h411v-214h-28l-14 107q-9 72 -83 72h-132v-284h129v127h32v-288h-32v127h-129v-352h142q73 0 82 73l15 126h28v-234h-421z" />
    <glyph glyph-name="Ecaron" unicode="&#x11a;" 
d="M230 780l-65 170h12l73 -106l73 106h12l-65 -170h-40zM31 0v34h84v672h-84v34h411v-214h-28l-14 107q-9 72 -83 72h-132v-284h129v127h32v-288h-32v127h-129v-352h142q73 0 82 73l15 126h28v-234h-421z" />
    <glyph glyph-name="Ecircumflex" unicode="&#xca;" 
d="M165 780l65 170h40l65 -170h-12l-73 106l-73 -106h-12zM31 0v34h84v672h-84v34h411v-214h-28l-14 107q-9 72 -83 72h-132v-284h129v127h32v-288h-32v127h-129v-352h142q73 0 82 73l15 126h28v-234h-421z" />
    <glyph glyph-name="uni1EBE" unicode="&#x1ebe;" 
d="M165 780l65 170h40l65 -170h-12l-73 106l-73 -106h-12zM321 901l10 180h70l-68 -180h-12zM31 0v34h84v672h-84v34h411v-214h-28l-14 107q-9 72 -83 72h-132v-284h129v127h32v-288h-32v127h-129v-352h142q73 0 82 73l15 126h28v-234h-421z" />
    <glyph glyph-name="uni1EC6" unicode="&#x1ec6;" 
d="M165 780l65 170h40l65 -170h-12l-73 106l-73 -106h-12zM250 -171q-21 0 -35.5 14.5t-14.5 35.5q0 20 14.5 34.5t35.5 14.5t35 -14.5t14 -34.5q0 -21 -14 -35.5t-35 -14.5zM31 0v34h84v672h-84v34h411v-214h-28l-14 107q-9 72 -83 72h-132v-284h129v127h32v-288h-32v127
h-129v-352h142q73 0 82 73l15 126h28v-234h-421z" />
    <glyph glyph-name="uni1EC0" unicode="&#x1ec0;" 
d="M165 780l65 170h40l65 -170h-12l-73 106l-73 -106h-12zM337 901l-68 180h70l10 -180h-12zM31 0v34h84v672h-84v34h411v-214h-28l-14 107q-9 72 -83 72h-132v-284h129v127h32v-288h-32v127h-129v-352h142q73 0 82 73l15 126h28v-234h-421z" />
    <glyph glyph-name="uni1EC2" unicode="&#x1ec2;" 
d="M165 780l65 170h40l65 -170h-12l-73 106l-73 -106h-12zM320 911v6q0 29 9 44t18 26.5t9 29.5q0 19 -10 27t-23 8t-21 -6.5t-10 -12.5l6 -3q8 -4 14 -9t6 -15q0 -7 -5.5 -14.5t-18.5 -7.5t-21 9t-8 24q0 20 16.5 39t51.5 19q30 0 47.5 -15t17.5 -38q0 -18 -9 -30
t-20 -22.5t-20 -22.5t-9 -30v-6h-20zM31 0v34h84v672h-84v34h411v-214h-28l-14 107q-9 72 -83 72h-132v-284h129v127h32v-288h-32v127h-129v-352h142q73 0 82 73l15 126h28v-234h-421z" />
    <glyph glyph-name="uni1EC4" unicode="&#x1ec4;" 
d="M165 780l65 170h40l65 -170h-12l-73 106l-73 -106h-12zM289 971q-21 0 -35.5 12.5t-27.5 25.5t-28 13q-13 0 -19 -12.5t-6 -33.5h-13q0 8 1 23t5.5 31t15 27.5t29.5 11.5q21 0 35.5 -13t27.5 -25.5t28 -12.5q14 0 19.5 12.5t5.5 33.5h13q0 -7 -1 -22.5t-5.5 -31.5
t-15 -27.5t-29.5 -11.5zM31 0v34h84v672h-84v34h411v-214h-28l-14 107q-9 72 -83 72h-132v-284h129v127h32v-288h-32v127h-129v-352h142q73 0 82 73l15 126h28v-234h-421z" />
    <glyph glyph-name="Edieresis" unicode="&#xcb;" 
d="M176 805q-21 0 -35.5 14.5t-14.5 35.5t14.5 35.5t35.5 14.5q22 0 36 -14.5t14 -35.5t-14 -35.5t-36 -14.5zM323 805q-22 0 -36 14.5t-14 35.5t14 35.5t36 14.5q21 0 35.5 -14.5t14.5 -35.5t-14.5 -35.5t-35.5 -14.5zM31 0v34h84v672h-84v34h411v-214h-28l-14 107
q-9 72 -83 72h-132v-284h129v127h32v-288h-32v127h-129v-352h142q73 0 82 73l15 126h28v-234h-421z" />
    <glyph glyph-name="Edotaccent" unicode="&#x116;" 
d="M250 830q-23 0 -39 16t-16 39t16 39t39 16t39 -16t16 -39t-16 -39t-39 -16zM31 0v34h84v672h-84v34h411v-214h-28l-14 107q-9 72 -83 72h-132v-284h129v127h32v-288h-32v127h-129v-352h142q73 0 82 73l15 126h28v-234h-421z" />
    <glyph glyph-name="uni1EB8" unicode="&#x1eb8;" 
d="M250 -171q-21 0 -35.5 14.5t-14.5 35.5q0 20 14.5 34.5t35.5 14.5t35 -14.5t14 -34.5q0 -21 -14 -35.5t-35 -14.5zM31 0v34h84v672h-84v34h411v-214h-28l-14 107q-9 72 -83 72h-132v-284h129v127h32v-288h-32v127h-129v-352h142q73 0 82 73l15 126h28v-234h-421z" />
    <glyph glyph-name="Egrave" unicode="&#xc8;" 
d="M252 780l-68 180h70l10 -180h-12zM31 0v34h84v672h-84v34h411v-214h-28l-14 107q-9 72 -83 72h-132v-284h129v127h32v-288h-32v127h-129v-352h142q73 0 82 73l15 126h28v-234h-421z" />
    <glyph glyph-name="uni1EBA" unicode="&#x1eba;" 
d="M235 790v6q0 29 9 44t18 26.5t9 29.5q0 19 -10 27t-23 8t-21 -6.5t-10 -12.5l6 -3q8 -4 14 -9t6 -15q0 -7 -5.5 -14.5t-18.5 -7.5t-21 9t-8 24q0 20 16.5 39t51.5 19q30 0 47.5 -15t17.5 -38q0 -18 -9 -30t-20 -22.5t-20 -22.5t-9 -30v-6h-20zM31 0v34h84v672h-84v34h411
v-214h-28l-14 107q-9 72 -83 72h-132v-284h129v127h32v-288h-32v127h-129v-352h142q73 0 82 73l15 126h28v-234h-421z" />
    <glyph glyph-name="Emacron" unicode="&#x112;" 
d="M118 838v31h264v-31h-264zM31 0v34h84v672h-84v34h411v-214h-28l-14 107q-9 72 -83 72h-132v-284h129v127h32v-288h-32v127h-129v-352h142q73 0 82 73l15 126h28v-234h-421z" />
    <glyph glyph-name="Eogonek" unicode="&#x118;" 
d="M354 -176q-26 0 -50.5 17t-24.5 60q0 39 23.5 64.5t45.5 34.5h-317v34h84v672h-84v34h411v-214h-28l-14 107q-9 72 -83 72h-132v-284h129v127h32v-288h-32v127h-129v-352h142q73 0 82 73l15 126h28v-234h-74q-19 -7 -38 -26.5t-19 -50.5q0 -27 15 -40.5t37 -13.5
q23 0 37.5 12t18.5 23l12 -6q-6 -24 -27.5 -49t-59.5 -25z" />
    <glyph glyph-name="uni1EBC" unicode="&#x1ebc;" 
d="M289 807q-21 0 -36 12.5t-27.5 25.5t-27.5 13q-13 0 -19 -12.5t-6 -33.5h-13q0 8 1 23t5.5 31t15 27.5t29.5 11.5q21 0 35.5 -13t27.5 -25.5t28 -12.5q14 0 19.5 12.5t5.5 33.5h13q0 -7 -1 -22.5t-5.5 -31.5t-15 -27.5t-29.5 -11.5zM31 0v34h84v672h-84v34h411v-214h-28
l-14 107q-9 72 -83 72h-132v-284h129v127h32v-288h-32v127h-129v-352h142q73 0 82 73l15 126h28v-234h-421z" />
    <glyph glyph-name="F" unicode="F" 
d="M31 0v34h84v672h-84v34h421v-214h-28l-14 107q-9 72 -83 72h-142v-284h141v127h30v-288h-30v127h-141v-353h162v-34h-316z" />
    <glyph glyph-name="G" unicode="G" 
d="M249 -10q-45 0 -81.5 29t-63 81t-41 120.5t-14.5 147.5q0 72 13 140t39 123t65 87t92 32q37 0 63.5 -16.5t43 -39.5t21.5 -45h8v91h32v-252h-52v23q0 77 -17.5 121t-45.5 62.5t-60 18.5q-55 0 -86.5 -46t-31.5 -132v-330q0 -86 31 -132t83 -46q42 0 67 27t37.5 70
t16.5 91.5t4 91.5v63h-166v34h222v-404h-35v120h-9q-5 -28 -21 -58t-44.5 -51t-69.5 -21z" />
    <glyph glyph-name="Gbreve" unicode="&#x11e;" 
d="M250 796q-34 0 -52 25t-22.5 60.5t-0.5 68.5h18q-3 -22 0.5 -45.5t17 -40t39.5 -16.5t39.5 16.5t17.5 40t1 45.5h18q4 -33 -1 -68.5t-22.5 -60.5t-52.5 -25zM249 -10q-45 0 -81.5 29t-63 81t-41 120.5t-14.5 147.5q0 72 13 140t39 123t65 87t92 32q37 0 63.5 -16.5
t43 -39.5t21.5 -45h8v91h32v-252h-52v23q0 77 -17.5 121t-45.5 62.5t-60 18.5q-55 0 -86.5 -46t-31.5 -132v-330q0 -86 31 -132t83 -46q42 0 67 27t37.5 70t16.5 91.5t4 91.5v63h-166v34h222v-404h-35v120h-9q-5 -28 -21 -58t-44.5 -51t-69.5 -21z" />
    <glyph glyph-name="uni0122" unicode="&#x122;" 
d="M210 -207l-11 16q19 12 38.5 31t19.5 35q-23 0 -38.5 11.5t-15.5 36.5q0 23 14 37t35 14q20 0 35 -13.5t15 -41.5q0 -27 -15 -52t-36.5 -44t-40.5 -30zM249 -10q-45 0 -81.5 29t-63 81t-41 120.5t-14.5 147.5q0 72 13 140t39 123t65 87t92 32q37 0 63.5 -16.5t43 -39.5
t21.5 -45h8v91h32v-252h-52v23q0 77 -17.5 121t-45.5 62.5t-60 18.5q-55 0 -86.5 -46t-31.5 -132v-330q0 -86 31 -132t83 -46q42 0 67 27t37.5 70t16.5 91.5t4 91.5v63h-166v34h222v-404h-35v120h-9q-5 -28 -21 -58t-44.5 -51t-69.5 -21z" />
    <glyph glyph-name="Gdotaccent" unicode="&#x120;" 
d="M250 830q-23 0 -39 16t-16 39t16 39t39 16t39 -16t16 -39t-16 -39t-39 -16zM249 -10q-45 0 -81.5 29t-63 81t-41 120.5t-14.5 147.5q0 72 13 140t39 123t65 87t92 32q37 0 63.5 -16.5t43 -39.5t21.5 -45h8v91h32v-252h-52v23q0 77 -17.5 121t-45.5 62.5t-60 18.5
q-55 0 -86.5 -46t-31.5 -132v-330q0 -86 31 -132t83 -46q42 0 67 27t37.5 70t16.5 91.5t4 91.5v63h-166v34h222v-404h-35v120h-9q-5 -28 -21 -58t-44.5 -51t-69.5 -21z" />
    <glyph glyph-name="H" unicode="H" 
d="M11 0v34h66v672h-66v34h198v-34h-66v-290h213v290h-66v34h198v-34h-66v-672h66v-34h-198v34h66v350h-213v-350h66v-34h-198z" />
    <glyph glyph-name="Hbar" unicode="&#x126;" 
d="M143 416h213v123h-213v-123zM11 0v34h66v505h-36v29h36v138h-66v34h198v-34h-66v-138h213v138h-66v34h198v-34h-66v-138h36v-29h-36v-505h66v-34h-198v34h66v350h-213v-350h66v-34h-198z" />
    <glyph glyph-name="I" unicode="I" 
d="M52 0v34h164v672h-164v34h398v-34h-164v-672h164v-34h-398z" />
    <glyph glyph-name="Iacute" unicode="&#xcd;" 
d="M236 780l10 180h70l-68 -180h-12zM52 0v34h164v672h-164v34h398v-34h-164v-672h164v-34h-398z" />
    <glyph glyph-name="Icircumflex" unicode="&#xce;" 
d="M165 780l65 170h40l65 -170h-12l-73 106l-73 -106h-12zM52 0v34h164v672h-164v34h398v-34h-164v-672h164v-34h-398z" />
    <glyph glyph-name="Idieresis" unicode="&#xcf;" 
d="M176 805q-21 0 -35.5 14.5t-14.5 35.5t14.5 35.5t35.5 14.5q22 0 36 -14.5t14 -35.5t-14 -35.5t-36 -14.5zM323 805q-22 0 -36 14.5t-14 35.5t14 35.5t36 14.5q21 0 35.5 -14.5t14.5 -35.5t-14.5 -35.5t-35.5 -14.5zM52 0v34h164v672h-164v34h398v-34h-164v-672h164v-34
h-398z" />
    <glyph glyph-name="Idotaccent" unicode="&#x130;" 
d="M250 830q-23 0 -39 16t-16 39t16 39t39 16t39 -16t16 -39t-16 -39t-39 -16zM52 0v34h164v672h-164v34h398v-34h-164v-672h164v-34h-398z" />
    <glyph glyph-name="uni1ECA" unicode="&#x1eca;" 
d="M250 -171q-21 0 -35.5 14.5t-14.5 35.5q0 20 14.5 34.5t35.5 14.5t35 -14.5t14 -34.5q0 -21 -14 -35.5t-35 -14.5zM52 0v34h164v672h-164v34h398v-34h-164v-672h164v-34h-398z" />
    <glyph glyph-name="Igrave" unicode="&#xcc;" 
d="M252 780l-68 180h70l10 -180h-12zM52 0v34h164v672h-164v34h398v-34h-164v-672h164v-34h-398z" />
    <glyph glyph-name="uni1EC8" unicode="&#x1ec8;" 
d="M235 790v6q0 29 9 44t18 26.5t9 29.5q0 19 -10 27t-23 8t-21 -6.5t-10 -12.5l6 -3q8 -4 14 -9t6 -15q0 -7 -5.5 -14.5t-18.5 -7.5t-21 9t-8 24q0 20 16.5 39t51.5 19q30 0 47.5 -15t17.5 -38q0 -18 -9 -30t-20 -22.5t-20 -22.5t-9 -30v-6h-20zM52 0v34h164v672h-164v34
h398v-34h-164v-672h164v-34h-398z" />
    <glyph glyph-name="Imacron" unicode="&#x12a;" 
d="M118 838v31h264v-31h-264zM52 0v34h164v672h-164v34h398v-34h-164v-672h164v-34h-398z" />
    <glyph glyph-name="Iogonek" unicode="&#x12e;" 
d="M240 -176q-26 0 -50.5 17t-24.5 60q0 39 23.5 64.5t45.5 34.5h-182v34h164v672h-164v34h398v-34h-164v-672h164v-34h-186q-19 -7 -38 -26.5t-19 -50.5q0 -27 15 -40.5t37 -13.5q23 0 37.5 12t18.5 23l12 -6q-6 -24 -27.5 -49t-59.5 -25z" />
    <glyph glyph-name="Itilde" unicode="&#x128;" 
d="M289 807q-21 0 -36 12.5t-27.5 25.5t-27.5 13q-13 0 -19 -12.5t-6 -33.5h-13q0 8 1 23t5.5 31t15 27.5t29.5 11.5q21 0 35.5 -13t27.5 -25.5t28 -12.5q14 0 19.5 12.5t5.5 33.5h13q0 -7 -1 -22.5t-5.5 -31.5t-15 -27.5t-29.5 -11.5zM52 0v34h164v672h-164v34h398v-34
h-164v-672h164v-34h-398z" />
    <glyph glyph-name="J" unicode="J" 
d="M385 706v-526q-3 -92 -60.5 -141t-143.5 -49q-67 0 -104 26.5t-37 61.5q0 20 11.5 33t33.5 13q20 0 32 -9t18.5 -20.5t9.5 -18.5l26 -57q63 -5 103.5 34t40.5 125v528h-172v34h346v-34h-104z" />
    <glyph glyph-name="K" unicode="K" 
d="M1 0v34h66v672h-66v34h200v-34h-66v-346l225 346h-60v34h185v-34h-84l-162 -249l201 -423h71v-34h-224v34h79l-170 357l-61 -94v-263h96v-34h-230z" />
    <glyph glyph-name="uni0136" unicode="&#x136;" 
d="M210 -207l-11 16q19 12 38.5 31t19.5 35q-23 0 -38.5 11.5t-15.5 36.5q0 23 14 37t35 14q20 0 35 -13.5t15 -41.5q0 -27 -15 -52t-36.5 -44t-40.5 -30zM1 0v34h66v672h-66v34h200v-34h-66v-346l225 346h-60v34h185v-34h-84l-162 -249l201 -423h71v-34h-224v34h79
l-170 357l-61 -94v-263h96v-34h-230z" />
    <glyph glyph-name="L" unicode="L" 
d="M31 0v34h84v672h-84v34h238v-34h-84v-671h142q73 0 82 73l15 126h28v-234h-421z" />
    <glyph glyph-name="Lacute" unicode="&#x139;" 
d="M146 780l10 180h70l-68 -180h-12zM31 0v34h84v672h-84v34h238v-34h-84v-671h142q73 0 82 73l15 126h28v-234h-421z" />
    <glyph glyph-name="Lcaron" unicode="&#x13d;" 
d="M140 780l-65 170h12l73 -106l73 106h12l-65 -170h-40zM31 0v34h84v672h-84v34h238v-34h-84v-671h142q73 0 82 73l15 126h28v-234h-421z" />
    <glyph glyph-name="uni013B" unicode="&#x13b;" 
d="M210 -207l-11 16q19 12 38.5 31t19.5 35q-23 0 -38.5 11.5t-15.5 36.5q0 23 14 37t35 14q20 0 35 -13.5t15 -41.5q0 -27 -15 -52t-36.5 -44t-40.5 -30zM31 0v34h84v672h-84v34h238v-34h-84v-671h142q73 0 82 73l15 126h28v-234h-421z" />
    <glyph glyph-name="Lslash" unicode="&#x141;" 
d="M31 0v34h84v301l-74 -44v34l74 44v337h-84v34h238v-34h-84v-296l143 85v-34l-143 -85v-341h142q73 0 82 73l15 126h28v-234h-421z" />
    <glyph glyph-name="M" unicode="M" 
d="M1 0v34h60v672h-60v34h98l145 -624l145 624h113v-34h-64v-672h64v-34h-186v34h54v492l-122 -526h-31l-122 526v-492h64v-34h-158z" />
    <glyph glyph-name="N" unicode="N" 
d="M390 -10l-255 596v-552h84v-34h-182v34h64v672h-64v34h102l241 -564v530h-84v34h182v-34h-64v-716h-24z" />
    <glyph glyph-name="Nacute" unicode="&#x143;" 
d="M236 780l10 180h70l-68 -180h-12zM390 -10l-255 596v-552h84v-34h-182v34h64v672h-64v34h102l241 -564v530h-84v34h182v-34h-64v-716h-24z" />
    <glyph glyph-name="Ncaron" unicode="&#x147;" 
d="M230 780l-65 170h12l73 -106l73 106h12l-65 -170h-40zM390 -10l-255 596v-552h84v-34h-182v34h64v672h-64v34h102l241 -564v530h-84v34h182v-34h-64v-716h-24z" />
    <glyph glyph-name="uni0145" unicode="&#x145;" 
d="M210 -207l-11 16q19 12 38.5 31t19.5 35q-23 0 -38.5 11.5t-15.5 36.5q0 23 14 37t35 14q20 0 35 -13.5t15 -41.5q0 -27 -15 -52t-36.5 -44t-40.5 -30zM390 -10l-255 596v-552h84v-34h-182v34h64v672h-64v34h102l241 -564v530h-84v34h182v-34h-64v-716h-24z" />
    <glyph glyph-name="Eng" unicode="&#x14a;" 
d="M259 -180q-54 0 -86 22t-32 54q0 23 13 34.5t33 11.5q27 0 40 -17.5t17 -28.5l18 -50q42 -3 68 17t38 54t12 71v25l-245 573v-554h84v-32h-182v32h64v674h-64v34h102l241 -564v530h-84v34h182v-34h-64v-698q0 -30 -6 -63t-22.5 -61t-47 -46t-79.5 -18z" />
    <glyph glyph-name="Ntilde" unicode="&#xd1;" 
d="M289 807q-21 0 -36 12.5t-27.5 25.5t-27.5 13q-13 0 -19 -12.5t-6 -33.5h-13q0 8 1 23t5.5 31t15 27.5t29.5 11.5q21 0 35.5 -13t27.5 -25.5t28 -12.5q14 0 19.5 12.5t5.5 33.5h13q0 -7 -1 -22.5t-5.5 -31.5t-15 -27.5t-29.5 -11.5zM390 -10l-255 596v-552h84v-34h-182
v34h64v672h-64v34h102l241 -564v530h-84v34h182v-34h-64v-716h-24z" />
    <glyph glyph-name="O" unicode="O" 
d="M250 27q59 0 90 46t31 132v330q0 86 -31 132t-90 46q-58 0 -89.5 -46t-31.5 -132v-330q0 -86 31 -132t90 -46zM250 -10q-51 0 -89.5 32t-64 86.5t-38.5 122.5t-13 139t13 139t38.5 122.5t64 86.5t89.5 32t89.5 -32t64 -86.5t38.5 -122.5t13 -139t-13 -139t-38.5 -122.5
t-64 -86.5t-89.5 -32z" />
    <glyph glyph-name="Oacute" unicode="&#xd3;" 
d="M236 780l10 180h70l-68 -180h-12zM250 27q59 0 90 46t31 132v330q0 86 -31 132t-90 46q-58 0 -89.5 -46t-31.5 -132v-330q0 -86 31 -132t90 -46zM250 -10q-51 0 -89.5 32t-64 86.5t-38.5 122.5t-13 139t13 139t38.5 122.5t64 86.5t89.5 32t89.5 -32t64 -86.5t38.5 -122.5
t13 -139t-13 -139t-38.5 -122.5t-64 -86.5t-89.5 -32z" />
    <glyph glyph-name="Ocircumflex" unicode="&#xd4;" 
d="M165 780l65 170h40l65 -170h-12l-73 106l-73 -106h-12zM250 27q59 0 90 46t31 132v330q0 86 -31 132t-90 46q-58 0 -89.5 -46t-31.5 -132v-330q0 -86 31 -132t90 -46zM250 -10q-51 0 -89.5 32t-64 86.5t-38.5 122.5t-13 139t13 139t38.5 122.5t64 86.5t89.5 32t89.5 -32
t64 -86.5t38.5 -122.5t13 -139t-13 -139t-38.5 -122.5t-64 -86.5t-89.5 -32z" />
    <glyph glyph-name="uni1ED0" unicode="&#x1ed0;" 
d="M165 780l65 170h40l65 -170h-12l-73 106l-73 -106h-12zM321 901l10 180h70l-68 -180h-12zM250 27q59 0 90 46t31 132v330q0 86 -31 132t-90 46q-58 0 -89.5 -46t-31.5 -132v-330q0 -86 31 -132t90 -46zM250 -10q-51 0 -89.5 32t-64 86.5t-38.5 122.5t-13 139t13 139
t38.5 122.5t64 86.5t89.5 32t89.5 -32t64 -86.5t38.5 -122.5t13 -139t-13 -139t-38.5 -122.5t-64 -86.5t-89.5 -32z" />
    <glyph glyph-name="uni1ED8" unicode="&#x1ed8;" 
d="M165 780l65 170h40l65 -170h-12l-73 106l-73 -106h-12zM250 -171q-21 0 -35.5 14.5t-14.5 35.5q0 20 14.5 34.5t35.5 14.5t35 -14.5t14 -34.5q0 -21 -14 -35.5t-35 -14.5zM250 27q59 0 90 46t31 132v330q0 86 -31 132t-90 46q-58 0 -89.5 -46t-31.5 -132v-330
q0 -86 31 -132t90 -46zM250 -10q-51 0 -89.5 32t-64 86.5t-38.5 122.5t-13 139t13 139t38.5 122.5t64 86.5t89.5 32t89.5 -32t64 -86.5t38.5 -122.5t13 -139t-13 -139t-38.5 -122.5t-64 -86.5t-89.5 -32z" />
    <glyph glyph-name="uni1ED2" unicode="&#x1ed2;" 
d="M165 780l65 170h40l65 -170h-12l-73 106l-73 -106h-12zM337 901l-68 180h70l10 -180h-12zM250 27q59 0 90 46t31 132v330q0 86 -31 132t-90 46q-58 0 -89.5 -46t-31.5 -132v-330q0 -86 31 -132t90 -46zM250 -10q-51 0 -89.5 32t-64 86.5t-38.5 122.5t-13 139t13 139
t38.5 122.5t64 86.5t89.5 32t89.5 -32t64 -86.5t38.5 -122.5t13 -139t-13 -139t-38.5 -122.5t-64 -86.5t-89.5 -32z" />
    <glyph glyph-name="uni1ED4" unicode="&#x1ed4;" 
d="M165 780l65 170h40l65 -170h-12l-73 106l-73 -106h-12zM320 911v6q0 29 9 44t18 26.5t9 29.5q0 19 -10 27t-23 8t-21 -6.5t-10 -12.5l6 -3q8 -4 14 -9t6 -15q0 -7 -5.5 -14.5t-18.5 -7.5t-21 9t-8 24q0 20 16.5 39t51.5 19q30 0 47.5 -15t17.5 -38q0 -18 -9 -30
t-20 -22.5t-20 -22.5t-9 -30v-6h-20zM250 27q59 0 90 46t31 132v330q0 86 -31 132t-90 46q-58 0 -89.5 -46t-31.5 -132v-330q0 -86 31 -132t90 -46zM250 -10q-51 0 -89.5 32t-64 86.5t-38.5 122.5t-13 139t13 139t38.5 122.5t64 86.5t89.5 32t89.5 -32t64 -86.5t38.5 -122.5
t13 -139t-13 -139t-38.5 -122.5t-64 -86.5t-89.5 -32z" />
    <glyph glyph-name="uni1ED6" unicode="&#x1ed6;" 
d="M165 780l65 170h40l65 -170h-12l-73 106l-73 -106h-12zM289 971q-21 0 -35.5 12.5t-27.5 25.5t-28 13q-13 0 -19 -12.5t-6 -33.5h-13q0 8 1 23t5.5 31t15 27.5t29.5 11.5q21 0 35.5 -13t27.5 -25.5t28 -12.5q14 0 19.5 12.5t5.5 33.5h13q0 -7 -1 -22.5t-5.5 -31.5
t-15 -27.5t-29.5 -11.5zM250 27q59 0 90 46t31 132v330q0 86 -31 132t-90 46q-58 0 -89.5 -46t-31.5 -132v-330q0 -86 31 -132t90 -46zM250 -10q-51 0 -89.5 32t-64 86.5t-38.5 122.5t-13 139t13 139t38.5 122.5t64 86.5t89.5 32t89.5 -32t64 -86.5t38.5 -122.5t13 -139
t-13 -139t-38.5 -122.5t-64 -86.5t-89.5 -32z" />
    <glyph glyph-name="Odieresis" unicode="&#xd6;" 
d="M176 805q-21 0 -35.5 14.5t-14.5 35.5t14.5 35.5t35.5 14.5q22 0 36 -14.5t14 -35.5t-14 -35.5t-36 -14.5zM323 805q-22 0 -36 14.5t-14 35.5t14 35.5t36 14.5q21 0 35.5 -14.5t14.5 -35.5t-14.5 -35.5t-35.5 -14.5zM250 27q59 0 90 46t31 132v330q0 86 -31 132t-90 46
q-58 0 -89.5 -46t-31.5 -132v-330q0 -86 31 -132t90 -46zM250 -10q-51 0 -89.5 32t-64 86.5t-38.5 122.5t-13 139t13 139t38.5 122.5t64 86.5t89.5 32t89.5 -32t64 -86.5t38.5 -122.5t13 -139t-13 -139t-38.5 -122.5t-64 -86.5t-89.5 -32z" />
    <glyph glyph-name="uni1ECC" unicode="&#x1ecc;" 
d="M250 -171q-21 0 -35.5 14.5t-14.5 35.5q0 20 14.5 34.5t35.5 14.5t35 -14.5t14 -34.5q0 -21 -14 -35.5t-35 -14.5zM250 27q59 0 90 46t31 132v330q0 86 -31 132t-90 46q-58 0 -89.5 -46t-31.5 -132v-330q0 -86 31 -132t90 -46zM250 -10q-51 0 -89.5 32t-64 86.5
t-38.5 122.5t-13 139t13 139t38.5 122.5t64 86.5t89.5 32t89.5 -32t64 -86.5t38.5 -122.5t13 -139t-13 -139t-38.5 -122.5t-64 -86.5t-89.5 -32z" />
    <glyph glyph-name="Ograve" unicode="&#xd2;" 
d="M252 780l-68 180h70l10 -180h-12zM250 27q59 0 90 46t31 132v330q0 86 -31 132t-90 46q-58 0 -89.5 -46t-31.5 -132v-330q0 -86 31 -132t90 -46zM250 -10q-51 0 -89.5 32t-64 86.5t-38.5 122.5t-13 139t13 139t38.5 122.5t64 86.5t89.5 32t89.5 -32t64 -86.5t38.5 -122.5
t13 -139t-13 -139t-38.5 -122.5t-64 -86.5t-89.5 -32z" />
    <glyph glyph-name="uni1ECE" unicode="&#x1ece;" 
d="M235 790v6q0 29 9 44t18 26.5t9 29.5q0 19 -10 27t-23 8t-21 -6.5t-10 -12.5l6 -3q8 -4 14 -9t6 -15q0 -7 -5.5 -14.5t-18.5 -7.5t-21 9t-8 24q0 20 16.5 39t51.5 19q30 0 47.5 -15t17.5 -38q0 -18 -9 -30t-20 -22.5t-20 -22.5t-9 -30v-6h-20zM250 27q59 0 90 46t31 132
v330q0 86 -31 132t-90 46q-58 0 -89.5 -46t-31.5 -132v-330q0 -86 31 -132t90 -46zM250 -10q-51 0 -89.5 32t-64 86.5t-38.5 122.5t-13 139t13 139t38.5 122.5t64 86.5t89.5 32t89.5 -32t64 -86.5t38.5 -122.5t13 -139t-13 -139t-38.5 -122.5t-64 -86.5t-89.5 -32z" />
    <glyph glyph-name="Ohorn" unicode="&#x1a0;" 
d="M250 27q59 0 90 46t31 132v330q0 86 -31 132t-90 46q-58 0 -89.5 -46t-31.5 -132v-330q0 -86 31 -132t90 -46zM250 -10q-51 0 -89.5 32t-64 86.5t-38.5 122.5t-13 139t13 139t38.5 122.5t64 86.5t89.5 32t89.5 -32q16.2401 -13.4983 30.1671 -31h15.3329q28 0 40.5 13
t12.5 24q-22 -4 -38 8t-16 32t12 31t31 11q16 0 31 -10.5t15 -42.5q0 -17 -7 -38.5t-26 -37q-18.4341 -15.0384 -52.8708 -15.4863q8.76383 -14.2557 16.3708 -30.5137q25.5 -54.5 38.5 -122.5t13 -139t-13 -139t-38.5 -122.5t-64 -86.5t-89.5 -32z" />
    <glyph glyph-name="uni1EDA" unicode="&#x1eda;" 
d="M236 780l10 180h70l-68 -180h-12zM250 27q59 0 90 46t31 132v330q0 86 -31 132t-90 46q-58 0 -89.5 -46t-31.5 -132v-330q0 -86 31 -132t90 -46zM250 -10q-51 0 -89.5 32t-64 86.5t-38.5 122.5t-13 139t13 139t38.5 122.5t64 86.5t89.5 32t89.5 -32
q16.2401 -13.4983 30.1671 -31h15.3329q28 0 40.5 13t12.5 24q-22 -4 -38 8t-16 32t12 31t31 11q16 0 31 -10.5t15 -42.5q0 -17 -7 -38.5t-26 -37q-18.4341 -15.0384 -52.8708 -15.4863q8.76383 -14.2557 16.3708 -30.5137q25.5 -54.5 38.5 -122.5t13 -139t-13 -139
t-38.5 -122.5t-64 -86.5t-89.5 -32z" />
    <glyph glyph-name="uni1EE2" unicode="&#x1ee2;" 
d="M250 -171q-21 0 -35.5 14.5t-14.5 35.5q0 20 14.5 34.5t35.5 14.5t35 -14.5t14 -34.5q0 -21 -14 -35.5t-35 -14.5zM250 27q59 0 90 46t31 132v330q0 86 -31 132t-90 46q-58 0 -89.5 -46t-31.5 -132v-330q0 -86 31 -132t90 -46zM250 -10q-51 0 -89.5 32t-64 86.5
t-38.5 122.5t-13 139t13 139t38.5 122.5t64 86.5t89.5 32t89.5 -32q16.2401 -13.4983 30.1671 -31h15.3329q28 0 40.5 13t12.5 24q-22 -4 -38 8t-16 32t12 31t31 11q16 0 31 -10.5t15 -42.5q0 -17 -7 -38.5t-26 -37q-18.4341 -15.0384 -52.8708 -15.4863
q8.76383 -14.2557 16.3708 -30.5137q25.5 -54.5 38.5 -122.5t13 -139t-13 -139t-38.5 -122.5t-64 -86.5t-89.5 -32z" />
    <glyph glyph-name="uni1EDC" unicode="&#x1edc;" 
d="M252 780l-68 180h70l10 -180h-12zM250 27q59 0 90 46t31 132v330q0 86 -31 132t-90 46q-58 0 -89.5 -46t-31.5 -132v-330q0 -86 31 -132t90 -46zM250 -10q-51 0 -89.5 32t-64 86.5t-38.5 122.5t-13 139t13 139t38.5 122.5t64 86.5t89.5 32t89.5 -32
q16.2401 -13.4983 30.1671 -31h15.3329q28 0 40.5 13t12.5 24q-22 -4 -38 8t-16 32t12 31t31 11q16 0 31 -10.5t15 -42.5q0 -17 -7 -38.5t-26 -37q-18.4341 -15.0384 -52.8708 -15.4863q8.76383 -14.2557 16.3708 -30.5137q25.5 -54.5 38.5 -122.5t13 -139t-13 -139
t-38.5 -122.5t-64 -86.5t-89.5 -32z" />
    <glyph glyph-name="uni1EDE" unicode="&#x1ede;" 
d="M235 790v6q0 29 9 44t18 26.5t9 29.5q0 19 -10 27t-23 8t-21 -6.5t-10 -12.5l6 -3q8 -4 14 -9t6 -15q0 -7 -5.5 -14.5t-18.5 -7.5t-21 9t-8 24q0 20 16.5 39t51.5 19q30 0 47.5 -15t17.5 -38q0 -18 -9 -30t-20 -22.5t-20 -22.5t-9 -30v-6h-20zM250 27q59 0 90 46t31 132
v330q0 86 -31 132t-90 46q-58 0 -89.5 -46t-31.5 -132v-330q0 -86 31 -132t90 -46zM250 -10q-51 0 -89.5 32t-64 86.5t-38.5 122.5t-13 139t13 139t38.5 122.5t64 86.5t89.5 32t89.5 -32q16.2401 -13.4983 30.1671 -31h15.3329q28 0 40.5 13t12.5 24q-22 -4 -38 8t-16 32
t12 31t31 11q16 0 31 -10.5t15 -42.5q0 -17 -7 -38.5t-26 -37q-18.4341 -15.0384 -52.8708 -15.4863q8.76383 -14.2557 16.3708 -30.5137q25.5 -54.5 38.5 -122.5t13 -139t-13 -139t-38.5 -122.5t-64 -86.5t-89.5 -32z" />
    <glyph glyph-name="uni1EE0" unicode="&#x1ee0;" 
d="M289 807q-21 0 -36 12.5t-27.5 25.5t-27.5 13q-13 0 -19 -12.5t-6 -33.5h-13q0 8 1 23t5.5 31t15 27.5t29.5 11.5q21 0 35.5 -13t27.5 -25.5t28 -12.5q14 0 19.5 12.5t5.5 33.5h13q0 -7 -1 -22.5t-5.5 -31.5t-15 -27.5t-29.5 -11.5zM250 27q59 0 90 46t31 132v330
q0 86 -31 132t-90 46q-58 0 -89.5 -46t-31.5 -132v-330q0 -86 31 -132t90 -46zM250 -10q-51 0 -89.5 32t-64 86.5t-38.5 122.5t-13 139t13 139t38.5 122.5t64 86.5t89.5 32t89.5 -32q16.2401 -13.4983 30.1671 -31h15.3329q28 0 40.5 13t12.5 24q-22 -4 -38 8t-16 32t12 31
t31 11q16 0 31 -10.5t15 -42.5q0 -17 -7 -38.5t-26 -37q-18.4341 -15.0384 -52.8708 -15.4863q8.76383 -14.2557 16.3708 -30.5137q25.5 -54.5 38.5 -122.5t13 -139t-13 -139t-38.5 -122.5t-64 -86.5t-89.5 -32z" />
    <glyph glyph-name="Ohungarumlaut" unicode="&#x150;" 
d="M197 780l10 180h60l-58 -180h-12zM293 780l10 180h60l-58 -180h-12zM250 27q59 0 90 46t31 132v330q0 86 -31 132t-90 46q-58 0 -89.5 -46t-31.5 -132v-330q0 -86 31 -132t90 -46zM250 -10q-51 0 -89.5 32t-64 86.5t-38.5 122.5t-13 139t13 139t38.5 122.5t64 86.5
t89.5 32t89.5 -32t64 -86.5t38.5 -122.5t13 -139t-13 -139t-38.5 -122.5t-64 -86.5t-89.5 -32z" />
    <glyph glyph-name="Omacron" unicode="&#x14c;" 
d="M118 838v31h264v-31h-264zM250 27q59 0 90 46t31 132v330q0 86 -31 132t-90 46q-58 0 -89.5 -46t-31.5 -132v-330q0 -86 31 -132t90 -46zM250 -10q-51 0 -89.5 32t-64 86.5t-38.5 122.5t-13 139t13 139t38.5 122.5t64 86.5t89.5 32t89.5 -32t64 -86.5t38.5 -122.5
t13 -139t-13 -139t-38.5 -122.5t-64 -86.5t-89.5 -32z" />
    <glyph glyph-name="Oslash" unicode="&#xd8;" 
d="M250 17q59 0 90 46t31 132v330q0 62 -17 104l-187 -576q31 -36 83 -36zM129 195q0 -63 17 -105l187 576q-31 37 -83 37q-58 0 -89.5 -46t-31.5 -132v-330zM134 -49l-30 10l27 82q-43 54 -64.5 139.5t-21.5 177.5q0 71 13 139t38.5 122.5t64 86.5t89.5 32q27 0 51 -9.5
t44 -27.5l21 66l31 -10l-27 -82q43 -54 64 -139.5t21 -177.5q0 -71 -13 -139t-38.5 -122.5t-64 -86.5t-89.5 -32q-27 0 -50.5 9.5t-43.5 27.5z" />
    <glyph glyph-name="Otilde" unicode="&#xd5;" 
d="M289 807q-21 0 -36 12.5t-27.5 25.5t-27.5 13q-13 0 -19 -12.5t-6 -33.5h-13q0 8 1 23t5.5 31t15 27.5t29.5 11.5q21 0 35.5 -13t27.5 -25.5t28 -12.5q14 0 19.5 12.5t5.5 33.5h13q0 -7 -1 -22.5t-5.5 -31.5t-15 -27.5t-29.5 -11.5zM250 27q59 0 90 46t31 132v330
q0 86 -31 132t-90 46q-58 0 -89.5 -46t-31.5 -132v-330q0 -86 31 -132t90 -46zM250 -10q-51 0 -89.5 32t-64 86.5t-38.5 122.5t-13 139t13 139t38.5 122.5t64 86.5t89.5 32t89.5 -32t64 -86.5t38.5 -122.5t13 -139t-13 -139t-38.5 -122.5t-64 -86.5t-89.5 -32z" />
    <glyph glyph-name="OE" unicode="&#x152;" 
d="M218 32h15v676h-16q-13 0 -32 -5t-37 -20.5t-30 -48t-12 -87.5v-354q0 -55 10.5 -87.5t27.5 -48t36.5 -20.5t37.5 -5zM218 0q-48 0 -84 31.5t-60 85t-36 120.5t-12 137q0 69 11.5 134t35.5 117.5t60 83.5t84 31h241l1 -214h-28l-14 107q-4 36 -26 54t-57 18h-39l-1 -284
h44l22 127h25v-288h-25l-22 127h-44v-352h42q35 0 57 18t26 55l15 126h28v-234h-244z" />
    <glyph glyph-name="P" unicode="P" 
d="M172 327h58q67 0 102.5 35.5t35.5 102.5v100q0 67 -35.5 102.5t-102.5 35.5h-58v-376zM18 0v34h84v672h-84v34h189q82 0 136.5 -32.5t82 -84t27.5 -108.5q0 -56 -27.5 -107.5t-82 -84.5t-136.5 -33h-35v-256h162v-34h-316z" />
    <glyph glyph-name="Thorn" unicode="&#xde;" 
d="M172 182h58q67 0 102.5 35.5t35.5 102.5v100q0 67 -35.5 102.5t-102.5 35.5h-58v-376zM18 0v34h84v672h-84v34h286v-34h-132v-111h35q82 0 136.5 -32.5t82 -84t27.5 -108.5q0 -56 -27.5 -107.5t-82 -84.5t-136.5 -33h-35v-111h132v-34h-286z" />
    <glyph glyph-name="Q" unicode="Q" 
d="M250 27q12 0 22 2v66q0 5 -1.5 17.5t-8.5 23.5t-24 11q-18 0 -26 -14t-8 -39q0 -40 15.5 -53.5t30.5 -13.5zM129 205q0 -137 74 -169q-9 10 -15 25.5t-6 37.5q0 41 19.5 64.5t53.5 23.5q36 0 55 -26.5t19 -76.5v-25q42 45 42 146v330q0 86 -31 132t-90 46
q-58 0 -89.5 -46t-31.5 -132v-330zM250 -10q-51 0 -89.5 32t-64 86.5t-38.5 122.5t-13 139t13 139t38.5 122.5t64 86.5t89.5 32t89.5 -32t64 -86.5t38.5 -122.5t13 -139q0 -75 -14 -145.5t-42 -126t-70 -83.5v-87q0 -9 1.5 -24t10.5 -27.5t29 -12.5t28 11.5t9.5 25.5t1.5 21
v78h30v-78q0 -22 -7.5 -46t-25.5 -40t-51 -16q-40 0 -61.5 28t-21.5 80v64q-11 -2 -22 -2z" />
    <glyph glyph-name="R" unicode="R" 
d="M172 407h59q67 0 102.5 25.5t35.5 92.5v55q0 67 -35.5 97.5t-102.5 30.5h-59v-301zM409 -10q-42 0 -64.5 28.5t-22.5 74.5v184q0 55 -20.5 76.5t-81.5 21.5h-48v-341h83v-34h-237v34h84v672h-84v34h230q75 0 119.5 -28t64 -70t19.5 -83q0 -67 -41 -110t-109 -57l-5 -1v-6
l5 -1q44 -9 67 -32t23 -75v-176q0 -10 1.5 -25.5t9.5 -27t26 -11.5q23 0 30 18.5t7 39.5v173h30v-176q0 -22 -7.5 -46t-26 -40t-52.5 -16z" />
    <glyph glyph-name="Racute" unicode="&#x154;" 
d="M236 780l10 180h70l-68 -180h-12zM172 407h59q67 0 102.5 25.5t35.5 92.5v55q0 67 -35.5 97.5t-102.5 30.5h-59v-301zM409 -10q-42 0 -64.5 28.5t-22.5 74.5v184q0 55 -20.5 76.5t-81.5 21.5h-48v-341h83v-34h-237v34h84v672h-84v34h230q75 0 119.5 -28t64 -70t19.5 -83
q0 -67 -41 -110t-109 -57l-5 -1v-6l5 -1q44 -9 67 -32t23 -75v-176q0 -10 1.5 -25.5t9.5 -27t26 -11.5q23 0 30 18.5t7 39.5v173h30v-176q0 -22 -7.5 -46t-26 -40t-52.5 -16z" />
    <glyph glyph-name="Rcaron" unicode="&#x158;" 
d="M230 780l-65 170h12l73 -106l73 106h12l-65 -170h-40zM172 407h59q67 0 102.5 25.5t35.5 92.5v55q0 67 -35.5 97.5t-102.5 30.5h-59v-301zM409 -10q-42 0 -64.5 28.5t-22.5 74.5v184q0 55 -20.5 76.5t-81.5 21.5h-48v-341h83v-34h-237v34h84v672h-84v34h230
q75 0 119.5 -28t64 -70t19.5 -83q0 -67 -41 -110t-109 -57l-5 -1v-6l5 -1q44 -9 67 -32t23 -75v-176q0 -10 1.5 -25.5t9.5 -27t26 -11.5q23 0 30 18.5t7 39.5v173h30v-176q0 -22 -7.5 -46t-26 -40t-52.5 -16z" />
    <glyph glyph-name="uni0156" unicode="&#x156;" 
d="M210 -207l-11 16q19 12 38.5 31t19.5 35q-23 0 -38.5 11.5t-15.5 36.5q0 23 14 37t35 14q20 0 35 -13.5t15 -41.5q0 -27 -15 -52t-36.5 -44t-40.5 -30zM172 407h59q67 0 102.5 25.5t35.5 92.5v55q0 67 -35.5 97.5t-102.5 30.5h-59v-301zM409 -10q-42 0 -64.5 28.5
t-22.5 74.5v184q0 55 -20.5 76.5t-81.5 21.5h-48v-341h83v-34h-237v34h84v672h-84v34h230q75 0 119.5 -28t64 -70t19.5 -83q0 -67 -41 -110t-109 -57l-5 -1v-6l5 -1q44 -9 67 -32t23 -75v-176q0 -10 1.5 -25.5t9.5 -27t26 -11.5q23 0 30 18.5t7 39.5v173h30v-176
q0 -22 -7.5 -46t-26 -40t-52.5 -16z" />
    <glyph glyph-name="S" unicode="S" 
d="M269 -10q-43 0 -72.5 16.5t-47 40t-26.5 47.5t-11 39h-8v-133h-32v295h52v-39q0 -17 2.5 -46t10 -61t22.5 -60.5t41 -46.5t66 -18q48 0 78 29.5t30 82.5q0 46 -20.5 85t-53.5 74.5t-69.5 70t-69.5 70t-53.5 76t-20.5 87.5t21 80.5t55.5 52t76.5 18.5q47 0 76 -20t45 -46
t22 -45h8v101h32v-248h-52v32q0 54 -15.5 98t-44 69.5t-69.5 25.5t-64.5 -27t-23.5 -68q0 -40 20.5 -76.5t53.5 -71t69.5 -69.5t69.5 -72.5t53.5 -80t20.5 -92.5q0 -52 -23.5 -90t-62.5 -59t-86 -21z" />
    <glyph glyph-name="Sacute" unicode="&#x15a;" 
d="M236 780l10 180h70l-68 -180h-12zM269 -10q-43 0 -72.5 16.5t-47 40t-26.5 47.5t-11 39h-8v-133h-32v295h52v-39q0 -17 2.5 -46t10 -61t22.5 -60.5t41 -46.5t66 -18q48 0 78 29.5t30 82.5q0 46 -20.5 85t-53.5 74.5t-69.5 70t-69.5 70t-53.5 76t-20.5 87.5t21 80.5
t55.5 52t76.5 18.5q47 0 76 -20t45 -46t22 -45h8v101h32v-248h-52v32q0 54 -15.5 98t-44 69.5t-69.5 25.5t-64.5 -27t-23.5 -68q0 -40 20.5 -76.5t53.5 -71t69.5 -69.5t69.5 -72.5t53.5 -80t20.5 -92.5q0 -52 -23.5 -90t-62.5 -59t-86 -21z" />
    <glyph glyph-name="Scaron" unicode="&#x160;" 
d="M230 780l-65 170h12l73 -106l73 106h12l-65 -170h-40zM269 -10q-43 0 -72.5 16.5t-47 40t-26.5 47.5t-11 39h-8v-133h-32v295h52v-39q0 -17 2.5 -46t10 -61t22.5 -60.5t41 -46.5t66 -18q48 0 78 29.5t30 82.5q0 46 -20.5 85t-53.5 74.5t-69.5 70t-69.5 70t-53.5 76
t-20.5 87.5t21 80.5t55.5 52t76.5 18.5q47 0 76 -20t45 -46t22 -45h8v101h32v-248h-52v32q0 54 -15.5 98t-44 69.5t-69.5 25.5t-64.5 -27t-23.5 -68q0 -40 20.5 -76.5t53.5 -71t69.5 -69.5t69.5 -72.5t53.5 -80t20.5 -92.5q0 -52 -23.5 -90t-62.5 -59t-86 -21z" />
    <glyph glyph-name="Scedilla" unicode="&#x15e;" 
d="M251 -213q-44 0 -73.5 16.5t-29.5 43.5q0 12 7.5 23.5t25.5 11.5q23 0 31.5 -17t10.5 -30l4 -23q3 -1 10 -3t16 -2q29 0 42.5 16t13.5 35q0 27 -22 42.5t-59 15.5q-10 0 -20 -1.5t-19 -5.5l-9 5l41 78h19.695q-24.9656 3.74456 -44.195 14.5q-29.5 16.5 -47 40
t-26.5 47.5t-11 39h-8v-133h-32v295h52v-39q0 -17 2.5 -46t10 -61t22.5 -60.5t41 -46.5t66 -18q48 0 78 29.5t30 82.5q0 46 -20.5 85t-53.5 74.5t-69.5 70t-69.5 70t-53.5 76t-20.5 87.5t21 80.5t55.5 52t76.5 18.5q47 0 76 -20t45 -46t22 -45h8v101h32v-248h-52v32
q0 54 -15.5 98t-44 69.5t-69.5 25.5t-64.5 -27t-23.5 -68q0 -40 20.5 -76.5t53.5 -71t69.5 -69.5t69.5 -72.5t53.5 -80t20.5 -92.5q0 -52 -23.5 -90t-62.5 -59t-86 -21q-8.14446 0 -15.8046 0.591932l-23.1954 -40.5919q45 4 71.5 -8t38 -32.5t11.5 -42.5q0 -17 -8.5 -36
t-30 -31.5t-61.5 -12.5z" />
    <glyph glyph-name="uni0218" unicode="&#x218;" 
d="M210 -207l-11 16q19 12 38.5 31t19.5 35q-23 0 -38.5 11.5t-15.5 36.5q0 23 14 37t35 14q20 0 35 -13.5t15 -41.5q0 -27 -15 -52t-36.5 -44t-40.5 -30zM269 -10q-43 0 -72.5 16.5t-47 40t-26.5 47.5t-11 39h-8v-133h-32v295h52v-39q0 -17 2.5 -46t10 -61t22.5 -60.5
t41 -46.5t66 -18q48 0 78 29.5t30 82.5q0 46 -20.5 85t-53.5 74.5t-69.5 70t-69.5 70t-53.5 76t-20.5 87.5t21 80.5t55.5 52t76.5 18.5q47 0 76 -20t45 -46t22 -45h8v101h32v-248h-52v32q0 54 -15.5 98t-44 69.5t-69.5 25.5t-64.5 -27t-23.5 -68q0 -40 20.5 -76.5t53.5 -71
t69.5 -69.5t69.5 -72.5t53.5 -80t20.5 -92.5q0 -52 -23.5 -90t-62.5 -59t-86 -21z" />
    <glyph glyph-name="uni1E9E" unicode="&#x1e9e;" 
d="M388 -10q-39 0 -65.5 16.5t-43 40t-25 47.5t-10.5 39h-8v-133h-28v215h48v-9q0 -8 2.5 -29t9 -47t20.5 -50t36.5 -40t56.5 -16q36 0 60.5 21t24.5 65q0 37 -17.5 69t-44.5 61.5t-58 59.5t-58 61.5t-44.5 68.5t-17.5 81q0 51 23.5 81.5t58 45t66.5 14.5q0 41 -25.5 68
t-75.5 27q-53 0 -88 -38t-35 -124v-585h-185v28l117 10v470h-94v22l94 10v25q0 101 51 154.5t148 53.5q51 0 83 -13t49.5 -34t24.5 -43.5t7 -42.5q-32 3 -67.5 -6t-60 -33t-24.5 -67q0 -44 24 -83t60 -75t72 -73.5t60 -78.5t24 -90q0 -43 -20 -75.5t-52.5 -50.5t-72.5 -18z
" />
    <glyph glyph-name="T" unicode="T" 
d="M74 0v32h139v673h-59q-74 0 -83 -72l-14 -107h-28v224h18l30 -10h342l30 10h18v-224h-28l-14 107q-9 72 -83 72h-59v-673h139v-32h-348z" />
    <glyph glyph-name="Tbar" unicode="&#x166;" 
d="M74 0v32h139v329h-133v29h133v315h-59q-74 0 -83 -72l-14 -107h-28v224h18l30 -10h342l30 10h18v-224h-28l-14 107q-9 72 -83 72h-59v-315h133v-29h-133v-329h139v-32h-348z" />
    <glyph glyph-name="Tcaron" unicode="&#x164;" 
d="M230 780l-65 170h12l73 -106l73 106h12l-65 -170h-40zM74 0v32h139v673h-59q-74 0 -83 -72l-14 -107h-28v224h18l30 -10h342l30 10h18v-224h-28l-14 107q-9 72 -83 72h-59v-673h139v-32h-348z" />
    <glyph glyph-name="uni0162" unicode="&#x162;" 
d="M251 -213q-44 0 -73.5 16.5t-29.5 43.5q0 12 7.5 23.5t25.5 11.5q23 0 31.5 -17t10.5 -30l4 -23q3 -1 10 -3t16 -2q29 0 42.5 16t13.5 35q0 27 -22 42.5t-59 15.5q-10 0 -20 -1.5t-19 -5.5l-9 5l41 78h33l-24 -42q45 4 71.5 -8t38 -32.5t11.5 -42.5q0 -17 -8.5 -36
t-30 -31.5t-61.5 -12.5zM74 0v32h139v673h-59q-74 0 -83 -72l-14 -107h-28v224h18l30 -10h342l30 10h18v-224h-28l-14 107q-9 72 -83 72h-59v-673h139v-32h-348z" />
    <glyph glyph-name="uni021A" unicode="&#x21a;" 
d="M210 -207l-11 16q19 12 38.5 31t19.5 35q-23 0 -38.5 11.5t-15.5 36.5q0 23 14 37t35 14q20 0 35 -13.5t15 -41.5q0 -27 -15 -52t-36.5 -44t-40.5 -30zM74 0v32h139v673h-59q-74 0 -83 -72l-14 -107h-28v224h18l30 -10h342l30 10h18v-224h-28l-14 107q-9 72 -83 72h-59
v-673h139v-32h-348z" />
    <glyph glyph-name="U" unicode="U" 
d="M252 -10q-79 0 -121 45t-42 130v541h-64v34h208v-34h-74v-542q0 -64 28.5 -98.5t82.5 -34.5t82.5 34.5t28.5 98.5v542h-59v34h152v-34h-59v-541q0 -85 -41.5 -130t-121.5 -45z" />
    <glyph glyph-name="Uacute" unicode="&#xda;" 
d="M236 780l10 180h70l-68 -180h-12zM252 -10q-79 0 -121 45t-42 130v541h-64v34h208v-34h-74v-542q0 -64 28.5 -98.5t82.5 -34.5t82.5 34.5t28.5 98.5v542h-59v34h152v-34h-59v-541q0 -85 -41.5 -130t-121.5 -45z" />
    <glyph glyph-name="Ucircumflex" unicode="&#xdb;" 
d="M165 780l65 170h40l65 -170h-12l-73 106l-73 -106h-12zM252 -10q-79 0 -121 45t-42 130v541h-64v34h208v-34h-74v-542q0 -64 28.5 -98.5t82.5 -34.5t82.5 34.5t28.5 98.5v542h-59v34h152v-34h-59v-541q0 -85 -41.5 -130t-121.5 -45z" />
    <glyph glyph-name="Udieresis" unicode="&#xdc;" 
d="M176 805q-21 0 -35.5 14.5t-14.5 35.5t14.5 35.5t35.5 14.5q22 0 36 -14.5t14 -35.5t-14 -35.5t-36 -14.5zM323 805q-22 0 -36 14.5t-14 35.5t14 35.5t36 14.5q21 0 35.5 -14.5t14.5 -35.5t-14.5 -35.5t-35.5 -14.5zM252 -10q-79 0 -121 45t-42 130v541h-64v34h208v-34
h-74v-542q0 -64 28.5 -98.5t82.5 -34.5t82.5 34.5t28.5 98.5v542h-59v34h152v-34h-59v-541q0 -85 -41.5 -130t-121.5 -45z" />
    <glyph glyph-name="uni1EE4" unicode="&#x1ee4;" 
d="M250 -171q-21 0 -35.5 14.5t-14.5 35.5q0 20 14.5 34.5t35.5 14.5t35 -14.5t14 -34.5q0 -21 -14 -35.5t-35 -14.5zM252 -10q-79 0 -121 45t-42 130v541h-64v34h208v-34h-74v-542q0 -64 28.5 -98.5t82.5 -34.5t82.5 34.5t28.5 98.5v542h-59v34h152v-34h-59v-541
q0 -85 -41.5 -130t-121.5 -45z" />
    <glyph glyph-name="Ugrave" unicode="&#xd9;" 
d="M252 780l-68 180h70l10 -180h-12zM252 -10q-79 0 -121 45t-42 130v541h-64v34h208v-34h-74v-542q0 -64 28.5 -98.5t82.5 -34.5t82.5 34.5t28.5 98.5v542h-59v34h152v-34h-59v-541q0 -85 -41.5 -130t-121.5 -45z" />
    <glyph glyph-name="uni1EE6" unicode="&#x1ee6;" 
d="M235 790v6q0 29 9 44t18 26.5t9 29.5q0 19 -10 27t-23 8t-21 -6.5t-10 -12.5l6 -3q8 -4 14 -9t6 -15q0 -7 -5.5 -14.5t-18.5 -7.5t-21 9t-8 24q0 20 16.5 39t51.5 19q30 0 47.5 -15t17.5 -38q0 -18 -9 -30t-20 -22.5t-20 -22.5t-9 -30v-6h-20zM252 -10q-79 0 -121 45
t-42 130v541h-64v34h208v-34h-74v-542q0 -64 28.5 -98.5t82.5 -34.5t82.5 34.5t28.5 98.5v542h-59v34h152v-34h-59v-541q0 -85 -41.5 -130t-121.5 -45z" />
    <glyph glyph-name="Uhorn" unicode="&#x1af;" 
d="M252 -10q-79 0 -121 45t-42 130v541h-64v34h208v-34h-74v-542q0 -64 28.5 -98.5t82.5 -34.5t82.5 34.5t28.5 98.5v542h-59v34h91q28 0 40.5 13t12.5 24q-22 -4 -38 8t-16 32t12 31t31 11q16 0 31 -10.5t15 -42.5q0 -17 -7 -38.5t-25.5 -37t-53.5 -15.5v-550
q0 -85 -41.5 -130t-121.5 -45z" />
    <glyph glyph-name="uni1EE8" unicode="&#x1ee8;" 
d="M236 780l10 180h70l-68 -180h-12zM252 -10q-79 0 -121 45t-42 130v541h-64v34h208v-34h-74v-542q0 -64 28.5 -98.5t82.5 -34.5t82.5 34.5t28.5 98.5v542h-59v34h91q28 0 40.5 13t12.5 24q-22 -4 -38 8t-16 32t12 31t31 11q16 0 31 -10.5t15 -42.5q0 -17 -7 -38.5
t-25.5 -37t-53.5 -15.5v-550q0 -85 -41.5 -130t-121.5 -45z" />
    <glyph glyph-name="uni1EF0" unicode="&#x1ef0;" 
d="M250 -171q-21 0 -35.5 14.5t-14.5 35.5q0 20 14.5 34.5t35.5 14.5t35 -14.5t14 -34.5q0 -21 -14 -35.5t-35 -14.5zM252 -10q-79 0 -121 45t-42 130v541h-64v34h208v-34h-74v-542q0 -64 28.5 -98.5t82.5 -34.5t82.5 34.5t28.5 98.5v542h-59v34h91q28 0 40.5 13t12.5 24
q-22 -4 -38 8t-16 32t12 31t31 11q16 0 31 -10.5t15 -42.5q0 -17 -7 -38.5t-25.5 -37t-53.5 -15.5v-550q0 -85 -41.5 -130t-121.5 -45z" />
    <glyph glyph-name="uni1EEA" unicode="&#x1eea;" 
d="M252 780l-68 180h70l10 -180h-12zM252 -10q-79 0 -121 45t-42 130v541h-64v34h208v-34h-74v-542q0 -64 28.5 -98.5t82.5 -34.5t82.5 34.5t28.5 98.5v542h-59v34h91q28 0 40.5 13t12.5 24q-22 -4 -38 8t-16 32t12 31t31 11q16 0 31 -10.5t15 -42.5q0 -17 -7 -38.5
t-25.5 -37t-53.5 -15.5v-550q0 -85 -41.5 -130t-121.5 -45z" />
    <glyph glyph-name="uni1EEC" unicode="&#x1eec;" 
d="M235 790v6q0 29 9 44t18 26.5t9 29.5q0 19 -10 27t-23 8t-21 -6.5t-10 -12.5l6 -3q8 -4 14 -9t6 -15q0 -7 -5.5 -14.5t-18.5 -7.5t-21 9t-8 24q0 20 16.5 39t51.5 19q30 0 47.5 -15t17.5 -38q0 -18 -9 -30t-20 -22.5t-20 -22.5t-9 -30v-6h-20zM252 -10q-79 0 -121 45
t-42 130v541h-64v34h208v-34h-74v-542q0 -64 28.5 -98.5t82.5 -34.5t82.5 34.5t28.5 98.5v542h-59v34h91q28 0 40.5 13t12.5 24q-22 -4 -38 8t-16 32t12 31t31 11q16 0 31 -10.5t15 -42.5q0 -17 -7 -38.5t-25.5 -37t-53.5 -15.5v-550q0 -85 -41.5 -130t-121.5 -45z" />
    <glyph glyph-name="uni1EEE" unicode="&#x1eee;" 
d="M289 807q-21 0 -36 12.5t-27.5 25.5t-27.5 13q-13 0 -19 -12.5t-6 -33.5h-13q0 8 1 23t5.5 31t15 27.5t29.5 11.5q21 0 35.5 -13t27.5 -25.5t28 -12.5q14 0 19.5 12.5t5.5 33.5h13q0 -7 -1 -22.5t-5.5 -31.5t-15 -27.5t-29.5 -11.5zM252 -10q-79 0 -121 45t-42 130v541
h-64v34h208v-34h-74v-542q0 -64 28.5 -98.5t82.5 -34.5t82.5 34.5t28.5 98.5v542h-59v34h91q28 0 40.5 13t12.5 24q-22 -4 -38 8t-16 32t12 31t31 11q16 0 31 -10.5t15 -42.5q0 -17 -7 -38.5t-25.5 -37t-53.5 -15.5v-550q0 -85 -41.5 -130t-121.5 -45z" />
    <glyph glyph-name="Uhungarumlaut" unicode="&#x170;" 
d="M197 780l10 180h60l-58 -180h-12zM293 780l10 180h60l-58 -180h-12zM252 -10q-79 0 -121 45t-42 130v541h-64v34h208v-34h-74v-542q0 -64 28.5 -98.5t82.5 -34.5t82.5 34.5t28.5 98.5v542h-59v34h152v-34h-59v-541q0 -85 -41.5 -130t-121.5 -45z" />
    <glyph glyph-name="Umacron" unicode="&#x16a;" 
d="M118 838v31h264v-31h-264zM252 -10q-79 0 -121 45t-42 130v541h-64v34h208v-34h-74v-542q0 -64 28.5 -98.5t82.5 -34.5t82.5 34.5t28.5 98.5v542h-59v34h152v-34h-59v-541q0 -85 -41.5 -130t-121.5 -45z" />
    <glyph glyph-name="Uogonek" unicode="&#x172;" 
d="M292 -176q-26 0 -50.5 17t-24.5 60q0 39 23.5 64.5q14.3691 15.592 28.1774 25.0151q-8.11834 -0.515087 -16.6774 -0.515086q-79 0 -121 45t-42 130v541h-64v34h208v-34h-74v-542q0 -64 28.5 -98.5t82.5 -34.5t82.5 34.5t28.5 98.5v542h-59v34h152v-34h-59v-541
q0 -85 -41.5 -130q-25.2112 -27.3375 -64.6311 -38.0674q-15.4345 -7.59193 -30.8689 -23.4326q-19 -19.5 -19 -50.5q0 -27 15 -40.5t37 -13.5q23 0 37.5 12t18.5 23l12 -6q-6 -24 -27.5 -49t-59.5 -25z" />
    <glyph glyph-name="Uring" unicode="&#x16e;" 
d="M250 811q26 0 40 16.5t14 39.5t-14 39.5t-40 16.5t-40 -16.5t-14 -39.5t14 -39.5t40 -16.5zM250 784q-38 0 -60.5 24.5t-22.5 58.5q0 35 22.5 59t60.5 24t60.5 -24t22.5 -59q0 -34 -22.5 -58.5t-60.5 -24.5zM252 -10q-79 0 -121 45t-42 130v541h-64v34h208v-34h-74v-542
q0 -64 28.5 -98.5t82.5 -34.5t82.5 34.5t28.5 98.5v542h-59v34h152v-34h-59v-541q0 -85 -41.5 -130t-121.5 -45z" />
    <glyph glyph-name="Utilde" unicode="&#x168;" 
d="M289 807q-21 0 -36 12.5t-27.5 25.5t-27.5 13q-13 0 -19 -12.5t-6 -33.5h-13q0 8 1 23t5.5 31t15 27.5t29.5 11.5q21 0 35.5 -13t27.5 -25.5t28 -12.5q14 0 19.5 12.5t5.5 33.5h13q0 -7 -1 -22.5t-5.5 -31.5t-15 -27.5t-29.5 -11.5zM252 -10q-79 0 -121 45t-42 130v541
h-64v34h208v-34h-74v-542q0 -64 28.5 -98.5t82.5 -34.5t82.5 34.5t28.5 98.5v542h-59v34h152v-34h-59v-541q0 -85 -41.5 -130t-121.5 -45z" />
    <glyph glyph-name="V" unicode="V" 
d="M226 0l-173 706h-64v34h236v-34h-101l139 -578l141 578h-70v34h158v-34h-53l-173 -706h-40z" />
    <glyph glyph-name="W" unicode="W" 
d="M136 0l-97 706h-60v34h174v-34h-49l70 -509l64 394l-20 149h65l75 -543l83 509h-43v34h126v-34h-50l-116 -706h-38l-66 481l-80 -481h-38z" />
    <glyph glyph-name="Wacute" unicode="&#x1e82;" 
d="M236 780l10 180h70l-68 -180h-12zM136 0l-97 706h-60v34h174v-34h-49l70 -509l64 394l-20 149h65l75 -543l83 509h-43v34h126v-34h-50l-116 -706h-38l-66 481l-80 -481h-38z" />
    <glyph glyph-name="Wcircumflex" unicode="&#x174;" 
d="M165 780l65 170h40l65 -170h-12l-73 106l-73 -106h-12zM136 0l-97 706h-60v34h174v-34h-49l70 -509l64 394l-20 149h65l75 -543l83 509h-43v34h126v-34h-50l-116 -706h-38l-66 481l-80 -481h-38z" />
    <glyph glyph-name="Wdieresis" unicode="&#x1e84;" 
d="M176 805q-21 0 -35.5 14.5t-14.5 35.5t14.5 35.5t35.5 14.5q22 0 36 -14.5t14 -35.5t-14 -35.5t-36 -14.5zM323 805q-22 0 -36 14.5t-14 35.5t14 35.5t36 14.5q21 0 35.5 -14.5t14.5 -35.5t-14.5 -35.5t-35.5 -14.5zM136 0l-97 706h-60v34h174v-34h-49l70 -509l64 394
l-20 149h65l75 -543l83 509h-43v34h126v-34h-50l-116 -706h-38l-66 481l-80 -481h-38z" />
    <glyph glyph-name="Wgrave" unicode="&#x1e80;" 
d="M252 780l-68 180h70l10 -180h-12zM136 0l-97 706h-60v34h174v-34h-49l70 -509l64 394l-20 149h65l75 -543l83 509h-43v34h126v-34h-50l-116 -706h-38l-66 481l-80 -481h-38z" />
    <glyph glyph-name="X" unicode="X" 
d="M16 0v34h71l126 329l-132 343h-71v34h213v-34h-70l101 -263l101 263h-55v34h158v-34h-71l-117 -304l142 -368h71v-34h-220v34h77l-111 287l-110 -287h60v-34h-163z" />
    <glyph glyph-name="Y" unicode="Y" 
d="M69 0v34h144v278l-160 394h-79v34h246v-34h-99l143 -350l131 350h-66v34h168v-34h-67l-147 -391v-281h144v-34h-358z" />
    <glyph glyph-name="Yacute" unicode="&#xdd;" 
d="M236 780l10 180h70l-68 -180h-12zM69 0v34h144v278l-160 394h-79v34h246v-34h-99l143 -350l131 350h-66v34h168v-34h-67l-147 -391v-281h144v-34h-358z" />
    <glyph glyph-name="Ycircumflex" unicode="&#x176;" 
d="M165 780l65 170h40l65 -170h-12l-73 106l-73 -106h-12zM69 0v34h144v278l-160 394h-79v34h246v-34h-99l143 -350l131 350h-66v34h168v-34h-67l-147 -391v-281h144v-34h-358z" />
    <glyph glyph-name="Ydieresis" unicode="&#x178;" 
d="M176 805q-21 0 -35.5 14.5t-14.5 35.5t14.5 35.5t35.5 14.5q22 0 36 -14.5t14 -35.5t-14 -35.5t-36 -14.5zM323 805q-22 0 -36 14.5t-14 35.5t14 35.5t36 14.5q21 0 35.5 -14.5t14.5 -35.5t-14.5 -35.5t-35.5 -14.5zM69 0v34h144v278l-160 394h-79v34h246v-34h-99
l143 -350l131 350h-66v34h168v-34h-67l-147 -391v-281h144v-34h-358z" />
    <glyph glyph-name="uni1EF4" unicode="&#x1ef4;" 
d="M250 -171q-21 0 -35.5 14.5t-14.5 35.5q0 20 14.5 34.5t35.5 14.5t35 -14.5t14 -34.5q0 -21 -14 -35.5t-35 -14.5zM69 0v34h144v278l-160 394h-79v34h246v-34h-99l143 -350l131 350h-66v34h168v-34h-67l-147 -391v-281h144v-34h-358z" />
    <glyph glyph-name="Ygrave" unicode="&#x1ef2;" 
d="M252 780l-68 180h70l10 -180h-12zM69 0v34h144v278l-160 394h-79v34h246v-34h-99l143 -350l131 350h-66v34h168v-34h-67l-147 -391v-281h144v-34h-358z" />
    <glyph glyph-name="uni1EF6" unicode="&#x1ef6;" 
d="M235 790v6q0 29 9 44t18 26.5t9 29.5q0 19 -10 27t-23 8t-21 -6.5t-10 -12.5l6 -3q8 -4 14 -9t6 -15q0 -7 -5.5 -14.5t-18.5 -7.5t-21 9t-8 24q0 20 16.5 39t51.5 19q30 0 47.5 -15t17.5 -38q0 -18 -9 -30t-20 -22.5t-20 -22.5t-9 -30v-6h-20zM69 0v34h144v278l-160 394
h-79v34h246v-34h-99l143 -350l131 350h-66v34h168v-34h-67l-147 -391v-281h144v-34h-358z" />
    <glyph glyph-name="uni1EF8" unicode="&#x1ef8;" 
d="M289 807q-21 0 -36 12.5t-27.5 25.5t-27.5 13q-13 0 -19 -12.5t-6 -33.5h-13q0 8 1 23t5.5 31t15 27.5t29.5 11.5q21 0 35.5 -13t27.5 -25.5t28 -12.5q14 0 19.5 12.5t5.5 33.5h13q0 -7 -1 -22.5t-5.5 -31.5t-15 -27.5t-29.5 -11.5zM69 0v34h144v278l-160 394h-79v34h246
v-34h-99l143 -350l131 350h-66v34h168v-34h-67l-147 -391v-281h144v-34h-358z" />
    <glyph glyph-name="Z" unicode="Z" 
d="M61 0v20l320 685h-171q-74 0 -83 -72l-14 -117h-28v224h375v-20l-320 -685h187q74 0 83 72l14 117h28v-224h-391z" />
    <glyph glyph-name="Zacute" unicode="&#x179;" 
d="M266 780l10 180h70l-68 -180h-12zM61 0v20l320 685h-171q-74 0 -83 -72l-14 -117h-28v224h375v-20l-320 -685h187q74 0 83 72l14 117h28v-224h-391z" />
    <glyph glyph-name="Zcaron" unicode="&#x17d;" 
d="M260 780l-65 170h12l73 -106l73 106h12l-65 -170h-40zM61 0v20l320 685h-171q-74 0 -83 -72l-14 -117h-28v224h375v-20l-320 -685h187q74 0 83 72l14 117h28v-224h-391z" />
    <glyph glyph-name="Zdotaccent" unicode="&#x17b;" 
d="M280 830q-23 0 -39 16t-16 39t16 39t39 16t39 -16t16 -39t-16 -39t-39 -16zM61 0v20l320 685h-171q-74 0 -83 -72l-14 -117h-28v224h375v-20l-320 -685h187q74 0 83 72l14 117h28v-224h-391z" />
    <glyph glyph-name="a" unicode="a" 
d="M127 128q0 -39 24 -66.5t64 -27.5q26 0 46.5 11.5t34 27.5t18.5 31v183l-95 -47q-23 -11 -44 -24.5t-34.5 -33.5t-13.5 -54zM184 -10q-55 0 -86.5 33.5t-31.5 81.5q0 45 22.5 74.5t56.5 49.5t67 35l102 47v97q0 49 -31 77t-78 28q-43 0 -71 -21t-39 -41q23 -24 34.5 -38
t11.5 -33q0 -17 -11.5 -32t-34.5 -15q-22 0 -34.5 15.5t-12.5 38.5t11.5 50.5t35 53.5t59.5 42.5t85 16.5q53 0 84.5 -21t45 -53.5t13.5 -67.5v-324q0 -42 29 -42q19 0 30 15.5t15 30.5l18 -6q-3 -20 -14 -41.5t-29.5 -36t-45.5 -14.5q-30 0 -50.5 20t-20.5 62
q-8 -18 -26 -37t-44 -32t-60 -13z" />
    <glyph glyph-name="aacute" unicode="&#xe1;" 
d="M221 580l10 180h70l-68 -180h-12zM127 128q0 -39 24 -66.5t64 -27.5q26 0 46.5 11.5t34 27.5t18.5 31v183l-95 -47q-23 -11 -44 -24.5t-34.5 -33.5t-13.5 -54zM184 -10q-55 0 -86.5 33.5t-31.5 81.5q0 45 22.5 74.5t56.5 49.5t67 35l102 47v97q0 49 -31 77t-78 28
q-43 0 -71 -21t-39 -41q23 -24 34.5 -38t11.5 -33q0 -17 -11.5 -32t-34.5 -15q-22 0 -34.5 15.5t-12.5 38.5t11.5 50.5t35 53.5t59.5 42.5t85 16.5q53 0 84.5 -21t45 -53.5t13.5 -67.5v-324q0 -42 29 -42q19 0 30 15.5t15 30.5l18 -6q-3 -20 -14 -41.5t-29.5 -36
t-45.5 -14.5q-30 0 -50.5 20t-20.5 62q-8 -18 -26 -37t-44 -32t-60 -13z" />
    <glyph glyph-name="abreve" unicode="&#x103;" 
d="M235 596q-34 0 -52 25t-22.5 60.5t-0.5 68.5h18q-3 -22 0.5 -45.5t17 -40t39.5 -16.5t39.5 16.5t17.5 40t1 45.5h18q4 -33 -1 -68.5t-22.5 -60.5t-52.5 -25zM127 128q0 -39 24 -66.5t64 -27.5q26 0 46.5 11.5t34 27.5t18.5 31v183l-95 -47q-23 -11 -44 -24.5t-34.5 -33.5
t-13.5 -54zM184 -10q-55 0 -86.5 33.5t-31.5 81.5q0 45 22.5 74.5t56.5 49.5t67 35l102 47v97q0 49 -31 77t-78 28q-43 0 -71 -21t-39 -41q23 -24 34.5 -38t11.5 -33q0 -17 -11.5 -32t-34.5 -15q-22 0 -34.5 15.5t-12.5 38.5t11.5 50.5t35 53.5t59.5 42.5t85 16.5
q53 0 84.5 -21t45 -53.5t13.5 -67.5v-324q0 -42 29 -42q19 0 30 15.5t15 30.5l18 -6q-3 -20 -14 -41.5t-29.5 -36t-45.5 -14.5q-30 0 -50.5 20t-20.5 62q-8 -18 -26 -37t-44 -32t-60 -13z" />
    <glyph glyph-name="uni1EAF" unicode="&#x1eaf;" 
d="M235 596q-34 0 -52 25t-22.5 60.5t-0.5 68.5h18q-3 -22 0.5 -45.5t17 -40t39.5 -16.5t39.5 16.5t17.5 40t1 45.5h18q4 -33 -1 -68.5t-22.5 -60.5t-52.5 -25zM221 720l10 180h70l-68 -180h-12zM127 128q0 -39 24 -66.5t64 -27.5q26 0 46.5 11.5t34 27.5t18.5 31v183
l-95 -47q-23 -11 -44 -24.5t-34.5 -33.5t-13.5 -54zM184 -10q-55 0 -86.5 33.5t-31.5 81.5q0 45 22.5 74.5t56.5 49.5t67 35l102 47v97q0 49 -31 77t-78 28q-43 0 -71 -21t-39 -41q23 -24 34.5 -38t11.5 -33q0 -17 -11.5 -32t-34.5 -15q-22 0 -34.5 15.5t-12.5 38.5
t11.5 50.5t35 53.5t59.5 42.5t85 16.5q53 0 84.5 -21t45 -53.5t13.5 -67.5v-324q0 -42 29 -42q19 0 30 15.5t15 30.5l18 -6q-3 -20 -14 -41.5t-29.5 -36t-45.5 -14.5q-30 0 -50.5 20t-20.5 62q-8 -18 -26 -37t-44 -32t-60 -13z" />
    <glyph glyph-name="uni1EB7" unicode="&#x1eb7;" 
d="M235 596q-34 0 -52 25t-22.5 60.5t-0.5 68.5h18q-3 -22 0.5 -45.5t17 -40t39.5 -16.5t39.5 16.5t17.5 40t1 45.5h18q4 -33 -1 -68.5t-22.5 -60.5t-52.5 -25zM245 -171q-21 0 -35.5 14.5t-14.5 35.5q0 20 14.5 34.5t35.5 14.5t35 -14.5t14 -34.5q0 -21 -14 -35.5
t-35 -14.5zM127 128q0 -39 24 -66.5t64 -27.5q26 0 46.5 11.5t34 27.5t18.5 31v183l-95 -47q-23 -11 -44 -24.5t-34.5 -33.5t-13.5 -54zM184 -10q-55 0 -86.5 33.5t-31.5 81.5q0 45 22.5 74.5t56.5 49.5t67 35l102 47v97q0 49 -31 77t-78 28q-43 0 -71 -21t-39 -41
q23 -24 34.5 -38t11.5 -33q0 -17 -11.5 -32t-34.5 -15q-22 0 -34.5 15.5t-12.5 38.5t11.5 50.5t35 53.5t59.5 42.5t85 16.5q53 0 84.5 -21t45 -53.5t13.5 -67.5v-324q0 -42 29 -42q19 0 30 15.5t15 30.5l18 -6q-3 -20 -14 -41.5t-29.5 -36t-45.5 -14.5q-30 0 -50.5 20
t-20.5 62q-8 -18 -26 -37t-44 -32t-60 -13z" />
    <glyph glyph-name="uni1EB1" unicode="&#x1eb1;" 
d="M235 596q-34 0 -52 25t-22.5 60.5t-0.5 68.5h18q-3 -22 0.5 -45.5t17 -40t39.5 -16.5t39.5 16.5t17.5 40t1 45.5h18q4 -33 -1 -68.5t-22.5 -60.5t-52.5 -25zM237 720l-68 180h70l10 -180h-12zM127 128q0 -39 24 -66.5t64 -27.5q26 0 46.5 11.5t34 27.5t18.5 31v183
l-95 -47q-23 -11 -44 -24.5t-34.5 -33.5t-13.5 -54zM184 -10q-55 0 -86.5 33.5t-31.5 81.5q0 45 22.5 74.5t56.5 49.5t67 35l102 47v97q0 49 -31 77t-78 28q-43 0 -71 -21t-39 -41q23 -24 34.5 -38t11.5 -33q0 -17 -11.5 -32t-34.5 -15q-22 0 -34.5 15.5t-12.5 38.5
t11.5 50.5t35 53.5t59.5 42.5t85 16.5q53 0 84.5 -21t45 -53.5t13.5 -67.5v-324q0 -42 29 -42q19 0 30 15.5t15 30.5l18 -6q-3 -20 -14 -41.5t-29.5 -36t-45.5 -14.5q-30 0 -50.5 20t-20.5 62q-8 -18 -26 -37t-44 -32t-60 -13z" />
    <glyph glyph-name="uni1EB3" unicode="&#x1eb3;" 
d="M235 596q-34 0 -52 25t-22.5 60.5t-0.5 68.5h18q-3 -22 0.5 -45.5t17 -40t39.5 -16.5t39.5 16.5t17.5 40t1 45.5h18q4 -33 -1 -68.5t-22.5 -60.5t-52.5 -25zM220 730v6q0 29 9 44t18 26.5t9 29.5q0 19 -10 27t-23 8t-21 -6.5t-10 -12.5l6 -3q8 -4 14 -9t6 -15
q0 -7 -5.5 -14.5t-18.5 -7.5t-21 9t-8 24q0 20 16.5 39t51.5 19q30 0 47.5 -15t17.5 -38q0 -18 -9 -30t-20 -22.5t-20 -22.5t-9 -30v-6h-20zM127 128q0 -39 24 -66.5t64 -27.5q26 0 46.5 11.5t34 27.5t18.5 31v183l-95 -47q-23 -11 -44 -24.5t-34.5 -33.5t-13.5 -54z
M184 -10q-55 0 -86.5 33.5t-31.5 81.5q0 45 22.5 74.5t56.5 49.5t67 35l102 47v97q0 49 -31 77t-78 28q-43 0 -71 -21t-39 -41q23 -24 34.5 -38t11.5 -33q0 -17 -11.5 -32t-34.5 -15q-22 0 -34.5 15.5t-12.5 38.5t11.5 50.5t35 53.5t59.5 42.5t85 16.5q53 0 84.5 -21
t45 -53.5t13.5 -67.5v-324q0 -42 29 -42q19 0 30 15.5t15 30.5l18 -6q-3 -20 -14 -41.5t-29.5 -36t-45.5 -14.5q-30 0 -50.5 20t-20.5 62q-8 -18 -26 -37t-44 -32t-60 -13z" />
    <glyph glyph-name="uni1EB5" unicode="&#x1eb5;" 
d="M231 596q-34 0 -52 25t-22.5 60.5t-0.5 68.5h18q-3 -22 0.5 -45.5t17 -40t39.5 -16.5t39.5 16.5t17.5 40t1 45.5h18q4 -33 -1 -68.5t-22.5 -60.5t-52.5 -25zM274 767q-21 0 -36 12.5t-27.5 25.5t-27.5 13q-13 0 -19 -12.5t-6 -33.5h-13q0 8 1 23t5.5 31t15 27.5
t29.5 11.5q21 0 36 -13t27.5 -25.5t27.5 -12.5q14 0 19.5 12.5t5.5 33.5h13q0 -7 -1 -22.5t-5.5 -31.5t-15 -27.5t-29.5 -11.5zM127 128q0 -39 24 -66.5t64 -27.5q26 0 46.5 11.5t34 27.5t18.5 31v183l-95 -47q-23 -11 -44 -24.5t-34.5 -33.5t-13.5 -54zM184 -10
q-55 0 -86.5 33.5t-31.5 81.5q0 45 22.5 74.5t56.5 49.5t67 35l102 47v97q0 49 -31 77t-78 28q-43 0 -71 -21t-39 -41q23 -24 34.5 -38t11.5 -33q0 -17 -11.5 -32t-34.5 -15q-22 0 -34.5 15.5t-12.5 38.5t11.5 50.5t35 53.5t59.5 42.5t85 16.5q53 0 84.5 -21t45 -53.5
t13.5 -67.5v-324q0 -42 29 -42q19 0 30 15.5t15 30.5l18 -6q-3 -20 -14 -41.5t-29.5 -36t-45.5 -14.5q-30 0 -50.5 20t-20.5 62q-8 -18 -26 -37t-44 -32t-60 -13z" />
    <glyph glyph-name="acircumflex" unicode="&#xe2;" 
d="M150 580l65 170h40l65 -170h-12l-73 106l-73 -106h-12zM127 128q0 -39 24 -66.5t64 -27.5q26 0 46.5 11.5t34 27.5t18.5 31v183l-95 -47q-23 -11 -44 -24.5t-34.5 -33.5t-13.5 -54zM184 -10q-55 0 -86.5 33.5t-31.5 81.5q0 45 22.5 74.5t56.5 49.5t67 35l102 47v97
q0 49 -31 77t-78 28q-43 0 -71 -21t-39 -41q23 -24 34.5 -38t11.5 -33q0 -17 -11.5 -32t-34.5 -15q-22 0 -34.5 15.5t-12.5 38.5t11.5 50.5t35 53.5t59.5 42.5t85 16.5q53 0 84.5 -21t45 -53.5t13.5 -67.5v-324q0 -42 29 -42q19 0 30 15.5t15 30.5l18 -6q-3 -20 -14 -41.5
t-29.5 -36t-45.5 -14.5q-30 0 -50.5 20t-20.5 62q-8 -18 -26 -37t-44 -32t-60 -13z" />
    <glyph glyph-name="uni1EA5" unicode="&#x1ea5;" 
d="M150 580l65 170h40l65 -170h-12l-73 106l-73 -106h-12zM306 701l10 180h70l-68 -180h-12zM127 128q0 -39 24 -66.5t64 -27.5q26 0 46.5 11.5t34 27.5t18.5 31v183l-95 -47q-23 -11 -44 -24.5t-34.5 -33.5t-13.5 -54zM184 -10q-55 0 -86.5 33.5t-31.5 81.5q0 45 22.5 74.5
t56.5 49.5t67 35l102 47v97q0 49 -31 77t-78 28q-43 0 -71 -21t-39 -41q23 -24 34.5 -38t11.5 -33q0 -17 -11.5 -32t-34.5 -15q-22 0 -34.5 15.5t-12.5 38.5t11.5 50.5t35 53.5t59.5 42.5t85 16.5q53 0 84.5 -21t45 -53.5t13.5 -67.5v-324q0 -42 29 -42q19 0 30 15.5
t15 30.5l18 -6q-3 -20 -14 -41.5t-29.5 -36t-45.5 -14.5q-30 0 -50.5 20t-20.5 62q-8 -18 -26 -37t-44 -32t-60 -13z" />
    <glyph glyph-name="uni1EAD" unicode="&#x1ead;" 
d="M150 580l65 170h40l65 -170h-12l-73 106l-73 -106h-12zM245 -171q-21 0 -35.5 14.5t-14.5 35.5q0 20 14.5 34.5t35.5 14.5t35 -14.5t14 -34.5q0 -21 -14 -35.5t-35 -14.5zM127 128q0 -39 24 -66.5t64 -27.5q26 0 46.5 11.5t34 27.5t18.5 31v183l-95 -47
q-23 -11 -44 -24.5t-34.5 -33.5t-13.5 -54zM184 -10q-55 0 -86.5 33.5t-31.5 81.5q0 45 22.5 74.5t56.5 49.5t67 35l102 47v97q0 49 -31 77t-78 28q-43 0 -71 -21t-39 -41q23 -24 34.5 -38t11.5 -33q0 -17 -11.5 -32t-34.5 -15q-22 0 -34.5 15.5t-12.5 38.5t11.5 50.5
t35 53.5t59.5 42.5t85 16.5q53 0 84.5 -21t45 -53.5t13.5 -67.5v-324q0 -42 29 -42q19 0 30 15.5t15 30.5l18 -6q-3 -20 -14 -41.5t-29.5 -36t-45.5 -14.5q-30 0 -50.5 20t-20.5 62q-8 -18 -26 -37t-44 -32t-60 -13z" />
    <glyph glyph-name="uni1EA7" unicode="&#x1ea7;" 
d="M150 580l65 170h40l65 -170h-12l-73 106l-73 -106h-12zM322 701l-68 180h70l10 -180h-12zM127 128q0 -39 24 -66.5t64 -27.5q26 0 46.5 11.5t34 27.5t18.5 31v183l-95 -47q-23 -11 -44 -24.5t-34.5 -33.5t-13.5 -54zM184 -10q-55 0 -86.5 33.5t-31.5 81.5q0 45 22.5 74.5
t56.5 49.5t67 35l102 47v97q0 49 -31 77t-78 28q-43 0 -71 -21t-39 -41q23 -24 34.5 -38t11.5 -33q0 -17 -11.5 -32t-34.5 -15q-22 0 -34.5 15.5t-12.5 38.5t11.5 50.5t35 53.5t59.5 42.5t85 16.5q53 0 84.5 -21t45 -53.5t13.5 -67.5v-324q0 -42 29 -42q19 0 30 15.5
t15 30.5l18 -6q-3 -20 -14 -41.5t-29.5 -36t-45.5 -14.5q-30 0 -50.5 20t-20.5 62q-8 -18 -26 -37t-44 -32t-60 -13z" />
    <glyph glyph-name="uni1EA9" unicode="&#x1ea9;" 
d="M150 580l65 170h40l65 -170h-12l-73 106l-73 -106h-12zM305 711v6q0 29 9 44t18 26.5t9 29.5q0 19 -10 27t-23 8t-21 -6.5t-10 -12.5l6 -3q8 -4 14 -9t6 -15q0 -7 -5.5 -14.5t-18.5 -7.5t-21 9t-8 24q0 20 16.5 39t51.5 19q30 0 47.5 -15t17.5 -38q0 -18 -9 -30
t-20 -22.5t-20 -22.5t-9 -30v-6h-20zM127 128q0 -39 24 -66.5t64 -27.5q26 0 46.5 11.5t34 27.5t18.5 31v183l-95 -47q-23 -11 -44 -24.5t-34.5 -33.5t-13.5 -54zM184 -10q-55 0 -86.5 33.5t-31.5 81.5q0 45 22.5 74.5t56.5 49.5t67 35l102 47v97q0 49 -31 77t-78 28
q-43 0 -71 -21t-39 -41q23 -24 34.5 -38t11.5 -33q0 -17 -11.5 -32t-34.5 -15q-22 0 -34.5 15.5t-12.5 38.5t11.5 50.5t35 53.5t59.5 42.5t85 16.5q53 0 84.5 -21t45 -53.5t13.5 -67.5v-324q0 -42 29 -42q19 0 30 15.5t15 30.5l18 -6q-3 -20 -14 -41.5t-29.5 -36
t-45.5 -14.5q-30 0 -50.5 20t-20.5 62q-8 -18 -26 -37t-44 -32t-60 -13z" />
    <glyph glyph-name="uni1EAB" unicode="&#x1eab;" 
d="M150 580l65 170h40l65 -170h-12l-73 106l-73 -106h-12zM274 771q-21 0 -35.5 12.5t-27.5 25.5t-28 13q-13 0 -19 -12.5t-6 -33.5h-13q0 8 1 23t5.5 31t15 27.5t29.5 11.5q21 0 35.5 -13t27.5 -25.5t28 -12.5q14 0 19.5 12.5t5.5 33.5h13q0 -7 -1 -22.5t-5.5 -31.5
t-15 -27.5t-29.5 -11.5zM127 128q0 -39 24 -66.5t64 -27.5q26 0 46.5 11.5t34 27.5t18.5 31v183l-95 -47q-23 -11 -44 -24.5t-34.5 -33.5t-13.5 -54zM184 -10q-55 0 -86.5 33.5t-31.5 81.5q0 45 22.5 74.5t56.5 49.5t67 35l102 47v97q0 49 -31 77t-78 28q-43 0 -71 -21
t-39 -41q23 -24 34.5 -38t11.5 -33q0 -17 -11.5 -32t-34.5 -15q-22 0 -34.5 15.5t-12.5 38.5t11.5 50.5t35 53.5t59.5 42.5t85 16.5q53 0 84.5 -21t45 -53.5t13.5 -67.5v-324q0 -42 29 -42q19 0 30 15.5t15 30.5l18 -6q-3 -20 -14 -41.5t-29.5 -36t-45.5 -14.5
q-30 0 -50.5 20t-20.5 62q-8 -18 -26 -37t-44 -32t-60 -13z" />
    <glyph glyph-name="adieresis" unicode="&#xe4;" 
d="M161 605q-21 0 -35.5 14.5t-14.5 35.5t14.5 35.5t35.5 14.5q22 0 36 -14.5t14 -35.5t-14 -35.5t-36 -14.5zM308 605q-22 0 -36 14.5t-14 35.5t14 35.5t36 14.5q21 0 35.5 -14.5t14.5 -35.5t-14.5 -35.5t-35.5 -14.5zM127 128q0 -39 24 -66.5t64 -27.5q26 0 46.5 11.5
t34 27.5t18.5 31v183l-95 -47q-23 -11 -44 -24.5t-34.5 -33.5t-13.5 -54zM184 -10q-55 0 -86.5 33.5t-31.5 81.5q0 45 22.5 74.5t56.5 49.5t67 35l102 47v97q0 49 -31 77t-78 28q-43 0 -71 -21t-39 -41q23 -24 34.5 -38t11.5 -33q0 -17 -11.5 -32t-34.5 -15
q-22 0 -34.5 15.5t-12.5 38.5t11.5 50.5t35 53.5t59.5 42.5t85 16.5q53 0 84.5 -21t45 -53.5t13.5 -67.5v-324q0 -42 29 -42q19 0 30 15.5t15 30.5l18 -6q-3 -20 -14 -41.5t-29.5 -36t-45.5 -14.5q-30 0 -50.5 20t-20.5 62q-8 -18 -26 -37t-44 -32t-60 -13z" />
    <glyph glyph-name="uni1EA1" unicode="&#x1ea1;" 
d="M245 -171q-21 0 -35.5 14.5t-14.5 35.5q0 20 14.5 34.5t35.5 14.5t35 -14.5t14 -34.5q0 -21 -14 -35.5t-35 -14.5zM127 128q0 -39 24 -66.5t64 -27.5q26 0 46.5 11.5t34 27.5t18.5 31v183l-95 -47q-23 -11 -44 -24.5t-34.5 -33.5t-13.5 -54zM184 -10q-55 0 -86.5 33.5
t-31.5 81.5q0 45 22.5 74.5t56.5 49.5t67 35l102 47v97q0 49 -31 77t-78 28q-43 0 -71 -21t-39 -41q23 -24 34.5 -38t11.5 -33q0 -17 -11.5 -32t-34.5 -15q-22 0 -34.5 15.5t-12.5 38.5t11.5 50.5t35 53.5t59.5 42.5t85 16.5q53 0 84.5 -21t45 -53.5t13.5 -67.5v-324
q0 -42 29 -42q19 0 30 15.5t15 30.5l18 -6q-3 -20 -14 -41.5t-29.5 -36t-45.5 -14.5q-30 0 -50.5 20t-20.5 62q-8 -18 -26 -37t-44 -32t-60 -13z" />
    <glyph glyph-name="agrave" unicode="&#xe0;" 
d="M237 580l-68 180h70l10 -180h-12zM127 128q0 -39 24 -66.5t64 -27.5q26 0 46.5 11.5t34 27.5t18.5 31v183l-95 -47q-23 -11 -44 -24.5t-34.5 -33.5t-13.5 -54zM184 -10q-55 0 -86.5 33.5t-31.5 81.5q0 45 22.5 74.5t56.5 49.5t67 35l102 47v97q0 49 -31 77t-78 28
q-43 0 -71 -21t-39 -41q23 -24 34.5 -38t11.5 -33q0 -17 -11.5 -32t-34.5 -15q-22 0 -34.5 15.5t-12.5 38.5t11.5 50.5t35 53.5t59.5 42.5t85 16.5q53 0 84.5 -21t45 -53.5t13.5 -67.5v-324q0 -42 29 -42q19 0 30 15.5t15 30.5l18 -6q-3 -20 -14 -41.5t-29.5 -36
t-45.5 -14.5q-30 0 -50.5 20t-20.5 62q-8 -18 -26 -37t-44 -32t-60 -13z" />
    <glyph glyph-name="uni1EA3" unicode="&#x1ea3;" 
d="M220 590v6q0 29 9 44t18 26.5t9 29.5q0 19 -10 27t-23 8t-21 -6.5t-10 -12.5l6 -3q8 -4 14 -9t6 -15q0 -7 -5.5 -14.5t-18.5 -7.5t-21 9t-8 24q0 20 16.5 39t51.5 19q30 0 47.5 -15t17.5 -38q0 -18 -9 -30t-20 -22.5t-20 -22.5t-9 -30v-6h-20zM127 128q0 -39 24 -66.5
t64 -27.5q26 0 46.5 11.5t34 27.5t18.5 31v183l-95 -47q-23 -11 -44 -24.5t-34.5 -33.5t-13.5 -54zM184 -10q-55 0 -86.5 33.5t-31.5 81.5q0 45 22.5 74.5t56.5 49.5t67 35l102 47v97q0 49 -31 77t-78 28q-43 0 -71 -21t-39 -41q23 -24 34.5 -38t11.5 -33q0 -17 -11.5 -32
t-34.5 -15q-22 0 -34.5 15.5t-12.5 38.5t11.5 50.5t35 53.5t59.5 42.5t85 16.5q53 0 84.5 -21t45 -53.5t13.5 -67.5v-324q0 -42 29 -42q19 0 30 15.5t15 30.5l18 -6q-3 -20 -14 -41.5t-29.5 -36t-45.5 -14.5q-30 0 -50.5 20t-20.5 62q-8 -18 -26 -37t-44 -32t-60 -13z" />
    <glyph glyph-name="amacron" unicode="&#x101;" 
d="M103 638v31h264v-31h-264zM127 128q0 -39 24 -66.5t64 -27.5q26 0 46.5 11.5t34 27.5t18.5 31v183l-95 -47q-23 -11 -44 -24.5t-34.5 -33.5t-13.5 -54zM184 -10q-55 0 -86.5 33.5t-31.5 81.5q0 45 22.5 74.5t56.5 49.5t67 35l102 47v97q0 49 -31 77t-78 28q-43 0 -71 -21
t-39 -41q23 -24 34.5 -38t11.5 -33q0 -17 -11.5 -32t-34.5 -15q-22 0 -34.5 15.5t-12.5 38.5t11.5 50.5t35 53.5t59.5 42.5t85 16.5q53 0 84.5 -21t45 -53.5t13.5 -67.5v-324q0 -42 29 -42q19 0 30 15.5t15 30.5l18 -6q-3 -20 -14 -41.5t-29.5 -36t-45.5 -14.5
q-30 0 -50.5 20t-20.5 62q-8 -18 -26 -37t-44 -32t-60 -13z" />
    <glyph glyph-name="aogonek" unicode="&#x105;" 
d="M362 -176q-26 0 -50.5 17t-24.5 60q0 39 23.5 64.5q20.9298 22.711 40.6697 32.3339q-8.99977 4.6832 -16.6697 12.1661q-20.5 20 -20.5 62q-8 -18 -26 -37t-44 -32t-60 -13q-55 0 -86.5 33.5t-31.5 81.5q0 45 22.5 74.5t56.5 49.5t67 35l102 47v97q0 49 -31 77t-78 28
q-43 0 -71 -21t-39 -41q23 -24 34.5 -38t11.5 -33q0 -17 -11.5 -32t-34.5 -15q-22 0 -34.5 15.5t-12.5 38.5t11.5 50.5t35 53.5t59.5 42.5t85 16.5q53 0 84.5 -21t45 -53.5t13.5 -67.5v-324q0 -42 29 -42q19 0 30 15.5t15 30.5l18 -6q-3 -20 -14 -41.5t-29.5 -36
t-45.5 -14.5q-8.16505 0 -15.6264 1.48151q-10.6868 -7.01347 -21.3736 -17.9815q-19 -19.5 -19 -50.5q0 -27 15 -40.5t37 -13.5q23 0 37.5 12t18.5 23l12 -6q-6 -24 -27.5 -49t-59.5 -25zM127 128q0 -39 24 -66.5t64 -27.5q26 0 46.5 11.5t34 27.5t18.5 31v183l-95 -47
q-23 -11 -44 -24.5t-34.5 -33.5t-13.5 -54z" />
    <glyph glyph-name="aring" unicode="&#xe5;" 
d="M235 611q26 0 40 16.5t14 39.5t-14 39.5t-40 16.5t-40 -16.5t-14 -39.5t14 -39.5t40 -16.5zM235 584q-38 0 -60.5 24.5t-22.5 58.5q0 35 22.5 59t60.5 24t60.5 -24t22.5 -59q0 -34 -22.5 -58.5t-60.5 -24.5zM127 128q0 -39 24 -66.5t64 -27.5q26 0 46.5 11.5t34 27.5
t18.5 31v183l-95 -47q-23 -11 -44 -24.5t-34.5 -33.5t-13.5 -54zM184 -10q-55 0 -86.5 33.5t-31.5 81.5q0 45 22.5 74.5t56.5 49.5t67 35l102 47v97q0 49 -31 77t-78 28q-43 0 -71 -21t-39 -41q23 -24 34.5 -38t11.5 -33q0 -17 -11.5 -32t-34.5 -15q-22 0 -34.5 15.5
t-12.5 38.5t11.5 50.5t35 53.5t59.5 42.5t85 16.5q53 0 84.5 -21t45 -53.5t13.5 -67.5v-324q0 -42 29 -42q19 0 30 15.5t15 30.5l18 -6q-3 -20 -14 -41.5t-29.5 -36t-45.5 -14.5q-30 0 -50.5 20t-20.5 62q-8 -18 -26 -37t-44 -32t-60 -13z" />
    <glyph glyph-name="atilde" unicode="&#xe3;" 
d="M274 607q-21 0 -36 12.5t-27.5 25.5t-27.5 13q-13 0 -19 -12.5t-6 -33.5h-13q0 8 1 23t5.5 31t15 27.5t29.5 11.5q21 0 35.5 -13t27.5 -25.5t28 -12.5q14 0 19.5 12.5t5.5 33.5h13q0 -7 -1 -22.5t-5.5 -31.5t-15 -27.5t-29.5 -11.5zM127 128q0 -39 24 -66.5t64 -27.5
q26 0 46.5 11.5t34 27.5t18.5 31v183l-95 -47q-23 -11 -44 -24.5t-34.5 -33.5t-13.5 -54zM184 -10q-55 0 -86.5 33.5t-31.5 81.5q0 45 22.5 74.5t56.5 49.5t67 35l102 47v97q0 49 -31 77t-78 28q-43 0 -71 -21t-39 -41q23 -24 34.5 -38t11.5 -33q0 -17 -11.5 -32t-34.5 -15
q-22 0 -34.5 15.5t-12.5 38.5t11.5 50.5t35 53.5t59.5 42.5t85 16.5q53 0 84.5 -21t45 -53.5t13.5 -67.5v-324q0 -42 29 -42q19 0 30 15.5t15 30.5l18 -6q-3 -20 -14 -41.5t-29.5 -36t-45.5 -14.5q-30 0 -50.5 20t-20.5 62q-8 -18 -26 -37t-44 -32t-60 -13z" />
    <glyph glyph-name="ae" unicode="&#xe6;" 
d="M146 34q33 0 50 21.5t20 41.5v157l-65 -28q-12 -5 -29.5 -17t-31 -34t-13.5 -58q0 -43 20.5 -63t48.5 -20zM284 350h81q16 0 29 3t21.5 17.5t8.5 48.5q0 44 -15 71.5t-46 27.5q-33 0 -55 -38t-24 -130zM124 -10q-49 0 -78.5 31.5t-29.5 81.5q0 44 20.5 72t50 45t54.5 27
l75 29v149q0 5 -1.5 19t-7.5 30t-20.5 27.5t-41.5 11.5q-29 0 -50 -14t-30 -28q23 -24 34.5 -38t11.5 -33q0 -17 -11.5 -32t-34.5 -15q-22 0 -34.5 15.5t-12.5 39.5q0 30 19 63t55 56t86 23q43 0 64.5 -17t31.5 -39q18 26 42 41t54 15q53 0 83.5 -47.5t30.5 -135.5
q0 -29 -2 -43h-198v-124q0 -21 1.5 -50.5t9 -58t25 -47.5t49.5 -19q18 0 36 10.5t30.5 41t12.5 91.5v25h32v-25q0 -85 -27.5 -131.5t-87.5 -46.5q-33 0 -57 14t-39.5 34t-21.5 38h-13q-4 -18 -17.5 -38t-36.5 -34t-56 -14z" />
    <glyph glyph-name="b" unicode="b" 
d="M267 22q47 0 75 34.5t28 102.5v237q0 61 -30 87t-68 26q-34 0 -56.5 -17.5t-34 -42.5t-14.5 -48v-242q0 -75 29 -106t71 -31zM99 0v688h-102v24l102 13l44 25h24v-285h3q8 19 25 38.5t42 33t57 13.5q50 0 84 -33.5t51.5 -92.5t17.5 -136q0 -84 -21 -151.5t-61 -107
t-98 -39.5q-36 0 -62 15t-41.5 37.5t-21.5 42.5h-10v-85h-33z" />
    <glyph glyph-name="c" unicode="c" 
d="M269 -10q-59 0 -104.5 34.5t-71 96t-25.5 141.5q0 83 27 148t75.5 102.5t112.5 37.5q44 0 80 -17.5t57 -47t21 -66.5q0 -35 -17.5 -51t-37.5 -16q-16 0 -29.5 10.5t-13.5 29.5q0 20 15 37.5t33 48.5q-10 13 -36.5 26.5t-64.5 13.5q-70 0 -109 -53t-39 -145v-100
q0 -63 20.5 -104.5t53.5 -62.5t71 -21q36 0 62 16t42 39.5t22 44.5l21 -7q-6 -29 -26.5 -60.5t-55 -53t-83.5 -21.5z" />
    <glyph glyph-name="cacute" unicode="&#x107;" 
d="M269 580l10 180h70l-68 -180h-12zM269 -10q-59 0 -104.5 34.5t-71 96t-25.5 141.5q0 83 27 148t75.5 102.5t112.5 37.5q44 0 80 -17.5t57 -47t21 -66.5q0 -35 -17.5 -51t-37.5 -16q-16 0 -29.5 10.5t-13.5 29.5q0 20 15 37.5t33 48.5q-10 13 -36.5 26.5t-64.5 13.5
q-70 0 -109 -53t-39 -145v-100q0 -63 20.5 -104.5t53.5 -62.5t71 -21q36 0 62 16t42 39.5t22 44.5l21 -7q-6 -29 -26.5 -60.5t-55 -53t-83.5 -21.5z" />
    <glyph glyph-name="ccaron" unicode="&#x10d;" 
d="M263 580l-65 170h12l73 -106l73 106h12l-65 -170h-40zM269 -10q-59 0 -104.5 34.5t-71 96t-25.5 141.5q0 83 27 148t75.5 102.5t112.5 37.5q44 0 80 -17.5t57 -47t21 -66.5q0 -35 -17.5 -51t-37.5 -16q-16 0 -29.5 10.5t-13.5 29.5q0 20 15 37.5t33 48.5
q-10 13 -36.5 26.5t-64.5 13.5q-70 0 -109 -53t-39 -145v-100q0 -63 20.5 -104.5t53.5 -62.5t71 -21q36 0 62 16t42 39.5t22 44.5l21 -7q-6 -29 -26.5 -60.5t-55 -53t-83.5 -21.5z" />
    <glyph glyph-name="ccedilla" unicode="&#xe7;" 
d="M284 -213q-44 0 -73.5 16.5t-29.5 43.5q0 12 7.5 23.5t25.5 11.5q23 0 31.5 -17t10.5 -30l4 -23q3 -1 10 -3t16 -2q29 0 42.5 16t13.5 35q0 27 -22 42.5t-59 15.5q-10 0 -20 -1.5t-19 -5.5l-9 5l40.2807 76.6316q-49.4373 4.03651 -88.7807 33.8684q-45.5 34.5 -71 96
t-25.5 141.5q0 83 27 148t75.5 102.5t112.5 37.5q44 0 80 -17.5t57 -47t21 -66.5q0 -35 -17.5 -51t-37.5 -16q-16 0 -29.5 10.5t-13.5 29.5q0 20 15 37.5t33 48.5q-10 13 -36.5 26.5t-64.5 13.5q-70 0 -109 -53t-39 -145v-100q0 -63 20.5 -104.5t53.5 -62.5t71 -21
q36 0 62 16t42 39.5t22 44.5l21 -7q-6 -29 -26.5 -60.5t-55 -53q-28.2568 -17.6093 -66.2405 -20.7959l-23.2595 -40.7041q45 4 71.5 -8t38 -32.5t11.5 -42.5q0 -17 -8.5 -36t-30 -31.5t-61.5 -12.5z" />
    <glyph glyph-name="cdotaccent" unicode="&#x10b;" 
d="M283 630q-23 0 -39 16t-16 39t16 39t39 16t39 -16t16 -39t-16 -39t-39 -16zM269 -10q-59 0 -104.5 34.5t-71 96t-25.5 141.5q0 83 27 148t75.5 102.5t112.5 37.5q44 0 80 -17.5t57 -47t21 -66.5q0 -35 -17.5 -51t-37.5 -16q-16 0 -29.5 10.5t-13.5 29.5q0 20 15 37.5
t33 48.5q-10 13 -36.5 26.5t-64.5 13.5q-70 0 -109 -53t-39 -145v-100q0 -63 20.5 -104.5t53.5 -62.5t71 -21q36 0 62 16t42 39.5t22 44.5l21 -7q-6 -29 -26.5 -60.5t-55 -53t-83.5 -21.5z" />
    <glyph glyph-name="d" unicode="d" 
d="M218 31q34 0 56.5 17.5t34.5 42.5t14 48v242q0 75 -29 106t-71 31q-47 0 -75 -34.5t-28 -102.5v-237q0 -61 30 -87t68 -26zM197 -10q-52 0 -86.5 33t-51 90t-16.5 128q0 86 21 156t62 111.5t102 41.5q35 0 58.5 -14.5t36.5 -31.5v184h-102v24l102 13l44 25h24v-698h71
v-24l-71 -13l-44 -25h-24v85h-3q-7 -18 -24 -38t-42 -33.5t-57 -13.5z" />
    <glyph glyph-name="eth" unicode="&#xf0;" 
d="M234 25q57 0 92 37.5t35 107.5v155q0 71 -36.5 109.5t-94.5 38.5q-54 0 -87.5 -38.5t-33.5 -109.5v-155q0 -70 34 -107.5t91 -37.5zM235 -10q-53 0 -97.5 29t-70.5 86t-26 140q0 73 22 131.5t64 93.5t102 35q50 0 82.5 -23.5t50 -57.5t21.5 -66h8v9q0 80 -27.5 145
t-70.5 113l-148 -47v33l122 39q-32 29 -68.5 48.5t-73.5 29.5l6 22q43 -8 89.5 -29t89.5 -58l125 40v-33l-99 -31q53 -54 88 -135.5t35 -192.5q0 -88 -20 -149.5t-52.5 -99t-72.5 -55t-79 -17.5z" />
    <glyph glyph-name="dcaron" unicode="&#x10f;" 
d="M442 580l10 180h70l-68 -180h-12zM218 31q34 0 56.5 17.5t34.5 42.5t14 48v242q0 75 -29 106t-71 31q-47 0 -75 -34.5t-28 -102.5v-237q0 -61 30 -87t68 -26zM197 -10q-52 0 -86.5 33t-51 90t-16.5 128q0 86 21 156t62 111.5t102 41.5q35 0 58.5 -14.5t36.5 -31.5v184
h-102v24l102 13l44 25h24v-698h71v-24l-71 -13l-44 -25h-24v85h-3q-7 -18 -24 -38t-42 -33.5t-57 -13.5z" />
    <glyph glyph-name="dcroat" unicode="&#x111;" 
d="M218 31q34 0 56.5 17.5t34.5 42.5t14 48v242q0 75 -29 106t-71 31q-47 0 -75 -34.5t-28 -102.5v-237q0 -61 30 -87t68 -26zM197 -10q-52 0 -86.5 33t-51 90t-16.5 128q0 86 21 156t62 111.5t102 41.5q35 0 58.5 -14.5t36.5 -31.5v94h-145v29h145v51h-62v24l62 13l44 25
h24v-113h79v-29h-79v-546h71v-24l-71 -13l-44 -25h-24v85h-3q-7 -18 -24 -38t-42 -33.5t-57 -13.5z" />
    <glyph glyph-name="e" unicode="e" 
d="M270 518q-42 0 -71.5 -24.5t-45.5 -67t-18 -96.5h200q11 0 21.5 2.5t18 15t7.5 42.5q0 62 -32 95t-80 33zM274 -10q-61 0 -109.5 34.5t-76 96.5t-27.5 144q0 54 12.5 104.5t39 91.5t66 65t93.5 24q79 0 127.5 -54t48.5 -151q0 -13 -0.5 -24t-1.5 -17h-311v-84
q0 -63 22 -104.5t58 -62.5t76 -21q38 0 64.5 16t43 39.5t22.5 44.5l21 -7q-6 -29 -27 -60.5t-56 -53t-85 -21.5z" />
    <glyph glyph-name="eacute" unicode="&#xe9;" 
d="M255 580l10 180h70l-68 -180h-12zM270 518q-42 0 -71.5 -24.5t-45.5 -67t-18 -96.5h200q11 0 21.5 2.5t18 15t7.5 42.5q0 62 -32 95t-80 33zM274 -10q-61 0 -109.5 34.5t-76 96.5t-27.5 144q0 54 12.5 104.5t39 91.5t66 65t93.5 24q79 0 127.5 -54t48.5 -151
q0 -13 -0.5 -24t-1.5 -17h-311v-84q0 -63 22 -104.5t58 -62.5t76 -21q38 0 64.5 16t43 39.5t22.5 44.5l21 -7q-6 -29 -27 -60.5t-56 -53t-85 -21.5z" />
    <glyph glyph-name="ecaron" unicode="&#x11b;" 
d="M249 580l-65 170h12l73 -106l73 106h12l-65 -170h-40zM270 518q-42 0 -71.5 -24.5t-45.5 -67t-18 -96.5h200q11 0 21.5 2.5t18 15t7.5 42.5q0 62 -32 95t-80 33zM274 -10q-61 0 -109.5 34.5t-76 96.5t-27.5 144q0 54 12.5 104.5t39 91.5t66 65t93.5 24q79 0 127.5 -54
t48.5 -151q0 -13 -0.5 -24t-1.5 -17h-311v-84q0 -63 22 -104.5t58 -62.5t76 -21q38 0 64.5 16t43 39.5t22.5 44.5l21 -7q-6 -29 -27 -60.5t-56 -53t-85 -21.5z" />
    <glyph glyph-name="ecircumflex" unicode="&#xea;" 
d="M184 580l65 170h40l65 -170h-12l-73 106l-73 -106h-12zM270 518q-42 0 -71.5 -24.5t-45.5 -67t-18 -96.5h200q11 0 21.5 2.5t18 15t7.5 42.5q0 62 -32 95t-80 33zM274 -10q-61 0 -109.5 34.5t-76 96.5t-27.5 144q0 54 12.5 104.5t39 91.5t66 65t93.5 24q79 0 127.5 -54
t48.5 -151q0 -13 -0.5 -24t-1.5 -17h-311v-84q0 -63 22 -104.5t58 -62.5t76 -21q38 0 64.5 16t43 39.5t22.5 44.5l21 -7q-6 -29 -27 -60.5t-56 -53t-85 -21.5z" />
    <glyph glyph-name="uni1EBF" unicode="&#x1ebf;" 
d="M184 580l65 170h40l65 -170h-12l-73 106l-73 -106h-12zM340 701l10 180h70l-68 -180h-12zM270 518q-42 0 -71.5 -24.5t-45.5 -67t-18 -96.5h200q11 0 21.5 2.5t18 15t7.5 42.5q0 62 -32 95t-80 33zM274 -10q-61 0 -109.5 34.5t-76 96.5t-27.5 144q0 54 12.5 104.5
t39 91.5t66 65t93.5 24q79 0 127.5 -54t48.5 -151q0 -13 -0.5 -24t-1.5 -17h-311v-84q0 -63 22 -104.5t58 -62.5t76 -21q38 0 64.5 16t43 39.5t22.5 44.5l21 -7q-6 -29 -27 -60.5t-56 -53t-85 -21.5z" />
    <glyph glyph-name="uni1EC7" unicode="&#x1ec7;" 
d="M184 580l65 170h40l65 -170h-12l-73 106l-73 -106h-12zM250 -171q-21 0 -35.5 14.5t-14.5 35.5q0 20 14.5 34.5t35.5 14.5t35 -14.5t14 -34.5q0 -21 -14 -35.5t-35 -14.5zM270 518q-42 0 -71.5 -24.5t-45.5 -67t-18 -96.5h200q11 0 21.5 2.5t18 15t7.5 42.5q0 62 -32 95
t-80 33zM274 -10q-61 0 -109.5 34.5t-76 96.5t-27.5 144q0 54 12.5 104.5t39 91.5t66 65t93.5 24q79 0 127.5 -54t48.5 -151q0 -13 -0.5 -24t-1.5 -17h-311v-84q0 -63 22 -104.5t58 -62.5t76 -21q38 0 64.5 16t43 39.5t22.5 44.5l21 -7q-6 -29 -27 -60.5t-56 -53t-85 -21.5z
" />
    <glyph glyph-name="uni1EC1" unicode="&#x1ec1;" 
d="M184 580l65 170h40l65 -170h-12l-73 106l-73 -106h-12zM356 701l-68 180h70l10 -180h-12zM270 518q-42 0 -71.5 -24.5t-45.5 -67t-18 -96.5h200q11 0 21.5 2.5t18 15t7.5 42.5q0 62 -32 95t-80 33zM274 -10q-61 0 -109.5 34.5t-76 96.5t-27.5 144q0 54 12.5 104.5
t39 91.5t66 65t93.5 24q79 0 127.5 -54t48.5 -151q0 -13 -0.5 -24t-1.5 -17h-311v-84q0 -63 22 -104.5t58 -62.5t76 -21q38 0 64.5 16t43 39.5t22.5 44.5l21 -7q-6 -29 -27 -60.5t-56 -53t-85 -21.5z" />
    <glyph glyph-name="uni1EC3" unicode="&#x1ec3;" 
d="M184 580l65 170h40l65 -170h-12l-73 106l-73 -106h-12zM339 711v6q0 29 9 44t18 26.5t9 29.5q0 19 -10 27t-23 8t-21 -6.5t-10 -12.5l6 -3q8 -4 14 -9t6 -15q0 -7 -5.5 -14.5t-18.5 -7.5t-21 9t-8 24q0 20 16.5 39t51.5 19q30 0 47.5 -15t17.5 -38q0 -18 -9 -30
t-20 -22.5t-20 -22.5t-9 -30v-6h-20zM270 518q-42 0 -71.5 -24.5t-45.5 -67t-18 -96.5h200q11 0 21.5 2.5t18 15t7.5 42.5q0 62 -32 95t-80 33zM274 -10q-61 0 -109.5 34.5t-76 96.5t-27.5 144q0 54 12.5 104.5t39 91.5t66 65t93.5 24q79 0 127.5 -54t48.5 -151
q0 -13 -0.5 -24t-1.5 -17h-311v-84q0 -63 22 -104.5t58 -62.5t76 -21q38 0 64.5 16t43 39.5t22.5 44.5l21 -7q-6 -29 -27 -60.5t-56 -53t-85 -21.5z" />
    <glyph glyph-name="uni1EC5" unicode="&#x1ec5;" 
d="M184 580l65 170h40l65 -170h-12l-73 106l-73 -106h-12zM308 771q-21 0 -35.5 12.5t-27.5 25.5t-28 13q-13 0 -19 -12.5t-6 -33.5h-13q0 8 1 23t5.5 31t15 27.5t29.5 11.5q21 0 35.5 -13t27.5 -25.5t28 -12.5q14 0 19.5 12.5t5.5 33.5h13q0 -7 -1 -22.5t-5.5 -31.5
t-15 -27.5t-29.5 -11.5zM270 518q-42 0 -71.5 -24.5t-45.5 -67t-18 -96.5h200q11 0 21.5 2.5t18 15t7.5 42.5q0 62 -32 95t-80 33zM274 -10q-61 0 -109.5 34.5t-76 96.5t-27.5 144q0 54 12.5 104.5t39 91.5t66 65t93.5 24q79 0 127.5 -54t48.5 -151q0 -13 -0.5 -24t-1.5 -17
h-311v-84q0 -63 22 -104.5t58 -62.5t76 -21q38 0 64.5 16t43 39.5t22.5 44.5l21 -7q-6 -29 -27 -60.5t-56 -53t-85 -21.5z" />
    <glyph glyph-name="edieresis" unicode="&#xeb;" 
d="M195 605q-21 0 -35.5 14.5t-14.5 35.5t14.5 35.5t35.5 14.5q22 0 36 -14.5t14 -35.5t-14 -35.5t-36 -14.5zM342 605q-22 0 -36 14.5t-14 35.5t14 35.5t36 14.5q21 0 35.5 -14.5t14.5 -35.5t-14.5 -35.5t-35.5 -14.5zM270 518q-42 0 -71.5 -24.5t-45.5 -67t-18 -96.5h200
q11 0 21.5 2.5t18 15t7.5 42.5q0 62 -32 95t-80 33zM274 -10q-61 0 -109.5 34.5t-76 96.5t-27.5 144q0 54 12.5 104.5t39 91.5t66 65t93.5 24q79 0 127.5 -54t48.5 -151q0 -13 -0.5 -24t-1.5 -17h-311v-84q0 -63 22 -104.5t58 -62.5t76 -21q38 0 64.5 16t43 39.5t22.5 44.5
l21 -7q-6 -29 -27 -60.5t-56 -53t-85 -21.5z" />
    <glyph glyph-name="edotaccent" unicode="&#x117;" 
d="M269 630q-23 0 -39 16t-16 39t16 39t39 16t39 -16t16 -39t-16 -39t-39 -16zM270 518q-42 0 -71.5 -24.5t-45.5 -67t-18 -96.5h200q11 0 21.5 2.5t18 15t7.5 42.5q0 62 -32 95t-80 33zM274 -10q-61 0 -109.5 34.5t-76 96.5t-27.5 144q0 54 12.5 104.5t39 91.5t66 65
t93.5 24q79 0 127.5 -54t48.5 -151q0 -13 -0.5 -24t-1.5 -17h-311v-84q0 -63 22 -104.5t58 -62.5t76 -21q38 0 64.5 16t43 39.5t22.5 44.5l21 -7q-6 -29 -27 -60.5t-56 -53t-85 -21.5z" />
    <glyph glyph-name="uni1EB9" unicode="&#x1eb9;" 
d="M250 -171q-21 0 -35.5 14.5t-14.5 35.5q0 20 14.5 34.5t35.5 14.5t35 -14.5t14 -34.5q0 -21 -14 -35.5t-35 -14.5zM270 518q-42 0 -71.5 -24.5t-45.5 -67t-18 -96.5h200q11 0 21.5 2.5t18 15t7.5 42.5q0 62 -32 95t-80 33zM274 -10q-61 0 -109.5 34.5t-76 96.5t-27.5 144
q0 54 12.5 104.5t39 91.5t66 65t93.5 24q79 0 127.5 -54t48.5 -151q0 -13 -0.5 -24t-1.5 -17h-311v-84q0 -63 22 -104.5t58 -62.5t76 -21q38 0 64.5 16t43 39.5t22.5 44.5l21 -7q-6 -29 -27 -60.5t-56 -53t-85 -21.5z" />
    <glyph glyph-name="egrave" unicode="&#xe8;" 
d="M271 580l-68 180h70l10 -180h-12zM270 518q-42 0 -71.5 -24.5t-45.5 -67t-18 -96.5h200q11 0 21.5 2.5t18 15t7.5 42.5q0 62 -32 95t-80 33zM274 -10q-61 0 -109.5 34.5t-76 96.5t-27.5 144q0 54 12.5 104.5t39 91.5t66 65t93.5 24q79 0 127.5 -54t48.5 -151
q0 -13 -0.5 -24t-1.5 -17h-311v-84q0 -63 22 -104.5t58 -62.5t76 -21q38 0 64.5 16t43 39.5t22.5 44.5l21 -7q-6 -29 -27 -60.5t-56 -53t-85 -21.5z" />
    <glyph glyph-name="uni1EBB" unicode="&#x1ebb;" 
d="M254 590v6q0 29 9 44t18 26.5t9 29.5q0 19 -10 27t-23 8t-21 -6.5t-10 -12.5l6 -3q8 -4 14 -9t6 -15q0 -7 -5.5 -14.5t-18.5 -7.5t-21 9t-8 24q0 20 16.5 39t51.5 19q30 0 47.5 -15t17.5 -38q0 -18 -9 -30t-20 -22.5t-20 -22.5t-9 -30v-6h-20zM270 518q-42 0 -71.5 -24.5
t-45.5 -67t-18 -96.5h200q11 0 21.5 2.5t18 15t7.5 42.5q0 62 -32 95t-80 33zM274 -10q-61 0 -109.5 34.5t-76 96.5t-27.5 144q0 54 12.5 104.5t39 91.5t66 65t93.5 24q79 0 127.5 -54t48.5 -151q0 -13 -0.5 -24t-1.5 -17h-311v-84q0 -63 22 -104.5t58 -62.5t76 -21
q38 0 64.5 16t43 39.5t22.5 44.5l21 -7q-6 -29 -27 -60.5t-56 -53t-85 -21.5z" />
    <glyph glyph-name="emacron" unicode="&#x113;" 
d="M137 638v31h264v-31h-264zM270 518q-42 0 -71.5 -24.5t-45.5 -67t-18 -96.5h200q11 0 21.5 2.5t18 15t7.5 42.5q0 62 -32 95t-80 33zM274 -10q-61 0 -109.5 34.5t-76 96.5t-27.5 144q0 54 12.5 104.5t39 91.5t66 65t93.5 24q79 0 127.5 -54t48.5 -151q0 -13 -0.5 -24
t-1.5 -17h-311v-84q0 -63 22 -104.5t58 -62.5t76 -21q38 0 64.5 16t43 39.5t22.5 44.5l21 -7q-6 -29 -27 -60.5t-56 -53t-85 -21.5z" />
    <glyph glyph-name="eogonek" unicode="&#x119;" 
d="M307 -176q-26 0 -50.5 17t-24.5 60q0 39 23.5 64.5q14.1205 15.3222 27.6994 24.6872q-4.53439 -0.187152 -9.19935 -0.187152q-61 0 -109.5 34.5t-76 96.5t-27.5 144q0 54 12.5 104.5t39 91.5t66 65t93.5 24q79 0 127.5 -54t48.5 -151q0 -13 -0.5 -24t-1.5 -17h-311v-84
q0 -63 22 -104.5t58 -62.5t76 -21q38 0 64.5 16t43 39.5t22.5 44.5l21 -7q-6 -29 -27 -60.5t-56 -53q-17.0175 -10.4536 -37.5811 -15.8245q-14.2094 -7.59209 -28.4189 -22.1755q-19 -19.5 -19 -50.5q0 -27 15 -40.5t37 -13.5q23 0 37.5 12t18.5 23l12 -6q-6 -24 -27.5 -49
t-59.5 -25zM270 518q-42 0 -71.5 -24.5t-45.5 -67t-18 -96.5h200q11 0 21.5 2.5t18 15t7.5 42.5q0 62 -32 95t-80 33z" />
    <glyph glyph-name="uni1EBD" unicode="&#x1ebd;" 
d="M308 607q-21 0 -36 12.5t-27.5 25.5t-27.5 13q-13 0 -19 -12.5t-6 -33.5h-13q0 8 1 23t5.5 31t15 27.5t29.5 11.5q21 0 35.5 -13t27.5 -25.5t28 -12.5q14 0 19.5 12.5t5.5 33.5h13q0 -7 -1 -22.5t-5.5 -31.5t-15 -27.5t-29.5 -11.5zM270 518q-42 0 -71.5 -24.5t-45.5 -67
t-18 -96.5h200q11 0 21.5 2.5t18 15t7.5 42.5q0 62 -32 95t-80 33zM274 -10q-61 0 -109.5 34.5t-76 96.5t-27.5 144q0 54 12.5 104.5t39 91.5t66 65t93.5 24q79 0 127.5 -54t48.5 -151q0 -13 -0.5 -24t-1.5 -17h-311v-84q0 -63 22 -104.5t58 -62.5t76 -21q38 0 64.5 16
t43 39.5t22.5 44.5l21 -7q-6 -29 -27 -60.5t-56 -53t-85 -21.5z" />
    <glyph glyph-name="f" unicode="f" 
d="M182 34v474h-114v22l114 10v25q0 60 23 107t69.5 74t117.5 27q57 0 95 -21t38 -58q0 -19 -10 -31t-30 -12q-28 0 -42.5 18t-20.5 28l-28 50q-63 5 -103.5 -35.5t-40.5 -126.5v-45h234v-32h-234v-474h189v-34h-374v34h117z" />
    <glyph glyph-name="g" unicode="g" 
d="M243 -154q68 0 113 30.5t45 83.5q0 37 -21 57t-50 28.5t-53 9.5l-96 7q-11 -3 -32.5 -13.5t-39 -32t-17.5 -58.5q0 -52 42 -82t109 -30zM251 244q53 0 76 34t23 84v42q0 50 -23 84t-76 34t-76 -34t-23 -84v-42q0 -50 23 -84t76 -34zM233 -190q-92 0 -144 38t-52 96
q0 35 16.5 59t41 38.5t46.5 19.5v4q-50 5 -75 28t-25 57q0 31 15.5 51.5t35.5 33.5t33 21l7 4q-25 25 -36.5 57.5t-11.5 65.5q0 41 17.5 79t54.5 63t95 25q35 0 63 -10h151v-31h-98q26 -24 38.5 -58t12.5 -68q0 -40 -17.5 -78.5t-54 -63.5t-95.5 -25q-32 0 -58 8t-45 22
l-14 -8q-16 -10 -32 -23.5t-16 -34.5t16 -31.5t36.5 -14t33.5 -4.5l128 -10q65 -5 110 -42.5t45 -102.5q0 -50 -28 -87.5t-78 -57.5t-116 -20z" />
    <glyph glyph-name="gbreve" unicode="&#x11f;" 
d="M214 596q-34 0 -52 25t-22.5 60.5t-0.5 68.5h18q-3 -22 0.5 -45.5t17 -40t39.5 -16.5t39.5 16.5t17.5 40t1 45.5h18q4 -33 -1 -68.5t-22.5 -60.5t-52.5 -25zM243 -154q68 0 113 30.5t45 83.5q0 37 -21 57t-50 28.5t-53 9.5l-96 7q-11 -3 -32.5 -13.5t-39 -32t-17.5 -58.5
q0 -52 42 -82t109 -30zM251 244q53 0 76 34t23 84v42q0 50 -23 84t-76 34t-76 -34t-23 -84v-42q0 -50 23 -84t76 -34zM233 -190q-92 0 -144 38t-52 96q0 35 16.5 59t41 38.5t46.5 19.5v4q-50 5 -75 28t-25 57q0 31 15.5 51.5t35.5 33.5t33 21l7 4q-25 25 -36.5 57.5
t-11.5 65.5q0 41 17.5 79t54.5 63t95 25q35 0 63 -10h151v-31h-98q26 -24 38.5 -58t12.5 -68q0 -40 -17.5 -78.5t-54 -63.5t-95.5 -25q-32 0 -58 8t-45 22l-14 -8q-16 -10 -32 -23.5t-16 -34.5t16 -31.5t36.5 -14t33.5 -4.5l128 -10q65 -5 110 -42.5t45 -102.5
q0 -50 -28 -87.5t-78 -57.5t-116 -20z" />
    <glyph glyph-name="uni0123" unicode="&#x123;" 
d="M221 580q-20 0 -34.5 13.5t-14.5 41.5q0 27 14.5 52t36 44t40.5 30l11 -16q-19 -12 -38 -31t-19 -35q22 0 38 -11.5t16 -36.5q0 -23 -14.5 -37t-35.5 -14zM243 -154q68 0 113 30.5t45 83.5q0 37 -21 57t-50 28.5t-53 9.5l-96 7q-11 -3 -32.5 -13.5t-39 -32t-17.5 -58.5
q0 -52 42 -82t109 -30zM251 244q53 0 76 34t23 84v42q0 50 -23 84t-76 34t-76 -34t-23 -84v-42q0 -50 23 -84t76 -34zM233 -190q-92 0 -144 38t-52 96q0 35 16.5 59t41 38.5t46.5 19.5v4q-50 5 -75 28t-25 57q0 31 15.5 51.5t35.5 33.5t33 21l7 4q-25 25 -36.5 57.5
t-11.5 65.5q0 41 17.5 79t54.5 63t95 25q35 0 63 -10h151v-31h-98q26 -24 38.5 -58t12.5 -68q0 -40 -17.5 -78.5t-54 -63.5t-95.5 -25q-32 0 -58 8t-45 22l-14 -8q-16 -10 -32 -23.5t-16 -34.5t16 -31.5t36.5 -14t33.5 -4.5l128 -10q65 -5 110 -42.5t45 -102.5
q0 -50 -28 -87.5t-78 -57.5t-116 -20z" />
    <glyph glyph-name="gdotaccent" unicode="&#x121;" 
d="M243 630q-23 0 -39 16t-16 39t16 39t39 16t39 -16t16 -39t-16 -39t-39 -16zM243 -154q68 0 113 30.5t45 83.5q0 37 -21 57t-50 28.5t-53 9.5l-96 7q-11 -3 -32.5 -13.5t-39 -32t-17.5 -58.5q0 -52 42 -82t109 -30zM251 244q53 0 76 34t23 84v42q0 50 -23 84t-76 34
t-76 -34t-23 -84v-42q0 -50 23 -84t76 -34zM233 -190q-92 0 -144 38t-52 96q0 35 16.5 59t41 38.5t46.5 19.5v4q-50 5 -75 28t-25 57q0 31 15.5 51.5t35.5 33.5t33 21l7 4q-25 25 -36.5 57.5t-11.5 65.5q0 41 17.5 79t54.5 63t95 25q35 0 63 -10h151v-31h-98
q26 -24 38.5 -58t12.5 -68q0 -40 -17.5 -78.5t-54 -63.5t-95.5 -25q-32 0 -58 8t-45 22l-14 -8q-16 -10 -32 -23.5t-16 -34.5t16 -31.5t36.5 -14t33.5 -4.5l128 -10q65 -5 110 -42.5t45 -102.5q0 -50 -28 -87.5t-78 -57.5t-116 -20z" />
    <glyph glyph-name="h" unicode="h" 
d="M14 0v34h84v654h-102v24l102 13l44 25h24v-281h3q8 18 25 36.5t43 31.5t60 13q49 0 77.5 -30.5t28.5 -89.5v-396h84v-34h-152v424q0 80 -70 80q-28 0 -48.5 -13t-33 -32.5t-17.5 -37.5v-387h59v-1h40v-33h-251z" />
    <glyph glyph-name="hbar" unicode="&#x127;" 
d="M14 0v34h84v565h-85v29h85v60h-102v24l102 13l44 25h24v-122h139v-29h-139v-130h3q8 18 25 36.5t43 31.5t60 13q49 0 77.5 -30.5t28.5 -89.5v-396h84v-34h-152v424q0 80 -70 80q-28 0 -48.5 -13t-33 -32.5t-17.5 -37.5v-387h59v-1h40v-33h-251z" />
    <glyph glyph-name="i" unicode="i" 
d="M250 630q-23 0 -39 16t-16 39t16 39t39 16t39 -16t16 -39t-16 -39t-39 -16zM27 0v34h189v454h-142v24l142 13l44 25h24v-516h189v-34h-446z" />
    <glyph glyph-name="dotlessi" unicode="&#x131;" 
d="M20 0v34h189v454h-142v24l142 13l44 25h24v-516h189v-34h-446z" />
    <glyph glyph-name="iacute" unicode="&#xed;" 
d="M226 580l10 180h70l-68 -180h-12zM20 0v34h189v454h-142v24l142 13l44 25h24v-516h189v-34h-446z" />
    <glyph glyph-name="icircumflex" unicode="&#xee;" 
d="M155 580l65 170h40l65 -170h-12l-73 106l-73 -106h-12zM20 0v34h189v454h-142v24l142 13l44 25h24v-516h189v-34h-446z" />
    <glyph glyph-name="idieresis" unicode="&#xef;" 
d="M166 605q-21 0 -35.5 14.5t-14.5 35.5t14.5 35.5t35.5 14.5q22 0 36 -14.5t14 -35.5t-14 -35.5t-36 -14.5zM313 605q-22 0 -36 14.5t-14 35.5t14 35.5t36 14.5q21 0 35.5 -14.5t14.5 -35.5t-14.5 -35.5t-35.5 -14.5zM20 0v34h189v454h-142v24l142 13l44 25h24v-516h189
v-34h-446z" />
    <glyph glyph-name="i.loclTRK" 
d="M240 630q-23 0 -39 16t-16 39t16 39t39 16t39 -16t16 -39t-16 -39t-39 -16zM20 0v34h189v454h-142v24l142 13l44 25h24v-516h189v-34h-446z" />
    <glyph glyph-name="uni1ECB" unicode="&#x1ecb;" 
d="M250 -171q-21 0 -35.5 14.5t-14.5 35.5q0 20 14.5 34.5t35.5 14.5t35 -14.5t14 -34.5q0 -21 -14 -35.5t-35 -14.5zM250 630q-23 0 -39 16t-16 39t16 39t39 16t39 -16t16 -39t-16 -39t-39 -16zM27 0v34h189v454h-142v24l142 13l44 25h24v-516h189v-34h-446z" />
    <glyph glyph-name="igrave" unicode="&#xec;" 
d="M242 580l-68 180h70l10 -180h-12zM20 0v34h189v454h-142v24l142 13l44 25h24v-516h189v-34h-446z" />
    <glyph glyph-name="uni1EC9" unicode="&#x1ec9;" 
d="M225 590v6q0 29 9 44t18 26.5t9 29.5q0 19 -10 27t-23 8t-21 -6.5t-10 -12.5l6 -3q8 -4 14 -9t6 -15q0 -7 -5.5 -14.5t-18.5 -7.5t-21 9t-8 24q0 20 16.5 39t51.5 19q30 0 47.5 -15t17.5 -38q0 -18 -9 -30t-20 -22.5t-20 -22.5t-9 -30v-6h-20zM20 0v34h189v454h-142v24
l142 13l44 25h24v-516h189v-34h-446z" />
    <glyph glyph-name="imacron" unicode="&#x12b;" 
d="M108 638v31h264v-31h-264zM20 0v34h189v454h-142v24l142 13l44 25h24v-516h189v-34h-446z" />
    <glyph glyph-name="iogonek" unicode="&#x12f;" 
d="M234 -176q-26 0 -50.5 17t-24.5 60q0 39 23.5 64.5t45.5 34.5h-208v34h189v454h-142v24l142 13l44 25h24v-516h189v-34h-208q-19 -7 -38 -26.5t-19 -50.5q0 -27 15 -40.5t37 -13.5q23 0 37.5 12t18.5 23l12 -6q-6 -24 -27.5 -49t-59.5 -25zM240 630q-23 0 -39 16t-16 39
t16 39t39 16t39 -16t16 -39t-16 -39t-39 -16z" />
    <glyph glyph-name="itilde" unicode="&#x129;" 
d="M279 607q-21 0 -36 12.5t-27.5 25.5t-27.5 13q-13 0 -19 -12.5t-6 -33.5h-13q0 8 1 23t5.5 31t15 27.5t29.5 11.5q21 0 35.5 -13t27.5 -25.5t28 -12.5q14 0 19.5 12.5t5.5 33.5h13q0 -7 -1 -22.5t-5.5 -31.5t-15 -27.5t-29.5 -11.5zM20 0v34h189v454h-142v24l142 13
l44 25h24v-516h189v-34h-446z" />
    <glyph glyph-name="j" unicode="j" 
d="M359 550h24v-550h-1q-5 -83 -56.5 -136.5t-148.5 -53.5q-60 0 -93.5 21t-33.5 55q0 22 12.5 34t33.5 12q24 0 37 -14t20 -32l18 -50q63 -5 103.5 35.5t40.5 126.5v490h-142v24l142 13zM349 630q-23 0 -39 16t-16 39t16 39t39 16t39 -16t16 -39t-16 -39t-39 -16z" />
    <glyph glyph-name="k" unicode="k" 
d="M-7 0v34h99v654h-102v24l102 13l44 25h24v-470l193 226h-53v34h182v-34h-90l-149 -174l200 -298h71v-34h-207v34h62l-166.88 249.821l-42.1198 -48.8207v-201h79v-34h-246z" />
    <glyph glyph-name="uni0137" unicode="&#x137;" 
d="M210 -207l-11 16q19 12 38.5 31t19.5 35q-23 0 -38.5 11.5t-15.5 36.5q0 23 14 37t35 14q20 0 35 -13.5t15 -41.5q0 -27 -15 -52t-36.5 -44t-40.5 -30zM-7 0v34h99v654h-102v24l102 13l44 25h24v-470l193 226h-53v34h182v-34h-90l-149 -174l200 -298h71v-34h-207v34h62
l-166.88 249.821l-42.1198 -48.8207v-201h79v-34h-246z" />
    <glyph glyph-name="l" unicode="l" 
d="M27 0v34h189v654h-142v24l142 13l44 25h24v-716h189v-34h-446z" />
    <glyph glyph-name="lacute" unicode="&#x13a;" 
d="M236 780l10 180h70l-68 -180h-12zM27 0v34h189v654h-142v24l142 13l44 25h24v-716h189v-34h-446z" />
    <glyph glyph-name="lcaron" unicode="&#x13e;" 
d="M331 570l10 180h70l-68 -180h-12zM27 0v34h189v654h-142v24l142 13l44 25h24v-716h189v-34h-446z" />
    <glyph glyph-name="uni013C" unicode="&#x13c;" 
d="M210 -207l-11 16q19 12 38.5 31t19.5 35q-23 0 -38.5 11.5t-15.5 36.5q0 23 14 37t35 14q20 0 35 -13.5t15 -41.5q0 -27 -15 -52t-36.5 -44t-40.5 -30zM27 0v34h189v654h-142v24l142 13l44 25h24v-716h189v-34h-446z" />
    <glyph glyph-name="lslash" unicode="&#x142;" 
d="M27 0v34h189v322l-109 -65v34l109 65v298h-142v24l142 13l44 25h24v-320l110 65v-34l-110 -65v-362h189v-34h-446z" />
    <glyph glyph-name="m" unicode="m" 
d="M22 0v34h44v454h-54v20l60 15l40 27h19v-71h3q8 23 31.5 47t57.5 24q27 0 44.5 -18t19.5 -53h3q9 23 32 47t57 24q31 0 48 -20.5t17 -59.5v-436h49v-34h-114v467q0 38 -33 38q-18 0 -30.5 -12.5t-19.5 -31t-9 -35.5v-392h49v-34h-113v467q0 38 -36 38q-17 0 -29 -12.5
t-18.5 -31t-8.5 -35.5v-392h49v-34h-158z" />
    <glyph glyph-name="n" unicode="n" 
d="M14 0v28l84 8v452h-102v24l102 13l44 25h24v-81h3q8 18 25 36.5t43 31.5t60 13q49 0 77.5 -30.5t28.5 -89.5v-396h84v-34h-152v424q0 80 -70 80q-28 0 -48.5 -13t-33 -32.5t-17.5 -37.5v-385l99 -8v-28h-251z" />
    <glyph glyph-name="nacute" unicode="&#x144;" 
d="M236 580l10 180h70l-68 -180h-12zM14 0v28l84 8v452h-102v24l102 13l44 25h24v-81h3q8 18 25 36.5t43 31.5t60 13q49 0 77.5 -30.5t28.5 -89.5v-396h84v-34h-152v424q0 80 -70 80q-28 0 -48.5 -13t-33 -32.5t-17.5 -37.5v-385l99 -8v-28h-251z" />
    <glyph glyph-name="ncaron" unicode="&#x148;" 
d="M230 580l-65 170h12l73 -106l73 106h12l-65 -170h-40zM14 0v28l84 8v452h-102v24l102 13l44 25h24v-81h3q8 18 25 36.5t43 31.5t60 13q49 0 77.5 -30.5t28.5 -89.5v-396h84v-34h-152v424q0 80 -70 80q-28 0 -48.5 -13t-33 -32.5t-17.5 -37.5v-385l99 -8v-28h-251z" />
    <glyph glyph-name="uni0146" unicode="&#x146;" 
d="M210 -207l-11 16q19 12 38.5 31t19.5 35q-23 0 -38.5 11.5t-15.5 36.5q0 23 14 37t35 14q20 0 35 -13.5t15 -41.5q0 -27 -15 -52t-36.5 -44t-40.5 -30zM14 0v28l84 8v452h-102v24l102 13l44 25h24v-81h3q8 18 25 36.5t43 31.5t60 13q49 0 77.5 -30.5t28.5 -89.5v-396h84
v-34h-152v424q0 80 -70 80q-28 0 -48.5 -13t-33 -32.5t-17.5 -37.5v-385l99 -8v-28h-251z" />
    <glyph glyph-name="eng" unicode="&#x14b;" 
d="M233 -190q-57 0 -95 21t-38 58q0 19 10 31t30 12q28 0 42.5 -17.5t20.5 -28.5l28 -50q56 -5 95 35.5t39 126.5v426q0 80 -70 80q-28 0 -48.5 -13t-33 -32.5t-17.5 -37.5v-385l99 -8v-28h-251v28l84 8v452h-102v24l102 13l44 25h24v-81h3q8 18 25 36.5t43 31.5t59 13
q53 0 80 -32.5t27 -87.5v-412q0 -60 -22.5 -107t-66.5 -74t-111 -27z" />
    <glyph glyph-name="ntilde" unicode="&#xf1;" 
d="M289 607q-21 0 -36 12.5t-27.5 25.5t-27.5 13q-13 0 -19 -12.5t-6 -33.5h-13q0 8 1 23t5.5 31t15 27.5t29.5 11.5q21 0 35.5 -13t27.5 -25.5t28 -12.5q14 0 19.5 12.5t5.5 33.5h13q0 -7 -1 -22.5t-5.5 -31.5t-15 -27.5t-29.5 -11.5zM14 0v28l84 8v452h-102v24l102 13
l44 25h24v-81h3q8 18 25 36.5t43 31.5t60 13q49 0 77.5 -30.5t28.5 -89.5v-396h84v-34h-152v424q0 80 -70 80q-28 0 -48.5 -13t-33 -32.5t-17.5 -37.5v-385l99 -8v-28h-251z" />
    <glyph glyph-name="o" unicode="o" 
d="M250 22q63 0 95 52.5t32 145.5v100q0 93 -32 145.5t-95 52.5t-95 -52.5t-32 -145.5v-100q0 -93 32 -145.5t95 -52.5zM250 -10q-50 0 -87 23.5t-61.5 64t-36.5 90.5t-12 102q0 53 12 102.5t36.5 90t61.5 64t87 23.5t87 -23.5t61.5 -64t36.5 -90t12 -102.5q0 -52 -12 -102
t-36.5 -90.5t-61.5 -64t-87 -23.5z" />
    <glyph glyph-name="oacute" unicode="&#xf3;" 
d="M236 580l10 180h70l-68 -180h-12zM250 22q63 0 95 52.5t32 145.5v100q0 93 -32 145.5t-95 52.5t-95 -52.5t-32 -145.5v-100q0 -93 32 -145.5t95 -52.5zM250 -10q-50 0 -87 23.5t-61.5 64t-36.5 90.5t-12 102q0 53 12 102.5t36.5 90t61.5 64t87 23.5t87 -23.5t61.5 -64
t36.5 -90t12 -102.5q0 -52 -12 -102t-36.5 -90.5t-61.5 -64t-87 -23.5z" />
    <glyph glyph-name="ocircumflex" unicode="&#xf4;" 
d="M165 580l65 170h40l65 -170h-12l-73 106l-73 -106h-12zM250 22q63 0 95 52.5t32 145.5v100q0 93 -32 145.5t-95 52.5t-95 -52.5t-32 -145.5v-100q0 -93 32 -145.5t95 -52.5zM250 -10q-50 0 -87 23.5t-61.5 64t-36.5 90.5t-12 102q0 53 12 102.5t36.5 90t61.5 64t87 23.5
t87 -23.5t61.5 -64t36.5 -90t12 -102.5q0 -52 -12 -102t-36.5 -90.5t-61.5 -64t-87 -23.5z" />
    <glyph glyph-name="uni1ED1" unicode="&#x1ed1;" 
d="M165 580l65 170h40l65 -170h-12l-73 106l-73 -106h-12zM321 701l10 180h70l-68 -180h-12zM250 22q63 0 95 52.5t32 145.5v100q0 93 -32 145.5t-95 52.5t-95 -52.5t-32 -145.5v-100q0 -93 32 -145.5t95 -52.5zM250 -10q-50 0 -87 23.5t-61.5 64t-36.5 90.5t-12 102
q0 53 12 102.5t36.5 90t61.5 64t87 23.5t87 -23.5t61.5 -64t36.5 -90t12 -102.5q0 -52 -12 -102t-36.5 -90.5t-61.5 -64t-87 -23.5z" />
    <glyph glyph-name="uni1ED9" unicode="&#x1ed9;" 
d="M165 580l65 170h40l65 -170h-12l-73 106l-73 -106h-12zM250 -171q-21 0 -35.5 14.5t-14.5 35.5q0 20 14.5 34.5t35.5 14.5t35 -14.5t14 -34.5q0 -21 -14 -35.5t-35 -14.5zM250 22q63 0 95 52.5t32 145.5v100q0 93 -32 145.5t-95 52.5t-95 -52.5t-32 -145.5v-100
q0 -93 32 -145.5t95 -52.5zM250 -10q-50 0 -87 23.5t-61.5 64t-36.5 90.5t-12 102q0 53 12 102.5t36.5 90t61.5 64t87 23.5t87 -23.5t61.5 -64t36.5 -90t12 -102.5q0 -52 -12 -102t-36.5 -90.5t-61.5 -64t-87 -23.5z" />
    <glyph glyph-name="uni1ED3" unicode="&#x1ed3;" 
d="M165 580l65 170h40l65 -170h-12l-73 106l-73 -106h-12zM337 701l-68 180h70l10 -180h-12zM250 22q63 0 95 52.5t32 145.5v100q0 93 -32 145.5t-95 52.5t-95 -52.5t-32 -145.5v-100q0 -93 32 -145.5t95 -52.5zM250 -10q-50 0 -87 23.5t-61.5 64t-36.5 90.5t-12 102
q0 53 12 102.5t36.5 90t61.5 64t87 23.5t87 -23.5t61.5 -64t36.5 -90t12 -102.5q0 -52 -12 -102t-36.5 -90.5t-61.5 -64t-87 -23.5z" />
    <glyph glyph-name="uni1ED5" unicode="&#x1ed5;" 
d="M165 580l65 170h40l65 -170h-12l-73 106l-73 -106h-12zM320 711v6q0 29 9 44t18 26.5t9 29.5q0 19 -10 27t-23 8t-21 -6.5t-10 -12.5l6 -3q8 -4 14 -9t6 -15q0 -7 -5.5 -14.5t-18.5 -7.5t-21 9t-8 24q0 20 16.5 39t51.5 19q30 0 47.5 -15t17.5 -38q0 -18 -9 -30
t-20 -22.5t-20 -22.5t-9 -30v-6h-20zM250 22q63 0 95 52.5t32 145.5v100q0 93 -32 145.5t-95 52.5t-95 -52.5t-32 -145.5v-100q0 -93 32 -145.5t95 -52.5zM250 -10q-50 0 -87 23.5t-61.5 64t-36.5 90.5t-12 102q0 53 12 102.5t36.5 90t61.5 64t87 23.5t87 -23.5t61.5 -64
t36.5 -90t12 -102.5q0 -52 -12 -102t-36.5 -90.5t-61.5 -64t-87 -23.5z" />
    <glyph glyph-name="uni1ED7" unicode="&#x1ed7;" 
d="M165 580l65 170h40l65 -170h-12l-73 106l-73 -106h-12zM289 771q-21 0 -35.5 12.5t-27.5 25.5t-28 13q-13 0 -19 -12.5t-6 -33.5h-13q0 8 1 23t5.5 31t15 27.5t29.5 11.5q21 0 35.5 -13t27.5 -25.5t28 -12.5q14 0 19.5 12.5t5.5 33.5h13q0 -7 -1 -22.5t-5.5 -31.5
t-15 -27.5t-29.5 -11.5zM250 22q63 0 95 52.5t32 145.5v100q0 93 -32 145.5t-95 52.5t-95 -52.5t-32 -145.5v-100q0 -93 32 -145.5t95 -52.5zM250 -10q-50 0 -87 23.5t-61.5 64t-36.5 90.5t-12 102q0 53 12 102.5t36.5 90t61.5 64t87 23.5t87 -23.5t61.5 -64t36.5 -90
t12 -102.5q0 -52 -12 -102t-36.5 -90.5t-61.5 -64t-87 -23.5z" />
    <glyph glyph-name="odieresis" unicode="&#xf6;" 
d="M176 605q-21 0 -35.5 14.5t-14.5 35.5t14.5 35.5t35.5 14.5q22 0 36 -14.5t14 -35.5t-14 -35.5t-36 -14.5zM323 605q-22 0 -36 14.5t-14 35.5t14 35.5t36 14.5q21 0 35.5 -14.5t14.5 -35.5t-14.5 -35.5t-35.5 -14.5zM250 22q63 0 95 52.5t32 145.5v100q0 93 -32 145.5
t-95 52.5t-95 -52.5t-32 -145.5v-100q0 -93 32 -145.5t95 -52.5zM250 -10q-50 0 -87 23.5t-61.5 64t-36.5 90.5t-12 102q0 53 12 102.5t36.5 90t61.5 64t87 23.5t87 -23.5t61.5 -64t36.5 -90t12 -102.5q0 -52 -12 -102t-36.5 -90.5t-61.5 -64t-87 -23.5z" />
    <glyph glyph-name="uni1ECD" unicode="&#x1ecd;" 
d="M250 -171q-21 0 -35.5 14.5t-14.5 35.5q0 20 14.5 34.5t35.5 14.5t35 -14.5t14 -34.5q0 -21 -14 -35.5t-35 -14.5zM250 22q63 0 95 52.5t32 145.5v100q0 93 -32 145.5t-95 52.5t-95 -52.5t-32 -145.5v-100q0 -93 32 -145.5t95 -52.5zM250 -10q-50 0 -87 23.5t-61.5 64
t-36.5 90.5t-12 102q0 53 12 102.5t36.5 90t61.5 64t87 23.5t87 -23.5t61.5 -64t36.5 -90t12 -102.5q0 -52 -12 -102t-36.5 -90.5t-61.5 -64t-87 -23.5z" />
    <glyph glyph-name="ograve" unicode="&#xf2;" 
d="M252 580l-68 180h70l10 -180h-12zM250 22q63 0 95 52.5t32 145.5v100q0 93 -32 145.5t-95 52.5t-95 -52.5t-32 -145.5v-100q0 -93 32 -145.5t95 -52.5zM250 -10q-50 0 -87 23.5t-61.5 64t-36.5 90.5t-12 102q0 53 12 102.5t36.5 90t61.5 64t87 23.5t87 -23.5t61.5 -64
t36.5 -90t12 -102.5q0 -52 -12 -102t-36.5 -90.5t-61.5 -64t-87 -23.5z" />
    <glyph glyph-name="uni1ECF" unicode="&#x1ecf;" 
d="M235 590v6q0 29 9 44t18 26.5t9 29.5q0 19 -10 27t-23 8t-21 -6.5t-10 -12.5l6 -3q8 -4 14 -9t6 -15q0 -7 -5.5 -14.5t-18.5 -7.5t-21 9t-8 24q0 20 16.5 39t51.5 19q30 0 47.5 -15t17.5 -38q0 -18 -9 -30t-20 -22.5t-20 -22.5t-9 -30v-6h-20zM250 22q63 0 95 52.5
t32 145.5v100q0 93 -32 145.5t-95 52.5t-95 -52.5t-32 -145.5v-100q0 -93 32 -145.5t95 -52.5zM250 -10q-50 0 -87 23.5t-61.5 64t-36.5 90.5t-12 102q0 53 12 102.5t36.5 90t61.5 64t87 23.5t87 -23.5t61.5 -64t36.5 -90t12 -102.5q0 -52 -12 -102t-36.5 -90.5t-61.5 -64
t-87 -23.5z" />
    <glyph glyph-name="ohorn" unicode="&#x1a1;" 
d="M250 22q63 0 95 52.5t32 145.5v100q0 93 -32 145.5t-95 52.5t-95 -52.5t-32 -145.5v-100q0 -93 32 -145.5t95 -52.5zM250 -10q-50 0 -87 23.5t-61.5 64t-36.5 90.5t-12 102q0 53 12 102.5t36.5 90t61.5 64t87 23.5t87 -23.5q23.3697 -14.8429 41.7527 -36.4677
q25.8704 0.615657 37.7473 12.9677q12.5 13 12.5 24q-22 -4 -38 8t-16 32t12 31t31 11q16 0 31 -10.5t15 -42.5q0 -17 -7 -38.5t-26 -37q-13.2944 -10.8454 -34.9117 -14.1023q1.22065 -1.92878 2.41175 -3.89775q24.5 -40.5 36.5 -90t12 -102.5q0 -52 -12 -102t-36.5 -90.5
t-61.5 -64t-87 -23.5z" />
    <glyph glyph-name="uni1EDB" unicode="&#x1edb;" 
d="M236 580l10 180h70l-68 -180h-12zM250 22q63 0 95 52.5t32 145.5v100q0 93 -32 145.5t-95 52.5t-95 -52.5t-32 -145.5v-100q0 -93 32 -145.5t95 -52.5zM250 -10q-50 0 -87 23.5t-61.5 64t-36.5 90.5t-12 102q0 53 12 102.5t36.5 90t61.5 64t87 23.5t87 -23.5
q23.3697 -14.8429 41.7527 -36.4677q25.8704 0.615657 37.7473 12.9677q12.5 13 12.5 24q-22 -4 -38 8t-16 32t12 31t31 11q16 0 31 -10.5t15 -42.5q0 -17 -7 -38.5t-26 -37q-13.2944 -10.8454 -34.9117 -14.1023q1.22065 -1.92878 2.41175 -3.89775q24.5 -40.5 36.5 -90
t12 -102.5q0 -52 -12 -102t-36.5 -90.5t-61.5 -64t-87 -23.5z" />
    <glyph glyph-name="uni1EE3" unicode="&#x1ee3;" 
d="M250 -171q-21 0 -35.5 14.5t-14.5 35.5q0 20 14.5 34.5t35.5 14.5t35 -14.5t14 -34.5q0 -21 -14 -35.5t-35 -14.5zM250 22q63 0 95 52.5t32 145.5v100q0 93 -32 145.5t-95 52.5t-95 -52.5t-32 -145.5v-100q0 -93 32 -145.5t95 -52.5zM250 -10q-50 0 -87 23.5t-61.5 64
t-36.5 90.5t-12 102q0 53 12 102.5t36.5 90t61.5 64t87 23.5t87 -23.5q23.3697 -14.8429 41.7527 -36.4677q25.8704 0.615657 37.7473 12.9677q12.5 13 12.5 24q-22 -4 -38 8t-16 32t12 31t31 11q16 0 31 -10.5t15 -42.5q0 -17 -7 -38.5t-26 -37
q-13.2944 -10.8454 -34.9117 -14.1023q1.22065 -1.92878 2.41175 -3.89775q24.5 -40.5 36.5 -90t12 -102.5q0 -52 -12 -102t-36.5 -90.5t-61.5 -64t-87 -23.5z" />
    <glyph glyph-name="uni1EDD" unicode="&#x1edd;" 
d="M252 580l-68 180h70l10 -180h-12zM250 22q63 0 95 52.5t32 145.5v100q0 93 -32 145.5t-95 52.5t-95 -52.5t-32 -145.5v-100q0 -93 32 -145.5t95 -52.5zM250 -10q-50 0 -87 23.5t-61.5 64t-36.5 90.5t-12 102q0 53 12 102.5t36.5 90t61.5 64t87 23.5t87 -23.5
q23.3697 -14.8429 41.7527 -36.4677q25.8704 0.615657 37.7473 12.9677q12.5 13 12.5 24q-22 -4 -38 8t-16 32t12 31t31 11q16 0 31 -10.5t15 -42.5q0 -17 -7 -38.5t-26 -37q-13.2944 -10.8454 -34.9117 -14.1023q1.22065 -1.92878 2.41175 -3.89775q24.5 -40.5 36.5 -90
t12 -102.5q0 -52 -12 -102t-36.5 -90.5t-61.5 -64t-87 -23.5z" />
    <glyph glyph-name="uni1EDF" unicode="&#x1edf;" 
d="M235 590v6q0 29 9 44t18 26.5t9 29.5q0 19 -10 27t-23 8t-21 -6.5t-10 -12.5l6 -3q8 -4 14 -9t6 -15q0 -7 -5.5 -14.5t-18.5 -7.5t-21 9t-8 24q0 20 16.5 39t51.5 19q30 0 47.5 -15t17.5 -38q0 -18 -9 -30t-20 -22.5t-20 -22.5t-9 -30v-6h-20zM250 22q63 0 95 52.5
t32 145.5v100q0 93 -32 145.5t-95 52.5t-95 -52.5t-32 -145.5v-100q0 -93 32 -145.5t95 -52.5zM250 -10q-50 0 -87 23.5t-61.5 64t-36.5 90.5t-12 102q0 53 12 102.5t36.5 90t61.5 64t87 23.5t87 -23.5q23.3697 -14.8429 41.7527 -36.4677q25.8704 0.615657 37.7473 12.9677
q12.5 13 12.5 24q-22 -4 -38 8t-16 32t12 31t31 11q16 0 31 -10.5t15 -42.5q0 -17 -7 -38.5t-26 -37q-13.2944 -10.8454 -34.9117 -14.1023q1.22065 -1.92878 2.41175 -3.89775q24.5 -40.5 36.5 -90t12 -102.5q0 -52 -12 -102t-36.5 -90.5t-61.5 -64t-87 -23.5z" />
    <glyph glyph-name="uni1EE1" unicode="&#x1ee1;" 
d="M289 607q-21 0 -36 12.5t-27.5 25.5t-27.5 13q-13 0 -19 -12.5t-6 -33.5h-13q0 8 1 23t5.5 31t15 27.5t29.5 11.5q21 0 35.5 -13t27.5 -25.5t28 -12.5q14 0 19.5 12.5t5.5 33.5h13q0 -7 -1 -22.5t-5.5 -31.5t-15 -27.5t-29.5 -11.5zM250 22q63 0 95 52.5t32 145.5v100
q0 93 -32 145.5t-95 52.5t-95 -52.5t-32 -145.5v-100q0 -93 32 -145.5t95 -52.5zM250 -10q-50 0 -87 23.5t-61.5 64t-36.5 90.5t-12 102q0 53 12 102.5t36.5 90t61.5 64t87 23.5t87 -23.5q23.3697 -14.8429 41.7527 -36.4677q25.8704 0.615657 37.7473 12.9677
q12.5 13 12.5 24q-22 -4 -38 8t-16 32t12 31t31 11q16 0 31 -10.5t15 -42.5q0 -17 -7 -38.5t-26 -37q-13.2944 -10.8454 -34.9117 -14.1023q1.22065 -1.92878 2.41175 -3.89775q24.5 -40.5 36.5 -90t12 -102.5q0 -52 -12 -102t-36.5 -90.5t-61.5 -64t-87 -23.5z" />
    <glyph glyph-name="ohungarumlaut" unicode="&#x151;" 
d="M197 580l10 180h60l-58 -180h-12zM293 580l10 180h60l-58 -180h-12zM250 22q63 0 95 52.5t32 145.5v100q0 93 -32 145.5t-95 52.5t-95 -52.5t-32 -145.5v-100q0 -93 32 -145.5t95 -52.5zM250 -10q-50 0 -87 23.5t-61.5 64t-36.5 90.5t-12 102q0 53 12 102.5t36.5 90
t61.5 64t87 23.5t87 -23.5t61.5 -64t36.5 -90t12 -102.5q0 -52 -12 -102t-36.5 -90.5t-61.5 -64t-87 -23.5z" />
    <glyph glyph-name="omacron" unicode="&#x14d;" 
d="M118 638v31h264v-31h-264zM250 22q63 0 95 52.5t32 145.5v100q0 93 -32 145.5t-95 52.5t-95 -52.5t-32 -145.5v-100q0 -93 32 -145.5t95 -52.5zM250 -10q-50 0 -87 23.5t-61.5 64t-36.5 90.5t-12 102q0 53 12 102.5t36.5 90t61.5 64t87 23.5t87 -23.5t61.5 -64t36.5 -90
t12 -102.5q0 -52 -12 -102t-36.5 -90.5t-61.5 -64t-87 -23.5z" />
    <glyph glyph-name="oslash" unicode="&#xf8;" 
d="M250 23q63 0 95 52.5t32 145.5v100q0 65 -16 111l-206 -357q33 -52 95 -52zM123 221q0 -66 16 -111l206 357q-33 52 -95 52q-63 0 -95 -52.5t-32 -145.5v-100zM106 -10l-28 16l34 57q-30 40 -44.5 95t-14.5 113q0 53 12 102.5t36.5 90t61.5 64t87 23.5q36 0 65 -12.5
t51 -34.5l28 47l27 -16l-33 -56q30 -41 44.5 -95.5t14.5 -112.5q0 -52 -12 -102t-36.5 -90.5t-61.5 -64t-87 -23.5q-36 0 -65 12.5t-51 34.5z" />
    <glyph glyph-name="otilde" unicode="&#xf5;" 
d="M289 607q-21 0 -36 12.5t-27.5 25.5t-27.5 13q-13 0 -19 -12.5t-6 -33.5h-13q0 8 1 23t5.5 31t15 27.5t29.5 11.5q21 0 35.5 -13t27.5 -25.5t28 -12.5q14 0 19.5 12.5t5.5 33.5h13q0 -7 -1 -22.5t-5.5 -31.5t-15 -27.5t-29.5 -11.5zM250 22q63 0 95 52.5t32 145.5v100
q0 93 -32 145.5t-95 52.5t-95 -52.5t-32 -145.5v-100q0 -93 32 -145.5t95 -52.5zM250 -10q-50 0 -87 23.5t-61.5 64t-36.5 90.5t-12 102q0 53 12 102.5t36.5 90t61.5 64t87 23.5t87 -23.5t61.5 -64t36.5 -90t12 -102.5q0 -52 -12 -102t-36.5 -90.5t-61.5 -64t-87 -23.5z" />
    <glyph glyph-name="oe" unicode="&#x153;" 
d="M373 518q-33 0 -55.5 -37.5t-23.5 -130.5h81q16 0 29 3t21.5 17.5t8.5 48.5q0 44 -15 71.5t-46 27.5zM150 22q32 0 54 40t22 138v140q0 98 -22 138t-54 40q-31 0 -53.5 -40t-22.5 -138v-140q0 -98 22.5 -138t53.5 -40zM150 -10q-41 0 -70 30.5t-46.5 80.5t-23.5 109.5
t0 119t23.5 109.5t46.5 80.5t70 30.5q38 0 65.5 -26.5t45.5 -69.5q19 43 49 69.5t70 26.5q53 0 83.5 -47.5t30.5 -135.5q0 -29 -2 -43h-198v-124q0 -21 1.5 -50.5t9 -58t25 -47.5t49.5 -19q18 0 36 10.5t30.5 41t12.5 91.5v25h32v-25q0 -85 -28 -131.5t-81 -46.5
q-41 0 -71.5 26t-49.5 69q-18 -43 -45.5 -69t-64.5 -26z" />
    <glyph glyph-name="p" unicode="p" 
d="M195 159q0 -75 29 -106t71 -31q47 0 75 34.5t28 102.5v237q0 61 -30 87t-68 26q-34 0 -56.5 -17.5t-34 -42.5t-14.5 -48v-242zM8 -190v34h119v644h-102v24l102 13l44 25h24v-85h3q8 19 25 38.5t42 33t57 13.5q50 0 84 -34t51.5 -93t17.5 -135q0 -82 -20.5 -150
t-60.5 -108t-99 -40q-37 0 -61.5 14.5t-38.5 31.5v-192h164v-34h-351z" />
    <glyph glyph-name="thorn" unicode="&#xfe;" 
d="M195 159q0 -75 29 -106t71 -31q47 0 75 34.5t28 102.5v237q0 61 -30 87t-68 26q-34 0 -56.5 -17.5t-34 -42.5t-14.5 -48v-242zM8 -190v28l119 10v840h-102v24l102 13l44 25h24v-285h3q8 19 25 38.5t42 33t57 13.5q50 0 84 -34t51.5 -93t17.5 -135q0 -82 -20.5 -150
t-60.5 -108t-99 -40q-37 0 -61.5 14.5t-38.5 31.5v-188l164 -10v-28h-351z" />
    <glyph glyph-name="q" unicode="q" 
d="M260 31q34 0 56.5 17.5t34.5 42.5t14 48v242q0 75 -29 106t-71 31q-47 0 -75 -34.5t-28 -102.5v-237q0 -61 30 -87t68 -26zM201 -190v34h164v231h-3q-7 -18 -24 -38t-42 -33.5t-57 -13.5q-52 0 -86.5 33.5t-51 92.5t-16.5 135q0 81 20 149t60.5 109t101.5 41
q35 0 60.5 -15t41 -37t21.5 -43h10v85h33v-696h99v-34h-331z" />
    <glyph glyph-name="r" unicode="r" 
d="M356 34v-34h-351v34h120v454h-102v24l102 13l44 25h24v-176h3l5 15q23 69 67 115t105 46q38 0 65 -17t27 -49q0 -19 -10 -31t-31 -12q-25 0 -37 16t-20 30l-15 29q-36 0 -63 -25.5t-47 -67t-35 -89.5l-14 -45v-255h163z" />
    <glyph glyph-name="racute" unicode="&#x155;" 
d="M236 580l10 180h70l-68 -180h-12zM356 34v-34h-351v34h120v454h-102v24l102 13l44 25h24v-176h3l5 15q23 69 67 115t105 46q38 0 65 -17t27 -49q0 -19 -10 -31t-31 -12q-25 0 -37 16t-20 30l-15 29q-36 0 -63 -25.5t-47 -67t-35 -89.5l-14 -45v-255h163z" />
    <glyph glyph-name="rcaron" unicode="&#x159;" 
d="M230 580l-65 170h12l73 -106l73 106h12l-65 -170h-40zM356 34v-34h-351v34h120v454h-102v24l102 13l44 25h24v-176h3l5 15q23 69 67 115t105 46q38 0 65 -17t27 -49q0 -19 -10 -31t-31 -12q-25 0 -37 16t-20 30l-15 29q-36 0 -63 -25.5t-47 -67t-35 -89.5l-14 -45v-255
h163z" />
    <glyph glyph-name="uni0157" unicode="&#x157;" 
d="M121 -207l-11 16q19 12 38.5 31t19.5 35q-23 0 -38.5 11.5t-15.5 36.5q0 23 14 37t35 14q20 0 35 -13.5t15 -41.5q0 -27 -15 -52t-36.5 -44t-40.5 -30zM356 34v-34h-351v34h120v454h-102v24l102 13l44 25h24v-176h3l5 15q23 69 67 115t105 46q38 0 65 -17t27 -49
q0 -19 -10 -31t-31 -12q-25 0 -37 16t-20 30l-15 29q-36 0 -63 -25.5t-47 -67t-35 -89.5l-14 -45v-255h163z" />
    <glyph glyph-name="s" unicode="s" 
d="M295 -10q-50 0 -82.5 23t-49.5 56.5t-21 63.5h-8v-133h-32v234h52v-12q0 -10 1.5 -33t8.5 -51t21.5 -54t40.5 -43t66 -17q45 0 68.5 23t23.5 60q0 36 -19 62.5t-49 47t-63.5 40.5t-63.5 42.5t-49 52t-19 70.5q0 56 37 92t100 36q46 0 73 -17.5t40.5 -41t18.5 -42.5h8v91
h32v-194h-42v3q0 26 -6 55t-20.5 55t-39 42t-61.5 16q-46 0 -63 -24t-17 -50q0 -32 19 -56.5t49 -45t63.5 -40.5t63.5 -43.5t49 -54t19 -72.5q0 -40 -19.5 -72t-53 -50.5t-76.5 -18.5z" />
    <glyph glyph-name="sacute" unicode="&#x15b;" 
d="M253 580l10 180h70l-68 -180h-12zM295 -10q-50 0 -82.5 23t-49.5 56.5t-21 63.5h-8v-133h-32v234h52v-12q0 -10 1.5 -33t8.5 -51t21.5 -54t40.5 -43t66 -17q45 0 68.5 23t23.5 60q0 36 -19 62.5t-49 47t-63.5 40.5t-63.5 42.5t-49 52t-19 70.5q0 56 37 92t100 36
q46 0 73 -17.5t40.5 -41t18.5 -42.5h8v91h32v-194h-42v3q0 26 -6 55t-20.5 55t-39 42t-61.5 16q-46 0 -63 -24t-17 -50q0 -32 19 -56.5t49 -45t63.5 -40.5t63.5 -43.5t49 -54t19 -72.5q0 -40 -19.5 -72t-53 -50.5t-76.5 -18.5z" />
    <glyph glyph-name="scaron" unicode="&#x161;" 
d="M247 580l-65 170h12l73 -106l73 106h12l-65 -170h-40zM295 -10q-50 0 -82.5 23t-49.5 56.5t-21 63.5h-8v-133h-32v234h52v-12q0 -10 1.5 -33t8.5 -51t21.5 -54t40.5 -43t66 -17q45 0 68.5 23t23.5 60q0 36 -19 62.5t-49 47t-63.5 40.5t-63.5 42.5t-49 52t-19 70.5
q0 56 37 92t100 36q46 0 73 -17.5t40.5 -41t18.5 -42.5h8v91h32v-194h-42v3q0 26 -6 55t-20.5 55t-39 42t-61.5 16q-46 0 -63 -24t-17 -50q0 -32 19 -56.5t49 -45t63.5 -40.5t63.5 -43.5t49 -54t19 -72.5q0 -40 -19.5 -72t-53 -50.5t-76.5 -18.5z" />
    <glyph glyph-name="scedilla" unicode="&#x15f;" 
d="M296 -213q-44 0 -73.5 16.5t-29.5 43.5q0 12 7.5 23.5t25.5 11.5q23 0 31.5 -17t10.5 -30l4 -23q3 -1 10 -3t16 -2q29 0 42.5 16t13.5 35q0 27 -22 42.5t-59 15.5q-10 0 -20 -1.5t-19 -5.5l-9 5l41 78h1.03335q-31.6171 4.78233 -54.5333 21q-32.5 23 -49.5 56.5
t-21 63.5h-8v-133h-32v234h52v-12q0 -10 1.5 -33t8.5 -51t21.5 -54t40.5 -43t66 -17q45 0 68.5 23t23.5 60q0 36 -19 62.5t-49 47t-63.5 40.5t-63.5 42.5t-49 52t-19 70.5q0 56 37 92t100 36q46 0 73 -17.5t40.5 -41t18.5 -42.5h8v91h32v-194h-42v3q0 26 -6 55t-20.5 55
t-39 42t-61.5 16q-46 0 -63 -24t-17 -50q0 -32 19 -56.5t49 -45t63.5 -40.5t63.5 -43.5t49 -54t19 -72.5q0 -40 -19.5 -72t-53 -50.5q-32.3783 -17.8805 -73.631 -18.4793l-22.869 -40.0207q45 4 71.5 -8t38 -32.5t11.5 -42.5q0 -17 -8.5 -36t-30 -31.5t-61.5 -12.5z" />
    <glyph glyph-name="uni0219" unicode="&#x219;" 
d="M255 -207l-11 16q19 12 38.5 31t19.5 35q-23 0 -38.5 11.5t-15.5 36.5q0 23 14 37t35 14q20 0 35 -13.5t15 -41.5q0 -27 -15 -52t-36.5 -44t-40.5 -30zM295 -10q-50 0 -82.5 23t-49.5 56.5t-21 63.5h-8v-133h-32v234h52v-12q0 -10 1.5 -33t8.5 -51t21.5 -54t40.5 -43
t66 -17q45 0 68.5 23t23.5 60q0 36 -19 62.5t-49 47t-63.5 40.5t-63.5 42.5t-49 52t-19 70.5q0 56 37 92t100 36q46 0 73 -17.5t40.5 -41t18.5 -42.5h8v91h32v-194h-42v3q0 26 -6 55t-20.5 55t-39 42t-61.5 16q-46 0 -63 -24t-17 -50q0 -32 19 -56.5t49 -45t63.5 -40.5
t63.5 -43.5t49 -54t19 -72.5q0 -40 -19.5 -72t-53 -50.5t-76.5 -18.5z" />
    <glyph glyph-name="germandbls" unicode="&#xdf;" 
d="M409 -10q-48 0 -74.5 23t-33.5 45h-8v-58h-28v144h48v-22q0 -50 24.5 -74t65.5 -24q42 0 64 22.5t22 61.5q0 36 -16.5 62.5t-42.5 48t-55.5 41t-55.5 40.5t-42.5 48t-16.5 63q0 35 15.5 59t38.5 42.5l46 37l38.5 42.5l15.5 60q0 41 -24 68t-71 27q-49 0 -84 -38t-35 -124
v-585h-185v28l117 10v470h-94v22l94 10v25q0 60 20.5 107t64 74t112.5 27q61 0 95 -19t47.5 -46.5t13.5 -53.5q0 -34 -16.5 -55t-41 -36.5t-49.5 -31.5t-41.5 -37.5t-16.5 -56.5q0 -34 16.5 -59t42.5 -45.5t55.5 -40t55.5 -42.5t42.5 -52t16.5 -70q0 -64 -40.5 -101
t-99.5 -37z" />
    <glyph glyph-name="t" unicode="t" 
d="M297 -10q-73 0 -118.5 45.5t-45.5 134.5v338h-114v32h114l45 107h23v-107h261v-32h-261v-333q0 -69 28 -106.5t83 -37.5q44 0 70.5 21t38 55.5t11.5 74.5v26h30v-26q0 -28 -7 -61.5t-24.5 -63t-50 -48.5t-83.5 -19z" />
    <glyph glyph-name="tbar" unicode="&#x167;" 
d="M297 -10q-73 0 -118.5 45.5t-45.5 134.5v143h-83v29h83v166h-114v32h114l45 107h23v-107h261v-32h-261v-166h185v-29h-185v-138q0 -69 28 -106.5t83 -37.5q44 0 70.5 21t38 55.5t11.5 74.5v26h30v-26q0 -28 -7 -61.5t-24.5 -63t-50 -48.5t-83.5 -19z" />
    <glyph glyph-name="tcaron" unicode="&#x165;" 
d="M246 580l10 180h70l-68 -180h-12zM297 -10q-73 0 -118.5 45.5t-45.5 134.5v338h-114v32h114l45 107h23v-107h261v-32h-261v-333q0 -69 28 -106.5t83 -37.5q44 0 70.5 21t38 55.5t11.5 74.5v26h30v-26q0 -28 -7 -61.5t-24.5 -63t-50 -48.5t-83.5 -19z" />
    <glyph glyph-name="uni0163" unicode="&#x163;" 
d="M306 -213q-44 0 -73.5 16.5t-29.5 43.5q0 12 7.5 23.5t25.5 11.5q23 0 31.5 -17t10.5 -30l4 -23q3 -1 10 -3t16 -2q29 0 42.5 16t13.5 35q0 27 -22 42.5t-59 15.5q-10 0 -20 -1.5t-19 -5.5l-9 5l40.4984 77.0457q-58.3962 5.8521 -96.9984 44.4543
q-45.5 45.5 -45.5 134.5v338h-114v32h114l45 107h23v-107h261v-32h-261v-333q0 -69 28 -106.5t83 -37.5q44 0 70.5 21t38 55.5t11.5 74.5v26h30v-26q0 -28 -7 -61.5t-24.5 -63t-50 -48.5q-28.9276 -16.9115 -72.5117 -18.7704l-22.9883 -40.2296q45 4 71.5 -8t38 -32.5
t11.5 -42.5q0 -17 -8.5 -36t-30 -31.5t-61.5 -12.5z" />
    <glyph glyph-name="uni021B" unicode="&#x21b;" 
d="M265 -207l-11 16q19 12 38.5 31t19.5 35q-23 0 -38.5 11.5t-15.5 36.5q0 23 14 37t35 14q20 0 35 -13.5t15 -41.5q0 -27 -15 -52t-36.5 -44t-40.5 -30zM297 -10q-73 0 -118.5 45.5t-45.5 134.5v338h-114v32h114l45 107h23v-107h261v-32h-261v-333q0 -69 28 -106.5
t83 -37.5q44 0 70.5 21t38 55.5t11.5 74.5v26h30v-26q0 -28 -7 -61.5t-24.5 -63t-50 -48.5t-83.5 -19z" />
    <glyph glyph-name="u" unicode="u" 
d="M379 550h24v-498h71v-24l-71 -13l-44 -25h-24v95h-3q-7 -20 -23.5 -42.5t-41.5 -37.5t-58 -15q-48 0 -79.5 31t-31.5 98v369h-102v24l102 13l44 25h24v-429q0 -85 69 -85q29 0 49.5 15t33.5 36.5t17 41.5v359h-102v24l102 13z" />
    <glyph glyph-name="uacute" unicode="&#xfa;" 
d="M236 580l10 180h70l-68 -180h-12zM379 550h24v-498h71v-24l-71 -13l-44 -25h-24v95h-3q-7 -20 -23.5 -42.5t-41.5 -37.5t-58 -15q-48 0 -79.5 31t-31.5 98v369h-102v24l102 13l44 25h24v-429q0 -85 69 -85q29 0 49.5 15t33.5 36.5t17 41.5v359h-102v24l102 13z" />
    <glyph glyph-name="ucircumflex" unicode="&#xfb;" 
d="M165 580l65 170h40l65 -170h-12l-73 106l-73 -106h-12zM379 550h24v-498h71v-24l-71 -13l-44 -25h-24v95h-3q-7 -20 -23.5 -42.5t-41.5 -37.5t-58 -15q-48 0 -79.5 31t-31.5 98v369h-102v24l102 13l44 25h24v-429q0 -85 69 -85q29 0 49.5 15t33.5 36.5t17 41.5v359h-102
v24l102 13z" />
    <glyph glyph-name="udieresis" unicode="&#xfc;" 
d="M176 605q-21 0 -35.5 14.5t-14.5 35.5t14.5 35.5t35.5 14.5q22 0 36 -14.5t14 -35.5t-14 -35.5t-36 -14.5zM323 605q-22 0 -36 14.5t-14 35.5t14 35.5t36 14.5q21 0 35.5 -14.5t14.5 -35.5t-14.5 -35.5t-35.5 -14.5zM379 550h24v-498h71v-24l-71 -13l-44 -25h-24v95h-3
q-7 -20 -23.5 -42.5t-41.5 -37.5t-58 -15q-48 0 -79.5 31t-31.5 98v369h-102v24l102 13l44 25h24v-429q0 -85 69 -85q29 0 49.5 15t33.5 36.5t17 41.5v359h-102v24l102 13z" />
    <glyph glyph-name="uni1EE5" unicode="&#x1ee5;" 
d="M250 -171q-21 0 -35.5 14.5t-14.5 35.5q0 20 14.5 34.5t35.5 14.5t35 -14.5t14 -34.5q0 -21 -14 -35.5t-35 -14.5zM379 550h24v-498h71v-24l-71 -13l-44 -25h-24v95h-3q-7 -20 -23.5 -42.5t-41.5 -37.5t-58 -15q-48 0 -79.5 31t-31.5 98v369h-102v24l102 13l44 25h24
v-429q0 -85 69 -85q29 0 49.5 15t33.5 36.5t17 41.5v359h-102v24l102 13z" />
    <glyph glyph-name="ugrave" unicode="&#xf9;" 
d="M252 580l-68 180h70l10 -180h-12zM379 550h24v-498h71v-24l-71 -13l-44 -25h-24v95h-3q-7 -20 -23.5 -42.5t-41.5 -37.5t-58 -15q-48 0 -79.5 31t-31.5 98v369h-102v24l102 13l44 25h24v-429q0 -85 69 -85q29 0 49.5 15t33.5 36.5t17 41.5v359h-102v24l102 13z" />
    <glyph glyph-name="uni1EE7" unicode="&#x1ee7;" 
d="M235 590v6q0 29 9 44t18 26.5t9 29.5q0 19 -10 27t-23 8t-21 -6.5t-10 -12.5l6 -3q8 -4 14 -9t6 -15q0 -7 -5.5 -14.5t-18.5 -7.5t-21 9t-8 24q0 20 16.5 39t51.5 19q30 0 47.5 -15t17.5 -38q0 -18 -9 -30t-20 -22.5t-20 -22.5t-9 -30v-6h-20zM379 550h24v-498h71v-24
l-71 -13l-44 -25h-24v95h-3q-7 -20 -23.5 -42.5t-41.5 -37.5t-58 -15q-48 0 -79.5 31t-31.5 98v369h-102v24l102 13l44 25h24v-429q0 -85 69 -85q29 0 49.5 15t33.5 36.5t17 41.5v359h-102v24l102 13z" />
    <glyph glyph-name="uhorn" unicode="&#x1b0;" 
d="M379 550h24v-57h16q28 0 40.5 13t12.5 24q-22 -4 -38 8t-16 32t12 31t31 11q16 0 31 -10.5t15 -42.5q0 -17 -7 -38.5t-26 -37t-55 -15.5h-16v-416h71v-24l-71 -13l-44 -25h-24v95h-3q-7 -20 -23.5 -42.5t-41.5 -37.5t-58 -15q-48 0 -79.5 31t-31.5 98v369h-102v24l102 13
l44 25h24v-429q0 -85 69 -85q29 0 49.5 15t33.5 36.5t17 41.5v359h-102v24l102 13z" />
    <glyph glyph-name="uni1EE9" unicode="&#x1ee9;" 
d="M236 580l10 180h70l-68 -180h-12zM379 550h24v-57h16q28 0 40.5 13t12.5 24q-22 -4 -38 8t-16 32t12 31t31 11q16 0 31 -10.5t15 -42.5q0 -17 -7 -38.5t-26 -37t-55 -15.5h-16v-416h71v-24l-71 -13l-44 -25h-24v95h-3q-7 -20 -23.5 -42.5t-41.5 -37.5t-58 -15
q-48 0 -79.5 31t-31.5 98v369h-102v24l102 13l44 25h24v-429q0 -85 69 -85q29 0 49.5 15t33.5 36.5t17 41.5v359h-102v24l102 13z" />
    <glyph glyph-name="uni1EF1" unicode="&#x1ef1;" 
d="M250 -171q-21 0 -35.5 14.5t-14.5 35.5q0 20 14.5 34.5t35.5 14.5t35 -14.5t14 -34.5q0 -21 -14 -35.5t-35 -14.5zM379 550h24v-57h16q28 0 40.5 13t12.5 24q-22 -4 -38 8t-16 32t12 31t31 11q16 0 31 -10.5t15 -42.5q0 -17 -7 -38.5t-26 -37t-55 -15.5h-16v-416h71v-24
l-71 -13l-44 -25h-24v95h-3q-7 -20 -23.5 -42.5t-41.5 -37.5t-58 -15q-48 0 -79.5 31t-31.5 98v369h-102v24l102 13l44 25h24v-429q0 -85 69 -85q29 0 49.5 15t33.5 36.5t17 41.5v359h-102v24l102 13z" />
    <glyph glyph-name="uni1EEB" unicode="&#x1eeb;" 
d="M252 580l-68 180h70l10 -180h-12zM379 550h24v-57h16q28 0 40.5 13t12.5 24q-22 -4 -38 8t-16 32t12 31t31 11q16 0 31 -10.5t15 -42.5q0 -17 -7 -38.5t-26 -37t-55 -15.5h-16v-416h71v-24l-71 -13l-44 -25h-24v95h-3q-7 -20 -23.5 -42.5t-41.5 -37.5t-58 -15
q-48 0 -79.5 31t-31.5 98v369h-102v24l102 13l44 25h24v-429q0 -85 69 -85q29 0 49.5 15t33.5 36.5t17 41.5v359h-102v24l102 13z" />
    <glyph glyph-name="uni1EED" unicode="&#x1eed;" 
d="M235 590v6q0 29 9 44t18 26.5t9 29.5q0 19 -10 27t-23 8t-21 -6.5t-10 -12.5l6 -3q8 -4 14 -9t6 -15q0 -7 -5.5 -14.5t-18.5 -7.5t-21 9t-8 24q0 20 16.5 39t51.5 19q30 0 47.5 -15t17.5 -38q0 -18 -9 -30t-20 -22.5t-20 -22.5t-9 -30v-6h-20zM379 550h24v-57h16
q28 0 40.5 13t12.5 24q-22 -4 -38 8t-16 32t12 31t31 11q16 0 31 -10.5t15 -42.5q0 -17 -7 -38.5t-26 -37t-55 -15.5h-16v-416h71v-24l-71 -13l-44 -25h-24v95h-3q-7 -20 -23.5 -42.5t-41.5 -37.5t-58 -15q-48 0 -79.5 31t-31.5 98v369h-102v24l102 13l44 25h24v-429
q0 -85 69 -85q29 0 49.5 15t33.5 36.5t17 41.5v359h-102v24l102 13z" />
    <glyph glyph-name="uni1EEF" unicode="&#x1eef;" 
d="M289 607q-21 0 -36 12.5t-27.5 25.5t-27.5 13q-13 0 -19 -12.5t-6 -33.5h-13q0 8 1 23t5.5 31t15 27.5t29.5 11.5q21 0 35.5 -13t27.5 -25.5t28 -12.5q14 0 19.5 12.5t5.5 33.5h13q0 -7 -1 -22.5t-5.5 -31.5t-15 -27.5t-29.5 -11.5zM379 550h24v-57h16q28 0 40.5 13
t12.5 24q-22 -4 -38 8t-16 32t12 31t31 11q16 0 31 -10.5t15 -42.5q0 -17 -7 -38.5t-26 -37t-55 -15.5h-16v-416h71v-24l-71 -13l-44 -25h-24v95h-3q-7 -20 -23.5 -42.5t-41.5 -37.5t-58 -15q-48 0 -79.5 31t-31.5 98v369h-102v24l102 13l44 25h24v-429q0 -85 69 -85
q29 0 49.5 15t33.5 36.5t17 41.5v359h-102v24l102 13z" />
    <glyph glyph-name="uhungarumlaut" unicode="&#x171;" 
d="M197 580l10 180h60l-58 -180h-12zM293 580l10 180h60l-58 -180h-12zM379 550h24v-498h71v-24l-71 -13l-44 -25h-24v95h-3q-7 -20 -23.5 -42.5t-41.5 -37.5t-58 -15q-48 0 -79.5 31t-31.5 98v369h-102v24l102 13l44 25h24v-429q0 -85 69 -85q29 0 49.5 15t33.5 36.5
t17 41.5v359h-102v24l102 13z" />
    <glyph glyph-name="umacron" unicode="&#x16b;" 
d="M118 638v31h264v-31h-264zM379 550h24v-498h71v-24l-71 -13l-44 -25h-24v95h-3q-7 -20 -23.5 -42.5t-41.5 -37.5t-58 -15q-48 0 -79.5 31t-31.5 98v369h-102v24l102 13l44 25h24v-429q0 -85 69 -85q29 0 49.5 15t33.5 36.5t17 41.5v359h-102v24l102 13z" />
    <glyph glyph-name="uogonek" unicode="&#x173;" 
d="M346 -179q-26 0 -50.5 17t-24.5 60q0 39 23.5 64.5q20.8398 22.6134 40.5 32.251v90.249h-3q-7 -20 -23.5 -42.5t-41.5 -37.5t-58 -15q-48 0 -79.5 31t-31.5 98v369h-102v24l102 13l44 25h24v-429q0 -85 69 -85q29 0 49.5 15t33.5 36.5t17 41.5v359h-102v24l102 13l44 25
h24v-498h71v-24l-71 -13l-44 -25h-3.2373q-11.8814 -7.30598 -23.7627 -19.5q-19 -19.5 -19 -50.5q0 -27 15 -40.5t37 -13.5q23 0 37.5 12t18.5 23l12 -6q-6 -24 -27.5 -49t-59.5 -25z" />
    <glyph glyph-name="uring" unicode="&#x16f;" 
d="M250 611q26 0 40 16.5t14 39.5t-14 39.5t-40 16.5t-40 -16.5t-14 -39.5t14 -39.5t40 -16.5zM250 584q-38 0 -60.5 24.5t-22.5 58.5q0 35 22.5 59t60.5 24t60.5 -24t22.5 -59q0 -34 -22.5 -58.5t-60.5 -24.5zM379 550h24v-498h71v-24l-71 -13l-44 -25h-24v95h-3
q-7 -20 -23.5 -42.5t-41.5 -37.5t-58 -15q-48 0 -79.5 31t-31.5 98v369h-102v24l102 13l44 25h24v-429q0 -85 69 -85q29 0 49.5 15t33.5 36.5t17 41.5v359h-102v24l102 13z" />
    <glyph glyph-name="utilde" unicode="&#x169;" 
d="M289 607q-21 0 -36 12.5t-27.5 25.5t-27.5 13q-13 0 -19 -12.5t-6 -33.5h-13q0 8 1 23t5.5 31t15 27.5t29.5 11.5q21 0 35.5 -13t27.5 -25.5t28 -12.5q14 0 19.5 12.5t5.5 33.5h13q0 -7 -1 -22.5t-5.5 -31.5t-15 -27.5t-29.5 -11.5zM379 550h24v-498h71v-24l-71 -13
l-44 -25h-24v95h-3q-7 -20 -23.5 -42.5t-41.5 -37.5t-58 -15q-48 0 -79.5 31t-31.5 98v369h-102v24l102 13l44 25h24v-429q0 -85 69 -85q29 0 49.5 15t33.5 36.5t17 41.5v359h-102v24l102 13z" />
    <glyph glyph-name="v" unicode="v" 
d="M226 0l-170 506h-77v34h246v-34h-100l139 -417l139 417h-69v34h168v-34h-67l-169 -506h-40z" />
    <glyph glyph-name="w" unicode="w" 
d="M170 0l-86 506h-57v34h170v-34h-51l59 -350l59 350h-40v34h110v-34h-36l59 -350l59 350h-50v34h113v-34h-36l-86 -506h-31l-63 340l-58 -340h-35z" />
    <glyph glyph-name="wacute" unicode="&#x1e83;" 
d="M269 580l10 180h70l-68 -180h-12zM170 0l-86 506h-57v34h170v-34h-51l59 -350l59 350h-40v34h110v-34h-36l59 -350l59 350h-50v34h113v-34h-36l-86 -506h-31l-63 340l-58 -340h-35z" />
    <glyph glyph-name="wcircumflex" unicode="&#x175;" 
d="M198 580l65 170h40l65 -170h-12l-73 106l-73 -106h-12zM170 0l-86 506h-57v34h170v-34h-51l59 -350l59 350h-40v34h110v-34h-36l59 -350l59 350h-50v34h113v-34h-36l-86 -506h-31l-63 340l-58 -340h-35z" />
    <glyph glyph-name="wdieresis" unicode="&#x1e85;" 
d="M209 605q-21 0 -35.5 14.5t-14.5 35.5t14.5 35.5t35.5 14.5q22 0 36 -14.5t14 -35.5t-14 -35.5t-36 -14.5zM356 605q-22 0 -36 14.5t-14 35.5t14 35.5t36 14.5q21 0 35.5 -14.5t14.5 -35.5t-14.5 -35.5t-35.5 -14.5zM170 0l-86 506h-57v34h170v-34h-51l59 -350l59 350
h-40v34h110v-34h-36l59 -350l59 350h-50v34h113v-34h-36l-86 -506h-31l-63 340l-58 -340h-35z" />
    <glyph glyph-name="wgrave" unicode="&#x1e81;" 
d="M285 580l-68 180h70l10 -180h-12zM170 0l-86 506h-57v34h170v-34h-51l59 -350l59 350h-40v34h110v-34h-36l59 -350l59 350h-50v34h113v-34h-36l-86 -506h-31l-63 340l-58 -340h-35z" />
    <glyph glyph-name="x" unicode="x" 
d="M30 0v34h71l117 233l-121 239h-71v34h210v-34h-70l92 -181l91 181h-55v34h158v-34h-71l-107 -213l131 -259h71v-34h-217v34h77l-102 201l-101 -201h60v-34h-163z" />
    <glyph glyph-name="y" unicode="y" 
d="M73 -190q-49 0 -79.5 19.5t-30.5 51.5q0 20 13.5 35.5t38.5 15.5q22 0 33.5 -11.5t17.5 -27.5t9 -30l6 -22q53 -4 97 38.5t78 142.5l-165 484h-79v34h246v-34h-100l131 -385l127 385h-69v34h168v-34h-67l-161 -488q-17 -51 -42.5 -99t-66.5 -78.5t-105 -30.5z" />
    <glyph glyph-name="yacute" unicode="&#xfd;" 
d="M263 580l10 180h70l-68 -180h-12zM73 -190q-49 0 -79.5 19.5t-30.5 51.5q0 20 13.5 35.5t38.5 15.5q22 0 33.5 -11.5t17.5 -27.5t9 -30l6 -22q53 -4 97 38.5t78 142.5l-165 484h-79v34h246v-34h-100l131 -385l127 385h-69v34h168v-34h-67l-161 -488q-17 -51 -42.5 -99
t-66.5 -78.5t-105 -30.5z" />
    <glyph glyph-name="ycircumflex" unicode="&#x177;" 
d="M192 580l65 170h40l65 -170h-12l-73 106l-73 -106h-12zM73 -190q-49 0 -79.5 19.5t-30.5 51.5q0 20 13.5 35.5t38.5 15.5q22 0 33.5 -11.5t17.5 -27.5t9 -30l6 -22q53 -4 97 38.5t78 142.5l-165 484h-79v34h246v-34h-100l131 -385l127 385h-69v34h168v-34h-67l-161 -488
q-17 -51 -42.5 -99t-66.5 -78.5t-105 -30.5z" />
    <glyph glyph-name="ydieresis" unicode="&#xff;" 
d="M203 605q-21 0 -35.5 14.5t-14.5 35.5t14.5 35.5t35.5 14.5q22 0 36 -14.5t14 -35.5t-14 -35.5t-36 -14.5zM350 605q-22 0 -36 14.5t-14 35.5t14 35.5t36 14.5q21 0 35.5 -14.5t14.5 -35.5t-14.5 -35.5t-35.5 -14.5zM73 -190q-49 0 -79.5 19.5t-30.5 51.5q0 20 13.5 35.5
t38.5 15.5q22 0 33.5 -11.5t17.5 -27.5t9 -30l6 -22q53 -4 97 38.5t78 142.5l-165 484h-79v34h246v-34h-100l131 -385l127 385h-69v34h168v-34h-67l-161 -488q-17 -51 -42.5 -99t-66.5 -78.5t-105 -30.5z" />
    <glyph glyph-name="uni1EF5" unicode="&#x1ef5;" 
d="M375 -171q-21 0 -35.5 14.5t-14.5 35.5q0 20 14.5 34.5t35.5 14.5t35 -14.5t14 -34.5q0 -21 -14 -35.5t-35 -14.5zM73 -190q-49 0 -79.5 19.5t-30.5 51.5q0 20 13.5 35.5t38.5 15.5q22 0 33.5 -11.5t17.5 -27.5t9 -30l6 -22q53 -4 97 38.5t78 142.5l-165 484h-79v34h246
v-34h-100l131 -385l127 385h-69v34h168v-34h-67l-161 -488q-17 -51 -42.5 -99t-66.5 -78.5t-105 -30.5z" />
    <glyph glyph-name="ygrave" unicode="&#x1ef3;" 
d="M279 580l-68 180h70l10 -180h-12zM73 -190q-49 0 -79.5 19.5t-30.5 51.5q0 20 13.5 35.5t38.5 15.5q22 0 33.5 -11.5t17.5 -27.5t9 -30l6 -22q53 -4 97 38.5t78 142.5l-165 484h-79v34h246v-34h-100l131 -385l127 385h-69v34h168v-34h-67l-161 -488q-17 -51 -42.5 -99
t-66.5 -78.5t-105 -30.5z" />
    <glyph glyph-name="uni1EF7" unicode="&#x1ef7;" 
d="M262 590v6q0 29 9 44t18 26.5t9 29.5q0 19 -10 27t-23 8t-21 -6.5t-10 -12.5l6 -3q8 -4 14 -9t6 -15q0 -7 -5.5 -14.5t-18.5 -7.5t-21 9t-8 24q0 20 16.5 39t51.5 19q30 0 47.5 -15t17.5 -38q0 -18 -9 -30t-20 -22.5t-20 -22.5t-9 -30v-6h-20zM73 -190q-49 0 -79.5 19.5
t-30.5 51.5q0 20 13.5 35.5t38.5 15.5q22 0 33.5 -11.5t17.5 -27.5t9 -30l6 -22q53 -4 97 38.5t78 142.5l-165 484h-79v34h246v-34h-100l131 -385l127 385h-69v34h168v-34h-67l-161 -488q-17 -51 -42.5 -99t-66.5 -78.5t-105 -30.5z" />
    <glyph glyph-name="uni1EF9" unicode="&#x1ef9;" 
d="M316 607q-21 0 -36 12.5t-27.5 25.5t-27.5 13q-13 0 -19 -12.5t-6 -33.5h-13q0 8 1 23t5.5 31t15 27.5t29.5 11.5q21 0 35.5 -13t27.5 -25.5t28 -12.5q14 0 19.5 12.5t5.5 33.5h13q0 -7 -1 -22.5t-5.5 -31.5t-15 -27.5t-29.5 -11.5zM73 -190q-49 0 -79.5 19.5t-30.5 51.5
q0 20 13.5 35.5t38.5 15.5q22 0 33.5 -11.5t17.5 -27.5t9 -30l6 -22q53 -4 97 38.5t78 142.5l-165 484h-79v34h246v-34h-100l131 -385l127 385h-69v34h168v-34h-67l-161 -488q-17 -51 -42.5 -99t-66.5 -78.5t-105 -30.5z" />
    <glyph glyph-name="z" unicode="z" 
d="M61 0v20l317 488h-168q-74 0 -83 -72l-14 -120h-28v224h372v-20l-317 -488h187q74 0 83 72l14 120h28v-224h-391z" />
    <glyph glyph-name="zacute" unicode="&#x17a;" 
d="M266 580l10 180h70l-68 -180h-12zM61 0v20l317 488h-168q-74 0 -83 -72l-14 -120h-28v224h372v-20l-317 -488h187q74 0 83 72l14 120h28v-224h-391z" />
    <glyph glyph-name="zcaron" unicode="&#x17e;" 
d="M260 580l-65 170h12l73 -106l73 106h12l-65 -170h-40zM61 0v20l317 488h-168q-74 0 -83 -72l-14 -120h-28v224h372v-20l-317 -488h187q74 0 83 72l14 120h28v-224h-391z" />
    <glyph glyph-name="zdotaccent" unicode="&#x17c;" 
d="M280 630q-23 0 -39 16t-16 39t16 39t39 16t39 -16t16 -39t-16 -39t-39 -16zM61 0v20l317 488h-168q-74 0 -83 -72l-14 -120h-28v224h372v-20l-317 -488h187q74 0 83 72l14 120h28v-224h-391z" />
    <glyph glyph-name="ordfeminine" unicode="&#xaa;" 
d="M175 302q0 -25 16 -39t39 -14q26 0 43.5 16t22.5 30v104l-51 -21q-31 -13 -50.5 -28.5t-19.5 -47.5zM206 216q-37 0 -58.5 21.5t-21.5 52.5q0 30 15 48.5t40.5 31.5t56.5 25l58 22v38q0 32 -20 51t-52 19q-26 0 -44.5 -13.5t-25.5 -27.5q15 -16 21.5 -25.5t6.5 -20.5
q0 -14 -9 -24t-23 -10q-16 0 -24 10.5t-8 26.5q0 20 14 45.5t42.5 44.5t71.5 19q38 0 59.5 -14t31 -36t9.5 -45v-176q0 -28 17 -28q11 0 18.5 10.5t9.5 20.5l14 -4q-4 -20 -18.5 -41t-42.5 -21q-20 0 -34 12.5t-14 41.5q-9 -18 -32.5 -36t-57.5 -18z" />
    <glyph glyph-name="ordmasculine" unicode="&#xba;" 
d="M250 242q38 0 57 31.5t19 86.5v46q0 56 -19 87t-57 31q-37 0 -56.5 -31t-19.5 -87v-46q0 -55 19.5 -86.5t56.5 -31.5zM250 216q-43 0 -71.5 24t-43 62t-14.5 81t14.5 81t43 62t71.5 24t71.5 -24t43 -62t14.5 -81t-14.5 -81t-43 -62t-71.5 -24z" />
    <glyph glyph-name="zero" unicode="0" 
d="M250 27q71 0 101 51t30 137v310q0 86 -30.5 137t-100.5 51t-100.5 -51t-30.5 -137v-310q0 -86 30.5 -137t100.5 -51zM250 -10q-51 0 -89.5 32t-64 86.5t-38.5 122t-13 139.5t12.5 139.5t38.5 122t64.5 86.5t89.5 32t89.5 -32t64.5 -86.5t38.5 -122t12.5 -139.5
t-13 -139.5t-38.5 -122t-64 -86.5t-89.5 -32z" />
    <glyph glyph-name="one" unicode="1" 
d="M-3 0v34h219v601h-182v27l89 8q49 5 81.5 23.5t55.5 56.5h24v-716h189v-34h-476z" />
    <glyph glyph-name="two" unicode="2" 
d="M117 -10q-24 0 -41.5 22.5t-17.5 75.5q0 48 13.5 85t34 65t41.5 47.5t36 31.5l88 75q17 15 39.5 38t39 58t16.5 83q0 67 -36 105.5t-95 38.5q-39 0 -66 -16.5t-43 -40.5t-21 -46l41 -38q7 -6 20 -21t13 -38q0 -22 -14 -35t-32 -13q-22 0 -43.5 22t-21.5 70q0 45 22.5 89
t64.5 73t102 29q54 0 94 -23.5t62 -63.5t22 -90q0 -54 -24.5 -94.5t-57.5 -69.5t-61 -50l-90 -67q-27 -20 -53.5 -46.5t-44 -60.5t-17.5 -79q10 20 35.5 40t60.5 20t59 -17.5t44 -40t40 -40t46 -17.5q25 0 35 16.5t12 40.5t2 46v95h30v-96q0 -22 -2 -50t-10.5 -53.5
t-27.5 -42.5t-54 -17q-33 0 -55 15t-37 37t-28.5 44t-28.5 37t-38 15q-25 0 -44 -18t-27 -35l26 -15q7 -4 19.5 -14t12.5 -29q0 -15 -10.5 -26t-29.5 -11z" />
    <glyph glyph-name="three" unicode="3" 
d="M242 -10q-57 0 -97.5 25.5t-62 69.5t-21.5 97q0 52 18.5 79t46.5 27q20 0 32.5 -13t12.5 -34q0 -25 -15 -39t-31 -25l-30 -21q4 -55 39.5 -93t105.5 -38q65 0 103 36.5t38 105.5v135q0 50 -24.5 85.5t-82.5 35.5q-39 0 -70.5 -16t-61.5 -41l-21 20l260 287h-173
q-14 0 -34.5 -6t-36.5 -21.5t-19 -44.5l-7 -75h-28v214h333v-67l-215 -234l2 -3q11 6 30.5 12.5t46.5 6.5q42 0 81 -22t63.5 -70t24.5 -127q0 -81 -28 -135.5t-75 -82.5t-104 -28z" />
    <glyph glyph-name="four" unicode="4" 
d="M46 247h234v389zM151 0v34h129v179h-267v34l297 493h38v-493h124v-34h-124v-179h129v-34h-326z" />
    <glyph glyph-name="five" unicode="5" 
d="M243 -10q-58 0 -100 25.5t-64 69t-22 97.5q0 52 18.5 79t46.5 27q20 0 32.5 -13t12.5 -34q0 -25 -15 -39t-31 -25l-30 -21q4 -55 42 -93t107 -38q68 0 104.5 36.5t36.5 105.5v145q0 51 -28 86t-93 35q-40 0 -71 -14.5t-50.5 -35t-28.5 -39.5l-29 4l45 392h258l30 10h18
v-77h-288l-33 -284q11 17 32 34.5t52 29.5t69 12q82 0 133.5 -59t51.5 -169q0 -79 -26.5 -134.5t-73 -84t-106.5 -28.5z" />
    <glyph glyph-name="six" unicode="6" 
d="M256 25q57 0 91 37.5t34 107.5v115q0 71 -33.5 109.5t-87.5 38.5q-58 0 -94.5 -38.5t-36.5 -109.5v-115q0 -70 35 -107.5t92 -37.5zM251 -10q-39 0 -76 16.5t-67.5 55t-48.5 105t-18 165.5q0 86 15 161.5t45 133t75.5 90.5t106.5 33q65 0 106 -38t41 -106
q0 -38 -14.5 -64t-43.5 -26q-18 0 -29.5 11.5t-11.5 31.5q0 22 12.5 34t27.5 23l24 18q0 37 -32 61.5t-79 24.5q-59 0 -100.5 -44t-63 -124t-21.5 -189v-45h8q4 32 21.5 66t50.5 57.5t83 23.5q60 0 101.5 -32.5t63.5 -86t22 -115.5q0 -64 -23.5 -119t-68 -88.5t-106.5 -33.5
z" />
    <glyph glyph-name="seven" unicode="7" 
d="M176 0v47q0 102 18 174.5t46 123.5t59 88t59 67t46 61.5t18 72.5q-7 -13 -29 -26.5t-57 -13.5q-34 0 -60 14.5t-48 33t-43.5 33t-47.5 14.5q-24 0 -34.5 -16.5t-12.5 -40t-2 -46.5v-65h-30v219h30v-48h4q5 17 20 37.5t49 20.5q28 0 48.5 -13t36.5 -32t31 -38t32.5 -32
t39.5 -13q25 0 40.5 11.5t20.5 21.5l-26 15q-7 4 -19.5 14t-12.5 29q0 15 10.5 26t29.5 11q24 0 41.5 -22.5t17.5 -75.5q0 -49 -15 -85t-39 -68t-51 -69t-51 -86.5t-39 -121.5t-15 -175v-47h-65z" />
    <glyph glyph-name="eight" unicode="8" 
d="M254 25q64 0 97 34t33 98v134q0 64 -33 98t-97 34t-97 -34t-33 -98v-134q0 -64 33 -98t97 -34zM254 455q108 0 108 105v55q0 105 -108 105t-108 -105v-55q0 -105 108 -105zM254 -10q-67 0 -112 34.5t-67 89t-22 113.5q0 57 19 99.5t47 70t54 38.5v8q-18 8 -38 27
t-34 48.5t-14 68.5q0 55 23.5 91t61.5 54t82 18t82 -18t61.5 -53.5t23.5 -89.5q0 -40 -14 -70t-33.5 -49t-38.5 -27v-8q26 -11 54 -38.5t47 -70t19 -99.5q0 -59 -22 -113.5t-66.5 -89t-112.5 -34.5z" />
    <glyph glyph-name="nine" unicode="9" 
d="M224 715q-57 0 -91 -37.5t-34 -107.5v-115q0 -71 33.5 -109.5t87.5 -38.5q58 0 94.5 38.5t36.5 109.5v115q0 70 -35 107.5t-92 37.5zM229 750q39 0 76 -16.5t67.5 -55t48.5 -105t18 -165.5q0 -86 -15 -161.5t-45 -133t-75.5 -90.5t-106.5 -33q-65 0 -106 38t-41 106
q0 38 14.5 64t43.5 26q18 0 29.5 -11.5t11.5 -31.5q0 -22 -12.5 -34t-27.5 -23l-24 -18q0 -37 32 -61.5t79 -24.5q59 0 100.5 44t63 124t21.5 189v45h-8q-4 -32 -21.5 -66t-50.5 -57.5t-83 -23.5q-60 0 -101.5 32.5t-63.5 86t-22 115.5q0 64 23.5 119t68 88.5t106.5 33.5z
" />
    <glyph glyph-name="uni2080" unicode="&#x2080;" 
d="M250 17q38 0 59 29.5t21 76.5v84q0 47 -21 76.5t-59 29.5q-37 0 -58.5 -29.5t-21.5 -76.5v-84q0 -47 21 -76.5t59 -29.5zM250 -10q-44 0 -73 25.5t-44 65t-15 84.5t14.5 84.5t44 65t73.5 25.5t73.5 -25.5t44 -65t14.5 -84.5t-15 -84.5t-44 -65t-73 -25.5z" />
    <glyph glyph-name="uni2081" unicode="&#x2081;" 
d="M137 0v28h102v233h-85v21l26 2q29 2 43.5 6.5t24 14t22.5 25.5h14l-2 -302h91v-28h-236z" />
    <glyph glyph-name="uni2082" unicode="&#x2082;" 
d="M174 -10q-17 0 -27.5 12t-10.5 31q0 23 13.5 42.5t32.5 36t37 27.5l25 16q12 8 26 19t24 28.5t10 42.5q0 33 -18.5 51.5t-47.5 18.5q-25 0 -43.5 -12.5t-25.5 -24.5l29 -20q19 -13 19 -31q0 -12 -8 -21.5t-25 -9.5q-19 0 -30 14t-11 37q0 41 32.5 67t77.5 26
q46 0 73.5 -26.5t27.5 -63.5q0 -31 -18 -54.5t-41 -38.5t-38 -24l-27 -15q-32 -18 -52.5 -35t-20.5 -31q7 8 22 17t34 9q22 0 39.5 -9.5t33.5 -19t32 -9.5q21 0 24.5 14t3.5 21v28h19v-31q0 -14 -2 -33.5t-13.5 -34t-38.5 -14.5q-21 0 -35 9t-25.5 21.5t-24 21.5t-32.5 9
q-13 0 -21 -4t-10 -9l15 -3q3 -1 12 -4.5t9 -17.5q0 -9 -6 -16t-19 -7z" />
    <glyph glyph-name="uni2083" unicode="&#x2083;" 
d="M248 -10q-45 0 -74 24t-29 67q0 29 12.5 41.5t28.5 12.5q30 0 30 -29q0 -10 -6.5 -21t-26.5 -16l-11 -3q6 -52 65 -52q42 0 59 20.5t17 45.5v34q0 29 -18 45t-49 16q-20 0 -36 -6t-24 -12l-13 18l137 116h-84q-19 0 -29 -7t-12 -27l-3 -27h-14v100h184v-31l-123 -105
l1 -1q2 2 10.5 3.5t21.5 1.5q44 0 73 -22.5t29 -74.5q0 -54 -32 -82.5t-84 -28.5z" />
    <glyph glyph-name="uni2084" unicode="&#x2084;" 
d="M139 110h112v166zM183 0v28h68v54h-139v28l152 220h30v-220h72v-28h-72v-54h74v-28h-185z" />
    <glyph glyph-name="uni2085" unicode="&#x2085;" 
d="M248 -10q-40 0 -70.5 21.5t-30.5 64.5q0 29 12.5 41.5t28.5 12.5q30 0 30 -29q0 -10 -6.5 -21t-26.5 -16l-11 -3q3 -25 24 -36t46 -11q68 0 68 66v54q0 24 -13 40t-43 16q-28 0 -45.5 -12.5t-23.5 -24.5l-23 2l21 180h138l14 5h8v-44h-144l-13 -115q7 10 26 20.5t47 10.5
q41 0 65.5 -22.5t32 -55.5t-2 -66t-36.5 -55.5t-72 -22.5z" />
    <glyph glyph-name="uni2086" unicode="&#x2086;" 
d="M250 14q26 0 42 17.5t16 49.5v35q0 32 -15.5 50t-40.5 18q-27 0 -43.5 -18t-16.5 -50v-35q0 -32 16 -49.5t42 -17.5zM249 -10q-51 0 -84 39.5t-33 124.5q0 83 35 134.5t95 51.5q20 0 40 -6.5t33 -21.5t13 -41q0 -24 -12 -37t-29 -13q-30 0 -30 29q0 10 6.5 20t26.5 15
l11 3q-2 15 -18.5 21.5t-33.5 6.5q-43 0 -68.5 -40t-25.5 -114v-11h3q5 19 24.5 38.5t56.5 19.5q39 0 63 -22t32 -54.5t-0.5 -65.5t-34.5 -55t-70 -22z" />
    <glyph glyph-name="uni2087" unicode="&#x2087;" 
d="M219 0v21q0 53 13 89t33 60t40 41.5t35 33t18 34.5l-3 1q-4 -7 -12 -16t-24 -9q-19 0 -40.5 11t-42 21.5t-35.5 10.5q-17 0 -20 -15t-3 -31v-20h-20v103h20v-21h2q2 8 9.5 17t23.5 9q20 0 40 -13t40.5 -26.5t39.5 -13.5q9 0 14.5 3.5t6.5 6.5l-12 7q-3 2 -8.5 6.5
t-5.5 12.5q0 7 5 12t13 5q11 0 19 -10t8 -35q0 -26 -11 -44.5t-26.5 -36.5t-31.5 -41.5t-27 -59.5t-11 -92v-21h-47z" />
    <glyph glyph-name="uni2088" unicode="&#x2088;" 
d="M254 13q26 0 40.5 16t14.5 45v42q0 29 -14.5 45t-40.5 16q-25 0 -40 -16t-15 -45v-42q0 -29 15 -45t40 -16zM254 201q45 0 45 50v17q0 49 -45 49t-45 -49v-17q0 -50 45 -50zM254 -10q-38 0 -61.5 16t-34 40.5t-10.5 49.5q0 40 18.5 62.5t35.5 29.5v4q-13 5 -26.5 22.5
t-13.5 45.5q0 37 26 58.5t66 21.5q41 0 66.5 -21.5t25.5 -58.5q0 -28 -13.5 -45.5t-26.5 -22.5v-4q17 -7 35.5 -29.5t18.5 -62.5q0 -25 -10.5 -49.5t-33.5 -40.5t-62 -16z" />
    <glyph glyph-name="uni2089" unicode="&#x2089;" 
d="M238 146q27 0 43.5 18t16.5 50v35q0 32 -16 49.5t-42 17.5t-42 -17.5t-16 -49.5v-35q0 -32 15.5 -50t40.5 -18zM228 -10q-20 0 -40 6.5t-33 22t-13 40.5q0 24 12.5 37t28.5 13q30 0 30 -29q0 -10 -6.5 -20t-26.5 -15l-11 -3q2 -15 19 -21.5t33 -6.5q43 0 68.5 40
t25.5 114v11h-3q-4 -19 -23.5 -38.5t-57.5 -19.5q-39 0 -63 22t-32 54.5t0.5 65.5t34.5 55t70 22q51 0 84 -39.5t33 -124.5q0 -83 -35 -134.5t-95 -51.5z" />
    <glyph glyph-name="zero.dnom" 
d="M250 17q38 0 59 29.5t21 76.5v84q0 47 -21 76.5t-59 29.5q-37 0 -58.5 -29.5t-21.5 -76.5v-84q0 -47 21 -76.5t59 -29.5zM250 -10q-44 0 -73 25.5t-44 65t-15 84.5t14.5 84.5t44 65t73.5 25.5t73.5 -25.5t44 -65t14.5 -84.5t-15 -84.5t-44 -65t-73 -25.5z" />
    <glyph glyph-name="one.dnom" 
d="M137 0v28h102v233h-85v21l26 2q29 2 43.5 6.5t24 14t22.5 25.5h14l-2 -302h91v-28h-236z" />
    <glyph glyph-name="two.dnom" 
d="M174 -10q-17 0 -27.5 12t-10.5 31q0 23 13.5 42.5t32.5 36t37 27.5l25 16q12 8 26 19t24 28.5t10 42.5q0 33 -18.5 51.5t-47.5 18.5q-25 0 -43.5 -12.5t-25.5 -24.5l29 -20q19 -13 19 -31q0 -12 -8 -21.5t-25 -9.5q-19 0 -30 14t-11 37q0 41 32.5 67t77.5 26
q46 0 73.5 -26.5t27.5 -63.5q0 -31 -18 -54.5t-41 -38.5t-38 -24l-27 -15q-32 -18 -52.5 -35t-20.5 -31q7 8 22 17t34 9q22 0 39.5 -9.5t33.5 -19t32 -9.5q21 0 24.5 14t3.5 21v28h19v-31q0 -14 -2 -33.5t-13.5 -34t-38.5 -14.5q-21 0 -35 9t-25.5 21.5t-24 21.5t-32.5 9
q-13 0 -21 -4t-10 -9l15 -3q3 -1 12 -4.5t9 -17.5q0 -9 -6 -16t-19 -7z" />
    <glyph glyph-name="three.dnom" 
d="M248 -10q-45 0 -74 24t-29 67q0 29 12.5 41.5t28.5 12.5q30 0 30 -29q0 -10 -6.5 -21t-26.5 -16l-11 -3q6 -52 65 -52q42 0 59 20.5t17 45.5v34q0 29 -18 45t-49 16q-20 0 -36 -6t-24 -12l-13 18l137 116h-84q-19 0 -29 -7t-12 -27l-3 -27h-14v100h184v-31l-123 -105
l1 -1q2 2 10.5 3.5t21.5 1.5q44 0 73 -22.5t29 -74.5q0 -54 -32 -82.5t-84 -28.5z" />
    <glyph glyph-name="four.dnom" 
d="M139 110h112v166zM183 0v28h68v54h-139v28l152 220h30v-220h72v-28h-72v-54h74v-28h-185z" />
    <glyph glyph-name="five.dnom" 
d="M248 -10q-40 0 -70.5 21.5t-30.5 64.5q0 29 12.5 41.5t28.5 12.5q30 0 30 -29q0 -10 -6.5 -21t-26.5 -16l-11 -3q3 -25 24 -36t46 -11q68 0 68 66v54q0 24 -13 40t-43 16q-28 0 -45.5 -12.5t-23.5 -24.5l-23 2l21 180h138l14 5h8v-44h-144l-13 -115q7 10 26 20.5t47 10.5
q41 0 65.5 -22.5t32 -55.5t-2 -66t-36.5 -55.5t-72 -22.5z" />
    <glyph glyph-name="six.dnom" 
d="M250 14q26 0 42 17.5t16 49.5v35q0 32 -15.5 50t-40.5 18q-27 0 -43.5 -18t-16.5 -50v-35q0 -32 16 -49.5t42 -17.5zM249 -10q-51 0 -84 39.5t-33 124.5q0 83 35 134.5t95 51.5q20 0 40 -6.5t33 -21.5t13 -41q0 -24 -12 -37t-29 -13q-30 0 -30 29q0 10 6.5 20t26.5 15
l11 3q-2 15 -18.5 21.5t-33.5 6.5q-43 0 -68.5 -40t-25.5 -114v-11h3q5 19 24.5 38.5t56.5 19.5q39 0 63 -22t32 -54.5t-0.5 -65.5t-34.5 -55t-70 -22z" />
    <glyph glyph-name="seven.dnom" 
d="M219 0v21q0 53 13 89t33 60t40 41.5t35 33t18 34.5l-3 1q-4 -7 -12 -16t-24 -9q-19 0 -40.5 11t-42 21.5t-35.5 10.5q-17 0 -20 -15t-3 -31v-20h-20v103h20v-21h2q2 8 9.5 17t23.5 9q20 0 40 -13t40.5 -26.5t39.5 -13.5q9 0 14.5 3.5t6.5 6.5l-12 7q-3 2 -8.5 6.5
t-5.5 12.5q0 7 5 12t13 5q11 0 19 -10t8 -35q0 -26 -11 -44.5t-26.5 -36.5t-31.5 -41.5t-27 -59.5t-11 -92v-21h-47z" />
    <glyph glyph-name="eight.dnom" 
d="M254 13q26 0 40.5 16t14.5 45v42q0 29 -14.5 45t-40.5 16q-25 0 -40 -16t-15 -45v-42q0 -29 15 -45t40 -16zM254 201q45 0 45 50v17q0 49 -45 49t-45 -49v-17q0 -50 45 -50zM254 -10q-38 0 -61.5 16t-34 40.5t-10.5 49.5q0 40 18.5 62.5t35.5 29.5v4q-13 5 -26.5 22.5
t-13.5 45.5q0 37 26 58.5t66 21.5q41 0 66.5 -21.5t25.5 -58.5q0 -28 -13.5 -45.5t-26.5 -22.5v-4q17 -7 35.5 -29.5t18.5 -62.5q0 -25 -10.5 -49.5t-33.5 -40.5t-62 -16z" />
    <glyph glyph-name="nine.dnom" 
d="M238 146q27 0 43.5 18t16.5 50v35q0 32 -16 49.5t-42 17.5t-42 -17.5t-16 -49.5v-35q0 -32 15.5 -50t40.5 -18zM228 -10q-20 0 -40 6.5t-33 22t-13 40.5q0 24 12.5 37t28.5 13q30 0 30 -29q0 -10 -6.5 -20t-26.5 -15l-11 -3q2 -15 19 -21.5t33 -6.5q43 0 68.5 40
t25.5 114v11h-3q-4 -19 -23.5 -38.5t-57.5 -19.5q-39 0 -63 22t-32 54.5t0.5 65.5t34.5 55t70 22q51 0 84 -39.5t33 -124.5q0 -83 -35 -134.5t-95 -51.5z" />
    <glyph glyph-name="zero.numr" 
d="M250 487q38 0 59 29.5t21 76.5v84q0 47 -21 76.5t-59 29.5q-37 0 -58.5 -29.5t-21.5 -76.5v-84q0 -47 21 -76.5t59 -29.5zM250 460q-44 0 -73 25.5t-44 65t-15 84.5t14.5 84.5t44 65t73.5 25.5t73.5 -25.5t44 -65t14.5 -84.5t-15 -84.5t-44 -65t-73 -25.5z" />
    <glyph glyph-name="one.numr" 
d="M137 470v28h102v233h-85v21l26 2q29 2 43.5 6.5t24 14t22.5 25.5h14l-2 -302h91v-28h-236z" />
    <glyph glyph-name="two.numr" 
d="M174 460q-17 0 -27.5 12t-10.5 31q0 23 13.5 42.5t32.5 36t37 27.5l25 16q12 8 26 19t24 28.5t10 42.5q0 33 -18.5 51.5t-47.5 18.5q-25 0 -43.5 -12.5t-25.5 -24.5l29 -20q19 -13 19 -31q0 -12 -8 -21.5t-25 -9.5q-19 0 -30 14t-11 37q0 41 32.5 67t77.5 26
q46 0 73.5 -26.5t27.5 -63.5q0 -31 -18 -54.5t-41 -38.5t-38 -24l-27 -15q-32 -18 -52.5 -35t-20.5 -31q7 8 22 17t34 9q22 0 39.5 -9.5t33.5 -19t32 -9.5q21 0 24.5 14t3.5 21v28h19v-31q0 -14 -2 -33.5t-13.5 -34t-38.5 -14.5q-21 0 -35 9t-25.5 21.5t-24 21.5t-32.5 9
q-13 0 -21 -4t-10 -9l15 -3q3 -1 12 -4.5t9 -17.5q0 -9 -6 -16t-19 -7z" />
    <glyph glyph-name="three.numr" 
d="M248 460q-45 0 -74 24t-29 67q0 29 12.5 41.5t28.5 12.5q30 0 30 -29q0 -10 -6.5 -21t-26.5 -16l-11 -3q6 -52 65 -52q42 0 59 20.5t17 45.5v34q0 29 -18 45t-49 16q-20 0 -36 -6t-24 -12l-13 18l137 116h-84q-19 0 -29 -7t-12 -27l-3 -27h-14v100h184v-31l-123 -105
l1 -1q2 2 10.5 3.5t21.5 1.5q44 0 73 -22.5t29 -74.5q0 -54 -32 -82.5t-84 -28.5z" />
    <glyph glyph-name="four.numr" 
d="M139 580h112v166zM183 470v28h68v54h-139v28l152 220h30v-220h72v-28h-72v-54h74v-28h-185z" />
    <glyph glyph-name="five.numr" 
d="M248 460q-40 0 -70.5 21.5t-30.5 64.5q0 29 12.5 41.5t28.5 12.5q30 0 30 -29q0 -10 -6.5 -21t-26.5 -16l-11 -3q3 -25 24 -36t46 -11q68 0 68 66v54q0 24 -13 40t-43 16q-28 0 -45.5 -12.5t-23.5 -24.5l-23 2l21 180h138l14 5h8v-44h-144l-13 -115q7 10 26 20.5t47 10.5
q41 0 65.5 -22.5t32 -55.5t-2 -66t-36.5 -55.5t-72 -22.5z" />
    <glyph glyph-name="six.numr" 
d="M250 484q26 0 42 17.5t16 49.5v35q0 32 -15.5 50t-40.5 18q-27 0 -43.5 -18t-16.5 -50v-35q0 -32 16 -49.5t42 -17.5zM249 460q-51 0 -84 39.5t-33 124.5q0 83 35 134.5t95 51.5q20 0 40 -6.5t33 -21.5t13 -41q0 -24 -12 -37t-29 -13q-30 0 -30 29q0 10 6.5 20t26.5 15
l11 3q-2 15 -18.5 21.5t-33.5 6.5q-43 0 -68.5 -40t-25.5 -114v-11h3q5 19 24.5 38.5t56.5 19.5q39 0 63 -22t32 -54.5t-0.5 -65.5t-34.5 -55t-70 -22z" />
    <glyph glyph-name="seven.numr" 
d="M219 470v21q0 53 13 89t33 60t40 41.5t35 33t18 34.5l-3 1q-4 -7 -12 -16t-24 -9q-19 0 -40.5 11t-42 21.5t-35.5 10.5q-17 0 -20 -15t-3 -31v-20h-20v103h20v-21h2q2 8 9.5 17t23.5 9q20 0 40 -13t40.5 -26.5t39.5 -13.5q9 0 14.5 3.5t6.5 6.5l-12 7q-3 2 -8.5 6.5
t-5.5 12.5q0 7 5 12t13 5q11 0 19 -10t8 -35q0 -26 -11 -44.5t-26.5 -36.5t-31.5 -41.5t-27 -59.5t-11 -92v-21h-47z" />
    <glyph glyph-name="eight.numr" 
d="M254 483q26 0 40.5 16t14.5 45v42q0 29 -14.5 45t-40.5 16q-25 0 -40 -16t-15 -45v-42q0 -29 15 -45t40 -16zM254 671q45 0 45 50v17q0 49 -45 49t-45 -49v-17q0 -50 45 -50zM254 460q-38 0 -61.5 16t-34 40.5t-10.5 49.5q0 40 18.5 62.5t35.5 29.5v4q-13 5 -26.5 22.5
t-13.5 45.5q0 37 26 58.5t66 21.5q41 0 66.5 -21.5t25.5 -58.5q0 -28 -13.5 -45.5t-26.5 -22.5v-4q17 -7 35.5 -29.5t18.5 -62.5q0 -25 -10.5 -49.5t-33.5 -40.5t-62 -16z" />
    <glyph glyph-name="nine.numr" 
d="M238 616q27 0 43.5 18t16.5 50v35q0 32 -16 49.5t-42 17.5t-42 -17.5t-16 -49.5v-35q0 -32 15.5 -50t40.5 -18zM228 460q-20 0 -40 6.5t-33 22t-13 40.5q0 24 12.5 37t28.5 13q30 0 30 -29q0 -10 -6.5 -20t-26.5 -15l-11 -3q2 -15 19 -21.5t33 -6.5q43 0 68.5 40
t25.5 114v11h-3q-4 -19 -23.5 -38.5t-57.5 -19.5q-39 0 -63 22t-32 54.5t0.5 65.5t34.5 55t70 22q51 0 84 -39.5t33 -124.5q0 -83 -35 -134.5t-95 -51.5z" />
    <glyph glyph-name="uni2070" unicode="&#x2070;" 
d="M250 17q38 0 59 29.5t21 76.5v84q0 47 -21 76.5t-59 29.5q-37 0 -58.5 -29.5t-21.5 -76.5v-84q0 -47 21 -76.5t59 -29.5zM250 -10q-44 0 -73 25.5t-44 65t-15 84.5t14.5 84.5t44 65t73.5 25.5t73.5 -25.5t44 -65t14.5 -84.5t-15 -84.5t-44 -65t-73 -25.5z" />
    <glyph glyph-name="uni00B9" unicode="&#xb9;" 
d="M137 0v28h102v233h-85v21l26 2q29 2 43.5 6.5t24 14t22.5 25.5h14l-2 -302h91v-28h-236z" />
    <glyph glyph-name="uni00B2" unicode="&#xb2;" 
d="M174 -10q-17 0 -27.5 12t-10.5 31q0 23 13.5 42.5t32.5 36t37 27.5l25 16q12 8 26 19t24 28.5t10 42.5q0 33 -18.5 51.5t-47.5 18.5q-25 0 -43.5 -12.5t-25.5 -24.5l29 -20q19 -13 19 -31q0 -12 -8 -21.5t-25 -9.5q-19 0 -30 14t-11 37q0 41 32.5 67t77.5 26
q46 0 73.5 -26.5t27.5 -63.5q0 -31 -18 -54.5t-41 -38.5t-38 -24l-27 -15q-32 -18 -52.5 -35t-20.5 -31q7 8 22 17t34 9q22 0 39.5 -9.5t33.5 -19t32 -9.5q21 0 24.5 14t3.5 21v28h19v-31q0 -14 -2 -33.5t-13.5 -34t-38.5 -14.5q-21 0 -35 9t-25.5 21.5t-24 21.5t-32.5 9
q-13 0 -21 -4t-10 -9l15 -3q3 -1 12 -4.5t9 -17.5q0 -9 -6 -16t-19 -7z" />
    <glyph glyph-name="uni00B3" unicode="&#xb3;" 
d="M248 -10q-45 0 -74 24t-29 67q0 29 12.5 41.5t28.5 12.5q30 0 30 -29q0 -10 -6.5 -21t-26.5 -16l-11 -3q6 -52 65 -52q42 0 59 20.5t17 45.5v34q0 29 -18 45t-49 16q-20 0 -36 -6t-24 -12l-13 18l137 116h-84q-19 0 -29 -7t-12 -27l-3 -27h-14v100h184v-31l-123 -105
l1 -1q2 2 10.5 3.5t21.5 1.5q44 0 73 -22.5t29 -74.5q0 -54 -32 -82.5t-84 -28.5z" />
    <glyph glyph-name="uni2074" unicode="&#x2074;" 
d="M139 110h112v166zM183 0v28h68v54h-139v28l152 220h30v-220h72v-28h-72v-54h74v-28h-185z" />
    <glyph glyph-name="uni2075" unicode="&#x2075;" 
d="M248 -10q-40 0 -70.5 21.5t-30.5 64.5q0 29 12.5 41.5t28.5 12.5q30 0 30 -29q0 -10 -6.5 -21t-26.5 -16l-11 -3q3 -25 24 -36t46 -11q68 0 68 66v54q0 24 -13 40t-43 16q-28 0 -45.5 -12.5t-23.5 -24.5l-23 2l21 180h138l14 5h8v-44h-144l-13 -115q7 10 26 20.5t47 10.5
q41 0 65.5 -22.5t32 -55.5t-2 -66t-36.5 -55.5t-72 -22.5z" />
    <glyph glyph-name="uni2076" unicode="&#x2076;" 
d="M250 14q26 0 42 17.5t16 49.5v35q0 32 -15.5 50t-40.5 18q-27 0 -43.5 -18t-16.5 -50v-35q0 -32 16 -49.5t42 -17.5zM249 -10q-51 0 -84 39.5t-33 124.5q0 83 35 134.5t95 51.5q20 0 40 -6.5t33 -21.5t13 -41q0 -24 -12 -37t-29 -13q-30 0 -30 29q0 10 6.5 20t26.5 15
l11 3q-2 15 -18.5 21.5t-33.5 6.5q-43 0 -68.5 -40t-25.5 -114v-11h3q5 19 24.5 38.5t56.5 19.5q39 0 63 -22t32 -54.5t-0.5 -65.5t-34.5 -55t-70 -22z" />
    <glyph glyph-name="uni2077" unicode="&#x2077;" 
d="M219 0v21q0 53 13 89t33 60t40 41.5t35 33t18 34.5l-3 1q-4 -7 -12 -16t-24 -9q-19 0 -40.5 11t-42 21.5t-35.5 10.5q-17 0 -20 -15t-3 -31v-20h-20v103h20v-21h2q2 8 9.5 17t23.5 9q20 0 40 -13t40.5 -26.5t39.5 -13.5q9 0 14.5 3.5t6.5 6.5l-12 7q-3 2 -8.5 6.5
t-5.5 12.5q0 7 5 12t13 5q11 0 19 -10t8 -35q0 -26 -11 -44.5t-26.5 -36.5t-31.5 -41.5t-27 -59.5t-11 -92v-21h-47z" />
    <glyph glyph-name="uni2078" unicode="&#x2078;" 
d="M254 13q26 0 40.5 16t14.5 45v42q0 29 -14.5 45t-40.5 16q-25 0 -40 -16t-15 -45v-42q0 -29 15 -45t40 -16zM254 201q45 0 45 50v17q0 49 -45 49t-45 -49v-17q0 -50 45 -50zM254 -10q-38 0 -61.5 16t-34 40.5t-10.5 49.5q0 40 18.5 62.5t35.5 29.5v4q-13 5 -26.5 22.5
t-13.5 45.5q0 37 26 58.5t66 21.5q41 0 66.5 -21.5t25.5 -58.5q0 -28 -13.5 -45.5t-26.5 -22.5v-4q17 -7 35.5 -29.5t18.5 -62.5q0 -25 -10.5 -49.5t-33.5 -40.5t-62 -16z" />
    <glyph glyph-name="uni2079" unicode="&#x2079;" 
d="M238 146q27 0 43.5 18t16.5 50v35q0 32 -16 49.5t-42 17.5t-42 -17.5t-16 -49.5v-35q0 -32 15.5 -50t40.5 -18zM228 -10q-20 0 -40 6.5t-33 22t-13 40.5q0 24 12.5 37t28.5 13q30 0 30 -29q0 -10 -6.5 -20t-26.5 -15l-11 -3q2 -15 19 -21.5t33 -6.5q43 0 68.5 40
t25.5 114v11h-3q-4 -19 -23.5 -38.5t-57.5 -19.5q-39 0 -63 22t-32 54.5t0.5 65.5t34.5 55t70 22q51 0 84 -39.5t33 -124.5q0 -83 -35 -134.5t-95 -51.5z" />
    <glyph glyph-name="fraction" unicode="&#x2044;" 
d="M77 0l312 740h29l-312 -740h-29z" />
    <glyph glyph-name="onehalf" unicode="&#xbd;" 
d="M324 -10q-17 0 -27.5 12t-10.5 31q0 23 13.5 42.5t32.5 36t37 27.5l25 16q12 8 26 19t24 28.5t10 42.5q0 33 -18.5 51.5t-47.5 18.5q-25 0 -43.5 -12.5t-25.5 -24.5l29 -20q19 -13 19 -31q0 -12 -8 -21.5t-25 -9.5q-19 0 -30 14t-11 37q0 41 32.5 67t77.5 26
q46 0 73.5 -26.5t27.5 -63.5q0 -31 -18 -54.5t-41 -38.5t-38 -24l-27 -15q-32 -18 -52.5 -35t-20.5 -31q7 8 22 17t34 9q22 0 39.5 -9.5t33.5 -19t32 -9.5q21 0 24.5 14t3.5 21v28h19v-31q0 -14 -2 -33.5t-13.5 -34t-38.5 -14.5q-21 0 -35 9t-25.5 21.5t-24 21.5t-32.5 9
q-13 0 -21 -4t-10 -9l15 -3q3 -1 12 -4.5t9 -17.5q0 -9 -6 -16t-19 -7zM-22 408v28h102v233h-85v21l26 2q29 2 43.5 6.5t24 14t22.5 25.5h14l-2 -302h91v-28h-236zM95 0l312 740h29l-312 -740h-29z" />
    <glyph glyph-name="onequarter" unicode="&#xbc;" 
d="M289 110h112v166zM333 0v28h68v54h-139v28l152 220h30v-220h72v-28h-72v-54h74v-28h-185zM-22 408v28h102v233h-85v21l26 2q29 2 43.5 6.5t24 14t22.5 25.5h14l-2 -302h91v-28h-236zM95 0l312 740h29l-312 -740h-29z" />
    <glyph glyph-name="threequarters" unicode="&#xbe;" 
d="M289 110h112v166zM333 0v28h68v54h-139v28l152 220h30v-220h72v-28h-72v-54h74v-28h-185zM89 398q-45 0 -74 24t-29 67q0 29 12.5 41.5t28.5 12.5q30 0 30 -29q0 -10 -6.5 -21t-26.5 -16l-11 -3q6 -52 65 -52q42 0 59 20.5t17 45.5v34q0 29 -18 45t-49 16q-20 0 -36 -6
t-24 -12l-13 18l137 116h-84q-19 0 -29 -7t-12 -27l-3 -27h-14v100h184v-31l-123 -105l1 -1q2 2 10.5 3.5t21.5 1.5q44 0 73 -22.5t29 -74.5q0 -54 -32 -82.5t-84 -28.5zM95 0l312 740h29l-312 -740h-29z" />
    <glyph glyph-name="oneeighth" unicode="&#x215b;" 
d="M404 13q26 0 40.5 16t14.5 45v42q0 29 -14.5 45t-40.5 16q-25 0 -40 -16t-15 -45v-42q0 -29 15 -45t40 -16zM404 201q45 0 45 50v17q0 49 -45 49t-45 -49v-17q0 -50 45 -50zM404 -10q-38 0 -61.5 16t-34 40.5t-10.5 49.5q0 40 18.5 62.5t35.5 29.5v4q-13 5 -26.5 22.5
t-13.5 45.5q0 37 26 58.5t66 21.5q41 0 66.5 -21.5t25.5 -58.5q0 -28 -13.5 -45.5t-26.5 -22.5v-4q17 -7 35.5 -29.5t18.5 -62.5q0 -25 -10.5 -49.5t-33.5 -40.5t-62 -16zM-22 408v28h102v233h-85v21l26 2q29 2 43.5 6.5t24 14t22.5 25.5h14l-2 -302h91v-28h-236zM95 0
l312 740h29l-312 -740h-29z" />
    <glyph glyph-name="threeeighths" unicode="&#x215c;" 
d="M404 13q26 0 40.5 16t14.5 45v42q0 29 -14.5 45t-40.5 16q-25 0 -40 -16t-15 -45v-42q0 -29 15 -45t40 -16zM404 201q45 0 45 50v17q0 49 -45 49t-45 -49v-17q0 -50 45 -50zM404 -10q-38 0 -61.5 16t-34 40.5t-10.5 49.5q0 40 18.5 62.5t35.5 29.5v4q-13 5 -26.5 22.5
t-13.5 45.5q0 37 26 58.5t66 21.5q41 0 66.5 -21.5t25.5 -58.5q0 -28 -13.5 -45.5t-26.5 -22.5v-4q17 -7 35.5 -29.5t18.5 -62.5q0 -25 -10.5 -49.5t-33.5 -40.5t-62 -16zM89 398q-45 0 -74 24t-29 67q0 29 12.5 41.5t28.5 12.5q30 0 30 -29q0 -10 -6.5 -21t-26.5 -16
l-11 -3q6 -52 65 -52q42 0 59 20.5t17 45.5v34q0 29 -18 45t-49 16q-20 0 -36 -6t-24 -12l-13 18l137 116h-84q-19 0 -29 -7t-12 -27l-3 -27h-14v100h184v-31l-123 -105l1 -1q2 2 10.5 3.5t21.5 1.5q44 0 73 -22.5t29 -74.5q0 -54 -32 -82.5t-84 -28.5zM95 0l312 740h29
l-312 -740h-29z" />
    <glyph glyph-name="fiveeighths" unicode="&#x215d;" 
d="M404 13q26 0 40.5 16t14.5 45v42q0 29 -14.5 45t-40.5 16q-25 0 -40 -16t-15 -45v-42q0 -29 15 -45t40 -16zM404 201q45 0 45 50v17q0 49 -45 49t-45 -49v-17q0 -50 45 -50zM404 -10q-38 0 -61.5 16t-34 40.5t-10.5 49.5q0 40 18.5 62.5t35.5 29.5v4q-13 5 -26.5 22.5
t-13.5 45.5q0 37 26 58.5t66 21.5q41 0 66.5 -21.5t25.5 -58.5q0 -28 -13.5 -45.5t-26.5 -22.5v-4q17 -7 35.5 -29.5t18.5 -62.5q0 -25 -10.5 -49.5t-33.5 -40.5t-62 -16zM89 398q-40 0 -70.5 21.5t-30.5 64.5q0 29 12.5 41.5t28.5 12.5q30 0 30 -29q0 -10 -6.5 -21
t-26.5 -16l-11 -3q3 -25 24 -36t46 -11q68 0 68 66v54q0 24 -13 40t-43 16q-28 0 -45.5 -12.5t-23.5 -24.5l-23 2l21 180h138l14 5h8v-44h-144l-13 -115q7 10 26 20.5t47 10.5q41 0 65.5 -22.5t32 -55.5t-2 -66t-36.5 -55.5t-72 -22.5zM95 0l312 740h29l-312 -740h-29z" />
    <glyph glyph-name="seveneighths" unicode="&#x215e;" 
d="M390 13q26 0 40.5 16t14.5 45v42q0 29 -14.5 45t-40.5 16q-25 0 -40 -16t-15 -45v-42q0 -29 15 -45t40 -16zM390 201q45 0 45 50v17q0 49 -45 49t-45 -49v-17q0 -50 45 -50zM390 -10q-38 0 -61.5 16t-34 40.5t-10.5 49.5q0 40 18.5 62.5t35.5 29.5v4q-13 5 -26.5 22.5
t-13.5 45.5q0 37 26 58.5t66 21.5q41 0 66.5 -21.5t25.5 -58.5q0 -28 -13.5 -45.5t-26.5 -22.5v-4q17 -7 35.5 -29.5t18.5 -62.5q0 -25 -10.5 -49.5t-33.5 -40.5t-62 -16zM65 408v21q0 53 13 89t33 60t40 41.5t35 33t18 34.5l-3 1q-4 -7 -12 -16t-24 -9q-19 0 -40.5 11
t-42 21.5t-35.5 10.5q-17 0 -20 -15t-3 -31v-20h-20v103h20v-21h2q2 8 9.5 17t23.5 9q20 0 40 -13t40.5 -26.5t39.5 -13.5q9 0 14.5 3.5t6.5 6.5l-12 7q-3 2 -8.5 6.5t-5.5 12.5q0 7 5 12t13 5q11 0 19 -10t8 -35q0 -26 -11 -44.5t-26.5 -36.5t-31.5 -41.5t-27 -59.5
t-11 -92v-21h-47zM81 0l312 740h29l-312 -740h-29z" />
    <glyph glyph-name="period" unicode="." 
d="M250 -10q-23 0 -39 16t-16 39t16 39t39 16t39 -16t16 -39t-16 -39t-39 -16z" />
    <glyph glyph-name="comma" unicode="," 
d="M203 -101l-12 18q21 14 42.5 35t21.5 38q-25 0 -42.5 13t-17.5 40q0 26 16 41.5t39 15.5q22 0 38.5 -14.5t16.5 -46.5q0 -30 -16.5 -57.5t-40 -49t-45.5 -33.5z" />
    <glyph glyph-name="colon" unicode=":" 
d="M250 -10q-23 0 -39 16t-16 39t16 39t39 16t39 -16t16 -39t-16 -39t-39 -16zM250 440q-23 0 -39 16t-16 39t16 39t39 16t39 -16t16 -39t-16 -39t-39 -16z" />
    <glyph glyph-name="semicolon" unicode=";" 
d="M209 -101l-12 18q21 14 42.5 35t21.5 38q-25 0 -42.5 13t-17.5 40q0 26 16 41.5t39 15.5q22 0 38.5 -14.5t16.5 -46.5q0 -30 -16.5 -57.5t-40 -49t-45.5 -33.5zM254 416q-23 0 -39 16t-16 39t16 39t39 16t39 -16t16 -39t-16 -39t-39 -16z" />
    <glyph glyph-name="ellipsis" unicode="&#x2026;" 
d="M116 -9q-23 0 -39 16t-16 39t16 39t39 16t39 -16t16 -39t-16 -39t-39 -16zM396 -9q-23 0 -39 16t-16 39t16 39t39 16t39 -16t16 -39t-16 -39t-39 -16zM256 -10q-23 0 -39 16t-16 39t16 39t39 16t39 -16t16 -39t-16 -39t-39 -16z" />
    <glyph glyph-name="exclam" unicode="!" 
d="M248 -10q-23 0 -39 16t-16 39t16 39t39 16t39 -16t16 -39t-16 -39t-39 -16zM213 740h70l-21 -568h-28z" />
    <glyph glyph-name="exclamdown" unicode="&#xa1;" 
d="M213 -200l21 568h28l21 -568h-70zM248 440q-23 0 -39 16t-16 39t16 39t39 16t39 -16t16 -39t-16 -39t-39 -16z" />
    <glyph glyph-name="question" unicode="?" 
d="M223 -10q-23 0 -39 16t-16 39t16 39t39 16t39 -16t16 -39t-16 -39t-39 -16zM237 197v-25h-28v25q0 56 16 96.5t39.5 72t46.5 61.5t39 64.5t16 81.5q0 68 -36 105t-95 37q-39 0 -66 -16.5t-43 -40.5t-21 -46l41 -38q7 -6 20 -21t13 -38q0 -22 -14 -35t-32 -13
q-22 0 -43.5 22t-21.5 70q0 45 22.5 89t65 73t102.5 29q54 0 93.5 -23.5t61.5 -62.5t22 -87q0 -49 -20 -85t-49.5 -66.5t-59 -62.5t-49.5 -71.5t-20 -94.5z" />
    <glyph glyph-name="questiondown" unicode="&#xbf;" 
d="M245 -210q-54 0 -93.5 23.5t-61.5 63t-22 86.5q0 49 20 85t49.5 66.5t59 62.5t49.5 71.5t20 94.5v25h28v-25q0 -56 -16 -96.5t-39 -72t-46.5 -61.5t-39.5 -64.5t-16 -81.5q0 -67 36 -104.5t95 -37.5q39 0 66 16.5t43 40.5t21 46l-41 38q-7 6 -20 21t-13 38t14 35.5
t32 12.5q23 0 44 -22t21 -70q0 -45 -22.5 -89t-64.5 -73t-103 -29zM280 440q-23 0 -39 16t-16 39t16 39t39 16t39 -16t16 -39t-16 -39t-39 -16z" />
    <glyph glyph-name="periodcentered" unicode="&#xb7;" 
d="M250 196q-23 0 -39 16t-16 39t16 39t39 16t39 -16t16 -39t-16 -39t-39 -16z" />
    <glyph glyph-name="bullet" unicode="&#x2022;" 
d="M244.397 206.992q-41.4004 0 -70.2002 28.7998q-28.7998 28.7998 -28.7998 70.1992q0 41.4004 28.7998 70.2002t70.2002 28.7998q41.3994 0 70.1992 -28.7998t28.7998 -70.2002q0 -41.3994 -28.7998 -70.1992q-28.7998 -28.7998 -70.1992 -28.7998z" />
    <glyph glyph-name="asterisk" unicode="*" 
d="M166 374l-57 41l116 124l-1 4l-167 32l22 66l153 -72l4 3l-21 168h70l-21 -168l4 -3l153 72l21 -66l-166 -32l-1 -4l116 -124l-57 -41l-82 148h-4z" />
    <glyph glyph-name="numbersign" unicode="#" 
d="M176 298h125l34 145h-125zM72 0l63 268h-112v30h119l34 145h-133v30h140l62 267h34l-62 -267h125l62 267h34l-62 -267h111v-30h-118l-34 -145h132v-30h-139l-63 -268h-34l63 268h-125l-63 -268h-34z" />
    <glyph glyph-name="slash" unicode="/" 
d="M47 -173l312 947h35l-312 -947h-35z" />
    <glyph glyph-name="backslash" unicode="\" 
d="M418 -173l-312 947h35l312 -947h-35z" />
    <glyph glyph-name="parenleft" unicode="(" 
d="M302 -122q-30 33 -63.5 97t-56.5 151.5t-23 192.5t23 193t56.5 151.5t63.5 96.5h28q-28 -33 -58.5 -96.5t-51.5 -151.5t-21 -193t21 -192.5t51.5 -151.5t58.5 -97h-28z" />
    <glyph glyph-name="parenright" unicode=")" 
d="M179 -122q28 33 58.5 97t51.5 151.5t21 192.5t-21 193t-51.5 151.5t-58.5 96.5h28q31 -33 64 -96.5t56 -151.5t23 -193t-23 -192.5t-56 -151.5t-64 -97h-28z" />
    <glyph glyph-name="braceleft" unicode="{" 
d="M322 -127q-61 0 -91 29t-30 75q0 37 12 81.5l24 89l12 80.5q0 34 -12 51t-31 23.5t-40 6.5h-38v27h38q21 0 40 6.5t31 24t12 50.5q0 36 -12 80.5l-24 89l-12 81.5q0 46 30 75t91 29h54v-24h-48q-46 0 -66.5 -21.5t-20.5 -56.5q0 -32 12 -76.5t24 -91t12 -85.5
q0 -36 -19.5 -63.5t-63.5 -27.5v-7q44 0 63.5 -27.5t19.5 -63.5q0 -39 -12 -85.5t-24 -91t-12 -76.5q0 -35 20.5 -56.5t66.5 -21.5h48v-24h-54z" />
    <glyph glyph-name="braceright" unicode="}" 
d="M136 -127v24h48q47 0 67 21.5t20 56.5q0 32 -12 76.5t-24 91t-12 85.5q0 36 19.5 63.5t63.5 27.5v7q-44 0 -63.5 27.5t-19.5 63.5q0 39 12 85.5t24 91t12 76.5q0 35 -20 56.5t-67 21.5h-48v24h54q61 0 91 -29t30 -75q0 -37 -12 -81.5l-24 -89l-12 -80.5q0 -33 12 -50.5
t31 -24t40 -6.5h38v-27h-38q-21 0 -40 -6.5t-31 -23.5t-12 -51q0 -36 12 -80.5l24 -89l12 -81.5q0 -46 -30 -75t-91 -29h-54z" />
    <glyph glyph-name="bracketleft" unicode="[" 
d="M189 -122v1h-2v881h169v-26h-131v-830h131v-26h-167z" />
    <glyph glyph-name="bracketright" unicode="]" 
d="M187 -122v26h131v830h-131v26h169v-881h-2v-1h-167z" />
    <glyph glyph-name="hyphen" unicode="-" 
d="M112 291v34h264v-34h-264z" />
    <glyph glyph-name="uni00AD" unicode="&#xad;" 
d="M112 291v34h264v-34h-264z" />
    <glyph glyph-name="endash" unicode="&#x2013;" 
d="M87.4014 291v34h316.804v-34h-316.804z" />
    <glyph glyph-name="emdash" unicode="&#x2014;" 
d="M49 291v34h396v-34h-396z" />
    <glyph glyph-name="underscore" unicode="_" 
d="M87.4014 -34v34h316.804v-34h-316.804z" />
    <glyph glyph-name="quotesinglbase" unicode="&#x201a;" 
d="M203 -101l-12 18q21 14 42.5 35t21.5 38q-25 0 -42.5 13t-17.5 40q0 26 16 41.5t39 15.5q22 0 38.5 -14.5t16.5 -46.5q0 -30 -16.5 -57.5t-40 -49t-45.5 -33.5z" />
    <glyph glyph-name="quotedblbase" unicode="&#x201e;" 
d="M120 -101l-12 18q21 14 42.5 35t21.5 38q-25 0 -42.5 13t-17.5 40q0 26 16 41.5t39 15.5q22 0 38.5 -14.5t16.5 -46.5q0 -30 -16.5 -57.5t-40 -49t-45.5 -33.5zM309 -101l-12 18q21 14 42.5 35t21.5 38q-25 0 -42.5 13t-17.5 40q0 26 16 41.5t39 15.5q22 0 38.5 -14.5
t16.5 -46.5q0 -30 -16.5 -57.5t-40 -49t-45.5 -33.5z" />
    <glyph glyph-name="quotedblleft" unicode="&#x201c;" 
d="M395 750l12 -18q-21 -14 -42.5 -35t-21.5 -38q25 0 42.5 -13t17.5 -40q0 -26 -16 -41.5t-39 -15.5q-22 0 -38.5 14.5t-16.5 46.5q0 30 16.5 57.5t40 49t45.5 33.5zM206 750l12 -18q-21 -14 -42.5 -35t-21.5 -38q25 0 42.5 -13t17.5 -40q0 -26 -16 -41.5t-39 -15.5
q-22 0 -38.5 14.5t-16.5 46.5q0 30 16.5 57.5t40 49t45.5 33.5z" />
    <glyph glyph-name="quotedblright" unicode="&#x201d;" 
d="M116 549l-12 18q21 14 42.5 35t21.5 38q-25 0 -42.5 13t-17.5 40q0 26 16 41.5t39 15.5q22 0 38.5 -14.5t16.5 -46.5q0 -30 -16.5 -57.5t-40 -49t-45.5 -33.5zM305 549l-12 18q21 14 42.5 35t21.5 38q-25 0 -42.5 13t-17.5 40q0 26 16 41.5t39 15.5q22 0 38.5 -14.5
t16.5 -46.5q0 -30 -16.5 -57.5t-40 -49t-45.5 -33.5z" />
    <glyph glyph-name="quoteleft" unicode="&#x2018;" 
d="M293 750l12 -18q-21 -14 -42.5 -35t-21.5 -38q25 0 42.5 -13t17.5 -40q0 -26 -16 -41.5t-39 -15.5q-22 0 -38.5 14.5t-16.5 46.5q0 30 16.5 57.5t40 49t45.5 33.5z" />
    <glyph glyph-name="quoteright" unicode="&#x2019;" 
d="M203 549l-12 18q21 14 42.5 35t21.5 38q-25 0 -42.5 13t-17.5 40q0 26 16 41.5t39 15.5q22 0 38.5 -14.5t16.5 -46.5q0 -30 -16.5 -57.5t-40 -49t-45.5 -33.5z" />
    <glyph glyph-name="guillemotleft" unicode="&#xab;" 
d="M270 70l-220 199v12l220 199l10 -12l-156 -193l156 -193zM432 70l-220 199v12l220 199l10 -12l-156 -193l156 -193z" />
    <glyph glyph-name="guillemotright" unicode="&#xbb;" 
d="M222 70l220 199v12l-220 199l-10 -12l156 -193l-156 -193zM60 70l220 199v12l-220 199l-10 -12l156 -193l-156 -193z" />
    <glyph glyph-name="guilsinglleft" unicode="&#x2039;" 
d="M343 70l-220 199v12l220 199l10 -12l-156 -193l156 -193z" />
    <glyph glyph-name="guilsinglright" unicode="&#x203a;" 
d="M133 70l-10 12l156 193l-156 193l10 12l220 -199v-12z" />
    <glyph glyph-name="quotedbl" unicode="&#x22;" 
d="M165 450l-21 290h70l-21 -290h-28zM314 450l-21 290h70l-21 -290h-28z" />
    <glyph glyph-name="quotesingle" unicode="'" 
d="M234 450l-21 290h70l-21 -290h-28z" />
    <glyph glyph-name="cent" unicode="&#xa2;" 
d="M142 221q0 -85 28.5 -134.5t83.5 -58.5v487q-54 -13 -83 -63.5t-29 -130.5v-100zM254 -92v83q-61 5 -102 43t-62.5 98.5t-21.5 131.5q0 76 23 137.5t65 100t98 47.5v84h30v-82q44 0 79.5 -17.5t56.5 -47t21 -66.5q0 -35 -17.5 -51t-37.5 -16q-16 0 -29.5 10.5t-13.5 29.5
q0 20 15 37.5t33 48.5q-10 13 -36.5 26.5t-64.5 13.5h-6v-493q25 1 54 12t49.5 41.5t20.5 89.5v25h32v-25q0 -77 -43.5 -125.5t-112.5 -53.5v-82h-30z" />
    <glyph glyph-name="currency" unicode="&#xa4;" 
d="M252 318q69 0 105 32.5t36 82.5v63q0 50 -36 82.5t-105 32.5t-105.5 -32.5t-36.5 -82.5v-63q0 -50 36.5 -82.5t105.5 -32.5zM53 237l-21 21l84 85q-44 50 -44 121q0 38 13 71t36 58l-89 90l21 21l91 -92q44 32 108 32t107 -32l91 92l22 -21l-90 -90q49 -51 49 -129
q0 -72 -44 -122l85 -84l-22 -21l-85 85q-22 -17 -50 -27t-63 -10q-34 0 -62.5 10t-51.5 27z" />
    <glyph glyph-name="dollar" unicode="$" 
d="M374 136q0 56 -29.5 101t-70.5 87v-299q49 5 74.5 33.5t25.5 77.5zM154 624q0 -46 26 -86t64 -79v259q-44 -4 -67 -28.5t-23 -65.5zM240 -10q-51 0 -96 11t-68 21v194h18l8 -48q2 -14 9 -37t22 -46.5t42 -40.5t69 -20v330q-38 36 -74 74t-59.5 80.5t-23.5 94.5
q0 64 40 103.5t117 43.5v94h30v-93q36 -1 77.5 -8t67.5 -13v-167h-18l-7 31q-5 21 -15 49t-34 50t-71 26v-290q39 -38 77.5 -79t64 -88.5t25.5 -105.5q0 -69 -42 -113t-125 -51v-95h-30v93h-4z" />
    <glyph glyph-name="Euro" unicode="&#x20ac;" 
d="M294 -10q-56 0 -94.5 26.5t-63.5 71t-38 100.5t-17 115h-50v30h49q-1 18 -1 37t1 38h-49v30h50q5 60 18 116t38 100t64 70t94 26q35 0 68 -10t49 -20v-171h-16q-1 36 -13.5 75t-37.5 65.5t-65 26.5q-51 0 -84 -46.5t-33 -134.5v-97h184v-30h-184v-75h184v-30h-184v-98
q0 -88 33 -134.5t84 -46.5q40 0 65 27t37.5 65.5t13.5 74.5h16v-171q-16 -10 -49 -20t-69 -10z" />
    <glyph glyph-name="sterling" unicode="&#xa3;" 
d="M303 -110q-34 0 -62 16t-49.5 41t-35.5 51q-25 -8 -48 -8q-31 0 -46.5 13t-17 29.5t9.5 29.5t33 13q21 0 39.5 -13t37.5 -30q21 19 36.5 55t15.5 92q0 48 -11.5 93.5t-26.5 89.5h-129v32h118q-14 44 -25.5 88.5t-11.5 91.5q0 64 22 102.5t60.5 56t87.5 17.5q57 0 95 -21
t38 -59q0 -18 -10 -30t-30 -12q-28 0 -42.5 18t-20.5 28l-28 50q-42 7 -73.5 -26t-31.5 -112q0 -50 12.5 -98t28.5 -94h184v-32h-173q14 -42 24.5 -84t10.5 -84q0 -74 -30 -118.5t-68 -64.5q23 -22 50.5 -39.5t63.5 -17.5q45 0 68 21.5t31.5 51.5t8.5 55v38h29v-38
q0 -23 -4.5 -55.5t-18.5 -63.5t-40.5 -52t-70.5 -21z" />
    <glyph glyph-name="yen" unicode="&#xa5;" 
d="M69 0v34h144v277h-136v32h136v2l-18 44h-118v32h104l-119 285h-78v34h241v-34h-96l134 -315l123 315h-62v34h163v-34h-66l-109 -285h99v-32h-111l-17 -44v-2h128v-32h-128v-277h144v-34h-358z" />
    <glyph glyph-name="uni2215" unicode="&#x2215;" 
d="M121 -143l252 947h35l-252 -947h-35z" />
    <glyph glyph-name="plus" unicode="+" 
d="M226 150v141h-142v34h142v142h34v-142h141v-34h-141v-141h-34z" />
    <glyph glyph-name="minus" unicode="&#x2212;" 
d="M112 291v34h264v-34h-264z" />
    <glyph glyph-name="multiply" unicode="&#xd7;" 
d="M118.867 208.261l99.6992 99.7002l-100.407 100.407l24.042 24.041l100.406 -100.407l100.407 100.407l24.041 -24.041l-100.406 -100.407l99.6992 -99.7002l-24.041 -24.041l-99.7002 99.7002l-99.6992 -99.7002z" />
    <glyph glyph-name="divide" unicode="&#xf7;" 
d="M250 175q-23 0 -39 16t-16 39t16 39t39 16t39 -16t16 -39t-16 -39t-39 -16zM52 345v32h396v-32h-396zM250 447q-23 0 -39 16t-16 39t16 39t39 16t39 -16t16 -39t-16 -39t-39 -16z" />
    <glyph glyph-name="equal" unicode="=" 
d="M102 214v34h294v-34h-294zM102 342v34h294v-34h-294z" />
    <glyph glyph-name="notequal" unicode="&#x2260;" 
d="M147 133l42 81h-87v34h104l49 94h-153v34h170l42 81h37l-42 -81h87v-34h-104l-49 -94h153v-34h-170l-42 -81h-37z" />
    <glyph glyph-name="greater" unicode="&#x3e;" 
d="M68 85l357 215v16l-357 215l-8 -14l271 -209l-271 -209z" />
    <glyph glyph-name="less" unicode="&#x3c;" 
d="M417 85l-357 215v16l357 215l8 -14l-271 -209l271 -209z" />
    <glyph glyph-name="greaterequal" unicode="&#x2265;" 
d="M60 87v30h387v-30h-387zM90 185l-8 14l251 159l-251 159l8 14l357 -165v-16z" />
    <glyph glyph-name="lessequal" unicode="&#x2264;" 
d="M60 87v30h387v-30h-387zM417 185l-357 165v16l357 165l8 -14l-251 -159l251 -159z" />
    <glyph glyph-name="plusminus" unicode="&#xb1;" 
d="M60 87v30h387v-30h-387zM237 235v98h-177v30h177v99h34v-99h176v-30h-176v-98h-34z" />
    <glyph glyph-name="approxequal" unicode="&#x2248;" 
d="M342 189q-34 0 -66 13t-63 25.5t-64 12.5q-29 0 -42.5 -12.5t-13.5 -33.5h-13q0 7 1 22t7.5 31.5t22.5 28t46 11.5q34 0 66 -12.5t63.5 -25.5t63.5 -13q29 0 42.5 12.5t13.5 33.5h13q0 -7 -1 -22t-7.5 -31.5t-22.5 -28t-46 -11.5zM342 341q-34 0 -66 13t-63 25.5
t-64 12.5q-29 0 -42.5 -12.5t-13.5 -33.5h-13q0 7 1 22t7.5 31.5t22.5 28t46 11.5q34 0 66 -12.5t63.5 -25.5t63.5 -13q29 0 42.5 12.5t13.5 33.5h13q0 -7 -1 -22t-7.5 -31.5t-22.5 -28t-46 -11.5z" />
    <glyph glyph-name="asciitilde" unicode="~" 
d="M310 588q-22 0 -46.5 12.5t-47 25.5t-40.5 13q-33 0 -33 -46h-13q0 8 2 23t8 31t18 27.5t32 11.5q23 0 47 -13t47 -25.5t40 -12.5q33 0 33 46h13q0 -8 -2 -23t-8 -31t-18 -27.5t-32 -11.5z" />
    <glyph glyph-name="logicalnot" unicode="&#xac;" 
d="M85 341v34h330v-178h-32v144h-298z" />
    <glyph glyph-name="asciicircum" unicode="^" 
d="M156 510l75 240h40l75 -240h-12l-83 146l-83 -146h-12z" />
    <glyph glyph-name="uni00B5" unicode="&#xb5;" 
d="M-41 -190q-52 0 -86 24.5t-34 57.5q0 20 13 34t34 14q20 0 31.5 -11.5t17.5 -27t9 -29.5l7 -34q2 -1 6 -2t10 -1q27 0 39 27.5t25 67.5l187 558h-119l5 24l125 13l49 25h24l-137 -414q-13 -41 -5.5 -67t35.5 -26q35 0 69 48t69.5 157.5t74.5 291.5h69l-97 -456
q-3 -14 -3.5 -28t15.5 -14t31 17t37 47l26 35l17 -13l-23 -31q-32 -43 -59 -75t-62 -32q-27 0 -45 21t-3 66l56 170h-15q-14 -42 -32 -86.5t-41.5 -83.5t-52.5 -63t-64 -24q-29 0 -40.5 17t-10.5 33h-13l4 -95l-5 -15q-7 -23 -21 -51t-41 -48.5t-76 -20.5z" />
    <glyph glyph-name="percent" unicode="%" 
d="M364 13q22 0 39.5 18t17.5 64v50q0 47 -17.5 64.5t-39.5 17.5t-39.5 -17.5t-17.5 -64.5v-50q0 -46 17.5 -64t39.5 -18zM364 -10q-37 0 -61.5 19t-37 48.5t-12.5 62.5t12.5 62.5t37 48.5t61.5 19t61.5 -19t37 -48.5t12.5 -62.5t-12.5 -62.5t-37 -48.5t-61.5 -19zM113 112
l-29 18l339 539l29 -18zM146 513q22 0 39.5 18t17.5 64v50q0 47 -17.5 64.5t-39.5 17.5t-39.5 -17.5t-17.5 -64.5v-50q0 -46 17.5 -64t39.5 -18zM146 490q-37 0 -61.5 19t-37 48.5t-12.5 62.5t12.5 62.5t37 48.5t61.5 19t61.5 -19t37 -48.5t12.5 -62.5t-12.5 -62.5
t-37 -48.5t-61.5 -19z" />
    <glyph glyph-name="perthousand" unicode="&#x2030;" 
d="M368 13q22 0 39.5 18t17.5 64v50q0 47 -17.5 64.5t-39.5 17.5t-39.5 -17.5t-17.5 -64.5v-50q0 -46 17.5 -64t39.5 -18zM200 13q22 0 39.5 18t17.5 64v50q0 47 -17.5 64.5t-39.5 17.5t-39.5 -17.5t-17.5 -64.5v-50q0 -46 17.5 -64t39.5 -18zM200 -10q-37 0 -61.5 19
t-37 48.5t-12.5 62.5t12.5 62.5t37 48.5t61.5 19q29 0 50 -11.5t34 -30.5q14 19 35 30.5t49 11.5q37 0 61.5 -19t37 -48.5t12.5 -62.5t-12.5 -62.5t-37 -48.5t-61.5 -19q-28 0 -49 11.5t-35 30.5q-13 -19 -34 -30.5t-50 -11.5zM55 242l-21 27l356 276l21 -26zM132 513
q22 0 39.5 18t17.5 64v50q0 47 -17.5 64.5t-39.5 17.5t-39.5 -17.5t-17.5 -64.5v-50q0 -46 17.5 -64t39.5 -18zM132 490q-37 0 -61.5 19t-37 48.5t-12.5 62.5t12.5 62.5t37 48.5t61.5 19t61.5 -19t37 -48.5t12.5 -62.5t-12.5 -62.5t-37 -48.5t-61.5 -19z" />
    <glyph glyph-name="lozenge" unicode="&#x25ca;" 
d="M253 5l162 366l-162 366l-163 -366zM236 -32l-179 403l179 403h33l179 -403l-179 -403h-33z" />
    <glyph glyph-name="at" unicode="@" 
d="M242 191q30 0 49 18t30 44.5t13 50.5v112q-2 25 -13 51t-30 44t-49 18t-53 -22t-23 -84v-126q0 -61 23 -83.5t53 -22.5zM255 -10q-69 0 -122.5 32.5t-83.5 95.5t-30 154v196q0 137 63 209.5t168 72.5t168 -72.5t63 -209.5v-228q0 -34 -16.5 -59.5t-54.5 -25.5
q-31 0 -51 19t-24 56h-4q-5 -16 -18.5 -33.5t-34 -29.5t-48.5 -12q-45 0 -75 30t-45 76.5t-15 97.5q0 52 15.5 99t45.5 77t75 30q28 0 48 -12t33.5 -29.5t18.5 -33.5h3v65h58v-314q0 -42 30 -42q29 0 29 42v231q0 122 -55 186t-146 64t-146 -64t-55 -186v-204
q0 -121 58 -184.5t148 -65.5q41 0 73.5 12.5t55.5 31.5t34 36l21 -17q-12 -19 -38 -40.5t-63 -36t-83 -14.5z" />
    <glyph glyph-name="ampersand" unicode="&#x26;" 
d="M69 157q0 -60 36 -97.5t95 -37.5q50 0 86 26.5t57 67.5l-211 313q-24 -18 -43.5 -48t-19.5 -83v-141zM193 -10q-59 0 -101.5 29.5t-65.5 82.5t-23 122q0 64 17 108t42.5 73t52.5 49q-24 36 -43 73t-19 86q0 62 38 99.5t100 37.5t96.5 -34t34.5 -85q0 -39 -19 -68t-45 -49
t-46 -33l-26 -17l181 -268q2 13 3.5 27t1.5 28v163h-62l-1 28h164l1 -28h-70v-164q0 -49 -11 -92l53 -79q18 -26 35.5 -36.5t42.5 -14.5v-28h-103l-58 87q-28 -46 -71.5 -71.5t-98.5 -25.5zM109 630q0 -40 19 -74t42 -67l28 17q6 4 23 18t32.5 40t15.5 65q0 44 -22.5 68.5
t-56.5 24.5q-30 0 -55.5 -21t-25.5 -71z" />
    <glyph glyph-name="paragraph" unicode="&#xb6;" 
d="M299 -100v390q-82 0 -136.5 33t-82 84.5t-27.5 107.5q0 57 27.5 108.5t82 84t136.5 32.5h141v-34h-44v-806h-30v806h-37v-806h-30z" />
    <glyph glyph-name="section" unicode="&#xa7;" 
d="M333 170q26 11 41 36t15 60q0 40 -19.5 74.5t-51 65t-68 59.5t-70.5 59q-31 -7 -48.5 -32.5t-17.5 -60.5q0 -38 20.5 -72t54 -65t71.5 -61.5t73 -62.5zM259 -171q-43 0 -72.5 16.5t-47 40t-26.5 47.5t-11 39h-8v-133h-32v295h52v-39q0 -17 2.5 -46t10 -61t22.5 -60.5
t41 -46.5t66 -18q48 0 78 29.5t30 82.5q0 41 -23 76t-59 67t-76.5 64t-76.5 66t-59 73.5t-23 86.5q0 55 28.5 88.5t73.5 45.5v9q-34 32 -55.5 68t-21.5 78q0 41 19.5 74.5t53.5 53.5t79 20q47 0 76.5 -20t45.5 -46t22 -45h8v111h32v-268h-52v30q0 97 -34 151t-95 54
q-41 0 -64.5 -26.5t-23.5 -64.5q0 -37 23 -70.5t59 -65t76.5 -64t76.5 -68t59 -76t23 -88.5q0 -53 -27 -87t-71 -48v-9q32 -33 52.5 -69t20.5 -77q0 -52 -23.5 -90t-62.5 -59t-86 -21z" />
    <glyph glyph-name="copyright" unicode="&#xa9;" 
d="M248 155q-38 0 -65.5 23.5t-43.5 61.5t-21.5 84t0 92t22 84t43.5 61.5t65 23.5q28 0 47.5 -13t31 -31.5t14.5 -36.5h8v71h23v-182h-38v23q0 65 -20.5 101t-60.5 36q-27 0 -42 -15t-21.5 -36.5t-8 -41.5t-1.5 -30v-120q0 -10 1.5 -30t8 -41.5t21.5 -36.5t42 -15
q40 0 60.5 36.5t20.5 100.5v23h38v-182h-23v71h-8q-3 -17 -14.5 -36t-31 -32t-47.5 -13zM250 18q54 0 94.5 30t67.5 80.5t40.5 113.5t13.5 129t-13.5 128.5t-40.5 113t-67.5 80t-94.5 29.5t-94.5 -29.5t-67.5 -80t-40.5 -113t-13.5 -128.5t13.5 -129t40.5 -113.5t67.5 -80.5
t94.5 -30zM250 -10q-62 0 -108 32t-77 86.5t-46 122.5t-15 139t15 139t46 122.5t77 86.5t108 32t108 -32t77 -86.5t46 -122.5t15 -139t-15 -139t-46 -122.5t-77 -86.5t-108 -32z" />
    <glyph glyph-name="registered" unicode="&#xae;" 
d="M220 532h23q27 0 41 10t14 37v13q0 50 -55 50h-23v-110zM314 384q-19 0 -28 11.5t-9 28.5v49q0 22 -8.5 30t-31.5 8h-17v-104l34 -4v-15h-100v15l33 4v233l-33 4v15h98q44 0 62 -23.5t18 -47.5q0 -27 -16.5 -46.5t-43.5 -19.5h-3v-3h2q38 0 38 -42v-46q0 -6 1.5 -13.5
t10.5 -7.5q12 0 12 18v46h18v-50q0 -13 -7 -26.5t-30 -13.5zM250 317q60 0 100.5 29t60.5 75t20 96t-20 95.5t-60 74.5t-101 29q-60 0 -100.5 -29t-60.5 -74t-20 -95t20.5 -96t60.5 -75.5t100 -29.5zM250 293q-68 0 -114.5 33t-69.5 84.5t-23 107.5t23 106.5t69 83t115 32.5
t115 -32.5t69 -83.5t23 -107t-23 -107.5t-69 -84t-115 -32.5z" />
    <glyph glyph-name="trademark" unicode="&#x2122;" 
d="M244 438v15l22 2v277l-22 2v12h52l59 -248l60 248h57v-12l-27 -2v-277l27 -2v-15h-81v15l22 2v202l-53 -219h-23l-52 219v-202l30 -2v-15h-71zM58 438v15l55 6v269h-21q-29 0 -34 -30l-6 -42h-13v94h8l12 -4h142l13 4h7v-94h-12l-6 42q-4 30 -35 30h-20v-269l55 -6v-15
h-145z" />
    <glyph glyph-name="degree" unicode="&#xb0;" 
d="M254 570q35 0 53.5 22t18.5 53q0 32 -18.5 53.5t-53.5 21.5t-53.5 -21.5t-18.5 -53.5q0 -31 18.5 -53t53.5 -22zM254 540q-49 0 -77 31t-28 74q0 44 28 74.5t77 30.5t77 -30.5t28 -74.5q0 -43 -28 -74t-77 -31z" />
    <glyph glyph-name="bar" unicode="|" 
d="M224 -173v947h34v-947h-34z" />
    <glyph glyph-name="brokenbar" unicode="&#xa6;" 
d="M224 -173v383h34v-383h-34zM224 391v383h34v-383h-34z" />
    <glyph glyph-name="dagger" unicode="&#x2020;" 
d="M243 -112q-16 62 -21.5 114.5t-2.5 118.5l21 461l-5 3q-3 -5 -14 -10.5t-31 -5.5h-60q-25 0 -34 -13t-9 -30v-76h-28v192h29v-74h4q3 22 20 43.5t56 21.5q28 0 45 -11t22 -22l6 4l-4 16q-13 51 -18 74t-5 35q0 22 11 33t25 11t25 -11t11 -33q0 -12 -5 -35t-18 -74l-4 -16
l6 -4q5 11 22.5 22t44.5 11q39 0 56 -21.5t20 -43.5h4v74h29v-192h-28v76q0 17 -9 30t-34 13h-60q-19 0 -30.5 5.5t-14.5 10.5l-5 -3l21 -461q3 -66 -2.5 -118.5t-21.5 -114.5h-14z" />
    <glyph glyph-name="daggerdbl" unicode="&#x2021;" 
d="M250 -112q-14 0 -25 11t-11 33q0 12 5 35t18 74l4 16l-6 4q-5 -10 -22 -21.5t-45 -11.5q-39 0 -56 21.5t-20 43.5h-4v-74h-29v192h28v-76q0 -17 9 -30t34 -13h70q14 0 23.5 -5.5t12.5 -10.5l4 3l-9 51q-6 35 -5 76t17 107h14q16 -65 17 -106.5t-5 -76.5l-9 -51l4 -3
q3 5 12.5 10.5t23.5 5.5h70q25 0 34 13t9 30v76h28v-192h-29v74h-4q-3 -22 -20 -43.5t-56 -21.5q-27 0 -44.5 11.5t-22.5 21.5l-6 -4l4 -16q13 -51 18 -74t5 -35q0 -22 -11 -33t-25 -11zM243 348q-16 66 -17 107t5 76l9 51l-4 3q-3 -5 -12.5 -10.5t-23.5 -5.5h-70
q-25 0 -34 -13t-9 -30v-76h-28v192h29v-74h4q3 22 20 43.5t56 21.5q28 0 45 -11t22 -22l6 4l-4 16q-13 51 -18 74t-5 35q0 22 11 33t25 11t25 -11t11 -33q0 -12 -5 -35t-18 -74l-4 -16l6 -4q5 11 22.5 22t44.5 11q39 0 56 -21.5t20 -43.5h4v74h29v-192h-28v76q0 17 -9 30
t-34 13h-70q-14 0 -23.5 5.5t-12.5 10.5l-4 -3l9 -51q6 -35 5 -76.5t-17 -106.5h-14z" />
    <glyph glyph-name="uni0308" unicode="&#x308;" horiz-adv-x="0" 
d="M250 605q-21 0 -35.5 14.5t-14.5 35.5t14.5 35.5t35.5 14.5q22 0 36 -14.5t14 -35.5t-14 -35.5t-36 -14.5zM397 605q-22 0 -36 14.5t-14 35.5t14 35.5t36 14.5q21 0 35.5 -14.5t14.5 -35.5t-14.5 -35.5t-35.5 -14.5z" />
    <glyph glyph-name="uni0307" unicode="&#x307;" horiz-adv-x="0" 
d="M243 630q-23 0 -39 16t-16 39t16 39t39 16t39 -16t16 -39t-16 -39t-39 -16z" />
    <glyph glyph-name="gravecomb" unicode="&#x300;" horiz-adv-x="0" 
d="M264 580l-68 180h70l10 -180h-12z" />
    <glyph glyph-name="acutecomb" unicode="&#x301;" horiz-adv-x="0" 
d="M196 580l10 180h70l-68 -180h-12z" />
    <glyph glyph-name="uni030B" unicode="&#x30b;" horiz-adv-x="0" 
d="M196 580l10 180h60l-58 -180h-12zM292 580l10 180h60l-58 -180h-12z" />
    <glyph glyph-name="uni0302" unicode="&#x302;" horiz-adv-x="0" 
d="M176 580l65 170h40l65 -170h-12l-73 106l-73 -106h-12z" />
    <glyph glyph-name="uni030C" unicode="&#x30c;" horiz-adv-x="0" 
d="M241 580l-65 170h12l73 -106l73 106h12l-65 -170h-40z" />
    <glyph glyph-name="uni0306" unicode="&#x306;" horiz-adv-x="0" 
d="M214 596q-34 0 -52 25t-22.5 60.5t-0.5 68.5h18q-3 -22 0.5 -45.5t17 -40t39.5 -16.5t39.5 16.5t17.5 40t1 45.5h18q4 -33 -1 -68.5t-22.5 -60.5t-52.5 -25z" />
    <glyph glyph-name="uni030A" unicode="&#x30a;" horiz-adv-x="0" 
d="M310 611q26 0 40 16.5t14 39.5t-14 39.5t-40 16.5t-40 -16.5t-14 -39.5t14 -39.5t40 -16.5zM310 584q-38 0 -60.5 24.5t-22.5 58.5q0 35 22.5 59t60.5 24t60.5 -24t22.5 -59q0 -34 -22.5 -58.5t-60.5 -24.5z" />
    <glyph glyph-name="tildecomb" unicode="&#x303;" horiz-adv-x="0" 
d="M297 607q-21 0 -36 12.5t-27.5 25.5t-27.5 13q-13 0 -19 -12.5t-6 -33.5h-13q0 8 1 23t5.5 31t15 27.5t29.5 11.5q21 0 35.5 -13t27.5 -25.5t28 -12.5q14 0 19.5 12.5t5.5 33.5h13q0 -7 -1 -22.5t-5.5 -31.5t-15 -27.5t-29.5 -11.5z" />
    <glyph glyph-name="uni0304" unicode="&#x304;" horiz-adv-x="0" 
d="M112 638v31h264v-31h-264z" />
    <glyph glyph-name="hookabovecomb" unicode="&#x309;" horiz-adv-x="0" 
d="M114 590v6q0 29 9 44t18 26.5t9 29.5q0 19 -10 27t-23 8t-21 -6.5t-10 -12.5l6 -3q8 -4 14 -9t6 -15q0 -7 -5.5 -14.5t-18.5 -7.5t-21 9t-8 24q0 20 16.5 39t51.5 19q30 0 47.5 -15t17.5 -38q0 -18 -9 -30t-20 -22.5t-20 -22.5t-9 -30v-6h-20z" />
    <glyph glyph-name="uni0312" unicode="&#x312;" horiz-adv-x="0" 
d="M221 580q-20 0 -34.5 13.5t-14.5 41.5q0 27 14.5 52t36 44t40.5 30l11 -16q-19 -12 -38 -31t-19 -35q22 0 38 -11.5t16 -36.5q0 -23 -14.5 -37t-35.5 -14z" />
    <glyph glyph-name="uni031B" unicode="&#x31b;" horiz-adv-x="0" 
d="M355 483v25h18q28 0 40.5 13t12.5 24q-22 -4 -38 8t-16 32t12 31t31 11q16 0 31 -10.5t15 -42.5q0 -17 -7 -38.5t-26 -37t-55 -15.5h-18z" />
    <glyph glyph-name="dotbelowcomb" unicode="&#x323;" horiz-adv-x="0" 
d="M226 -171q-21 0 -35.5 14.5t-14.5 35.5q0 20 14.5 34.5t35.5 14.5t35 -14.5t14 -34.5q0 -21 -14 -35.5t-35 -14.5z" />
    <glyph glyph-name="uni0326" unicode="&#x326;" horiz-adv-x="0" 
d="M183 -207l-11 16q19 12 38.5 31t19.5 35q-23 0 -38.5 11.5t-15.5 36.5q0 23 14 37t35 14q20 0 35 -13.5t15 -41.5q0 -27 -15 -52t-36.5 -44t-40.5 -30z" />
    <glyph glyph-name="uni0327" unicode="&#x327;" horiz-adv-x="0" 
d="M194 -213q-44 0 -73.5 16.5t-29.5 43.5q0 12 7.5 23.5t25.5 11.5q23 0 31.5 -17t10.5 -30l4 -23q3 -1 10 -3t16 -2q29 0 42.5 16t13.5 35q0 27 -22 42.5t-59 15.5q-10 0 -20 -1.5t-19 -5.5l-9 5l41 78h33l-24 -42q45 4 71.5 -8t38 -32.5t11.5 -42.5q0 -17 -8.5 -36
t-30 -31.5t-61.5 -12.5z" />
    <glyph glyph-name="uni0328" unicode="&#x328;" horiz-adv-x="0" 
d="M223 -176q-26 0 -50.5 17t-24.5 60q0 39 23.5 64.5t45.5 34.5h30q-19 -7 -38 -26.5t-19 -50.5q0 -27 15 -40.5t37 -13.5q23 0 37.5 12t18.5 23l12 -6q-6 -24 -27.5 -49t-59.5 -25z" />
    <glyph glyph-name="dieresis" unicode="&#xa8;" 
d="M250 605q-21 0 -35.5 14.5t-14.5 35.5t14.5 35.5t35.5 14.5q22 0 36 -14.5t14 -35.5t-14 -35.5t-36 -14.5zM397 605q-22 0 -36 14.5t-14 35.5t14 35.5t36 14.5q21 0 35.5 -14.5t14.5 -35.5t-14.5 -35.5t-35.5 -14.5z" />
    <glyph glyph-name="grave" unicode="`" 
d="M264 580l-68 180h70l10 -180h-12z" />
    <glyph glyph-name="acute" unicode="&#xb4;" 
d="M196 580l10 180h70l-68 -180h-12z" />
    <glyph glyph-name="circumflex" unicode="&#x2c6;" 
d="M176 580l65 170h40l65 -170h-12l-73 106l-73 -106h-12z" />
    <glyph glyph-name="ring" unicode="&#x2da;" 
d="M310 611q26 0 40 16.5t14 39.5t-14 39.5t-40 16.5t-40 -16.5t-14 -39.5t14 -39.5t40 -16.5zM310 584q-38 0 -60.5 24.5t-22.5 58.5q0 35 22.5 59t60.5 24t60.5 -24t22.5 -59q0 -34 -22.5 -58.5t-60.5 -24.5z" />
    <glyph glyph-name="tilde" unicode="&#x2dc;" 
d="M274 607q-21 0 -36 12.5t-27.5 25.5t-27.5 13q-13 0 -19 -12.5t-6 -33.5h-13q0 8 1 23t5.5 31t15 27.5t29.5 11.5q21 0 35.5 -13t27.5 -25.5t28 -12.5q14 0 19.5 12.5t5.5 33.5h13q0 -7 -1 -22.5t-5.5 -31.5t-15 -27.5t-29.5 -11.5z" />
    <glyph glyph-name="macron" unicode="&#xaf;" 
d="M112 638v31h264v-31h-264z" />
    <glyph glyph-name="cedilla" unicode="&#xb8;" 
d="M194 -213q-44 0 -73.5 16.5t-29.5 43.5q0 12 7.5 23.5t25.5 11.5q23 0 31.5 -17t10.5 -30l4 -23q3 -1 10 -3t16 -2q29 0 42.5 16t13.5 35q0 27 -22 42.5t-59 15.5q-10 0 -20 -1.5t-19 -5.5l-9 5l41 78h33l-24 -42q45 4 71.5 -8t38 -32.5t11.5 -42.5q0 -17 -8.5 -36
t-30 -31.5t-61.5 -12.5z" />
    <glyph glyph-name="uni03060301" horiz-adv-x="0" 
d="M214 596q-34 0 -52 25t-22.5 60.5t-0.5 68.5h18q-3 -22 0.5 -45.5t17 -40t39.5 -16.5t39.5 16.5t17.5 40t1 45.5h18q4 -33 -1 -68.5t-22.5 -60.5t-52.5 -25zM200 720l10 180h70l-68 -180h-12z" />
    <glyph glyph-name="uni03060300" horiz-adv-x="0" 
d="M214 596q-34 0 -52 25t-22.5 60.5t-0.5 68.5h18q-3 -22 0.5 -45.5t17 -40t39.5 -16.5t39.5 16.5t17.5 40t1 45.5h18q4 -33 -1 -68.5t-22.5 -60.5t-52.5 -25zM216 720l-68 180h70l10 -180h-12z" />
    <glyph glyph-name="uni03060309" horiz-adv-x="0" 
d="M214 596q-34 0 -52 25t-22.5 60.5t-0.5 68.5h18q-3 -22 0.5 -45.5t17 -40t39.5 -16.5t39.5 16.5t17.5 40t1 45.5h18q4 -33 -1 -68.5t-22.5 -60.5t-52.5 -25zM199 730v6q0 29 9 44t18 26.5t9 29.5q0 19 -10 27t-23 8t-21 -6.5t-10 -12.5l6 -3q8 -4 14 -9t6 -15
q0 -7 -5.5 -14.5t-18.5 -7.5t-21 9t-8 24q0 20 16.5 39t51.5 19q30 0 47.5 -15t17.5 -38q0 -18 -9 -30t-20 -22.5t-20 -22.5t-9 -30v-6h-20z" />
    <glyph glyph-name="uni03060303" horiz-adv-x="0" 
d="M214 596q-34 0 -52 25t-22.5 60.5t-0.5 68.5h18q-3 -22 0.5 -45.5t17 -40t39.5 -16.5t39.5 16.5t17.5 40t1 45.5h18q4 -33 -1 -68.5t-22.5 -60.5t-52.5 -25zM257 767q-21 0 -36 12.5t-27.5 25.5t-27.5 13q-13 0 -19 -12.5t-6 -33.5h-13q0 8 1 23t5.5 31t15 27.5
t29.5 11.5q21 0 36 -13t27.5 -25.5t27.5 -12.5q14 0 19.5 12.5t5.5 33.5h13q0 -7 -1 -22.5t-5.5 -31.5t-15 -27.5t-29.5 -11.5z" />
    <glyph glyph-name="uni03020301" horiz-adv-x="0" 
d="M176 580l65 170h40l65 -170h-12l-73 106l-73 -106h-12zM332 701l10 180h70l-68 -180h-12z" />
    <glyph glyph-name="uni03020300" horiz-adv-x="0" 
d="M176 580l65 170h40l65 -170h-12l-73 106l-73 -106h-12zM348 701l-68 180h70l10 -180h-12z" />
    <glyph glyph-name="uni03020309" horiz-adv-x="0" 
d="M176 580l65 170h40l65 -170h-12l-73 106l-73 -106h-12zM331 711v6q0 29 9 44t18 26.5t9 29.5q0 19 -10 27t-23 8t-21 -6.5t-10 -12.5l6 -3q8 -4 14 -9t6 -15q0 -7 -5.5 -14.5t-18.5 -7.5t-21 9t-8 24q0 20 16.5 39t51.5 19q30 0 47.5 -15t17.5 -38q0 -18 -9 -30
t-20 -22.5t-20 -22.5t-9 -30v-6h-20z" />
    <glyph glyph-name="uni03020303" horiz-adv-x="0" 
d="M221 580l65 170h40l65 -170h-12l-73 106l-73 -106h-12zM345 771q-21 0 -35.5 12.5t-27.5 25.5t-28 13q-13 0 -19 -12.5t-6 -33.5h-13q0 8 1 23t5.5 31t15 27.5t29.5 11.5q21 0 35.5 -13t27.5 -25.5t28 -12.5q14 0 19.5 12.5t5.5 33.5h13q0 -7 -1 -22.5t-5.5 -31.5
t-15 -27.5t-29.5 -11.5z" />
  </font>
</defs>
</svg>
